<svg width="193" height="191" viewBox="0 0 193 191" fill="none" xmlns="http://www.w3.org/2000/svg">
<path d="M178.041 99.1957L177.931 96.869L187.666 96.4087L180.242 92.3662L180.174 90.9099L187.235 86.1309L177.431 86.6415L177.312 84.298L192.263 83.5866L192.348 85.2856L183.137 91.4958L192.915 96.8021L193 98.5011L178.058 99.2125L178.041 99.1957Z" fill="black"/>
<path d="M179.378 113.967L180.673 106.853L177.414 104.727L177.862 102.267L191.425 111.331L191.027 113.49L175.128 117.298L175.577 114.838L179.386 113.967H179.378ZM181.621 113.457L188.453 111.909L182.595 108.084L181.621 113.457Z" fill="black"/>
<path d="M176.44 135.787L168.922 132.749L169.633 131.033L172.08 131.836C170.869 130.221 170.53 128.179 171.496 125.835C173.189 121.743 177.608 120.027 181.46 121.584C185.761 123.325 187.454 127.744 185.803 131.736C184.576 134.699 181.765 136.85 178.124 136.322L179.081 134.004C181.511 134.163 183.077 132.565 183.746 130.949C184.94 128.07 183.687 125.049 180.554 123.777C177.887 122.697 174.763 123.743 173.561 126.664C172.562 129.083 173.468 131.259 175.39 132.598L177.295 127.986L179.335 128.807L176.448 135.778L176.44 135.787Z" fill="black"/>
<path d="M171.235 155.865L159.01 147.32L160.102 145.788L173.825 144.7L165.198 138.666L166.57 136.749L178.795 145.295L177.737 146.768L163.776 147.806L172.581 153.965L171.218 155.865H171.235Z" fill="black"/>
<path d="M151.06 159.967L156.444 155.079L155.157 151.438L157.02 149.748L162.26 165.081L160.618 166.57L145.633 160.084L147.495 158.393L151.06 159.975V159.967ZM153.151 160.904L159.542 163.767L157.223 157.213L153.151 160.904Z" fill="black"/>
<path d="M128.989 173.223L135.618 170.177L135.5 166.319L137.794 165.264L138.107 181.442L136.092 182.371L123.791 171.709L126.085 170.654L128.998 173.223H128.989ZM130.699 174.738L135.914 179.367L135.703 172.428L130.691 174.73L130.699 174.738Z" fill="black"/>
<path d="M109.271 183.51L107.357 175.701L109.178 175.266L109.956 177.701C110.575 175.785 112.048 174.311 114.528 173.717C118.871 172.671 122.867 175.207 123.849 179.208C124.941 183.669 122.308 187.619 118.075 188.632C114.935 189.385 111.514 188.389 109.821 185.167L112.285 184.581C113.58 186.623 115.807 186.941 117.517 186.531C120.573 185.794 122.317 183.024 121.521 179.768C120.844 176.998 118.16 175.107 115.053 175.851C112.488 176.471 111.235 178.471 111.26 180.789L116.162 179.618L116.679 181.735L109.271 183.51Z" fill="black"/>
<path d="M100.484 188.615L100.416 184.372L92.9319 184.497L92.8981 182.347L100.382 182.221L100.314 178.153L91.9499 178.287L91.916 176.111L102.651 175.935L102.896 190.724L92.1615 190.9L92.1277 188.749L100.492 188.615H100.484Z" fill="black"/>
<path d="M72.4355 188.063L75.1616 173.516L77.0241 173.86L83.78 185.719L85.7018 175.45L88.0384 175.877L85.3124 190.423L83.5176 190.096L76.7194 178.011L74.7552 188.498L72.4355 188.071V188.063Z" fill="black"/>
<path d="M57.6374 172.805L55.3939 171.86C57.4511 168.872 60.9476 167.792 64.3933 169.24C68.3639 170.914 70.2433 175.249 68.4908 179.317C66.7299 183.401 62.2768 185.025 58.3062 183.351C54.869 181.903 53.2097 178.697 53.9631 175.157L56.2151 176.103C55.8595 178.438 56.8839 180.38 59.1698 181.342C61.9805 182.531 65.0113 181.325 66.2812 178.379C67.5427 175.458 66.332 172.437 63.5128 171.257C61.227 170.294 59.0936 170.905 57.6289 172.797L57.6374 172.805Z" fill="black"/>
<path d="M36.0918 170.219L46.6489 165.532L49.5274 161.355L51.5084 162.694L48.63 166.871L48.0797 178.303L45.9124 176.847L46.3611 168.084L38.2591 171.683L36.0918 170.227V170.219Z" fill="black"/>
<path d="M31.9832 155.949C30.8657 156.937 29.037 156.803 28.055 155.715C27.039 154.594 27.1322 152.794 28.2497 151.807C29.3672 150.819 31.1874 150.936 32.1948 152.058C33.1769 153.146 33.1007 154.962 31.9832 155.949Z" fill="black"/>
<path d="M12.791 143.018L25.6848 135.494L26.8954 137.52L14.0017 145.044L12.791 143.018Z" fill="black"/>
<path d="M4.43652 124.831L18.3462 119.366L19.0489 121.107L12.4877 133.075L22.3083 129.217L23.1888 131.401L9.27909 136.866L8.60181 135.192L15.3323 123.065L5.30852 127.007L4.43652 124.848V124.831Z" fill="black"/>
<path d="M2.55597 106.067L3.52109 111.223L16.1016 108.929L16.5249 111.223L3.94439 113.516L4.90952 118.671L2.76762 119.065L0.414062 106.46L2.55597 106.067Z" fill="black"/>
<path d="M2.1673 98.2248H6.45958V90.8178H8.64381V98.2165H12.7583V89.939H14.9595L14.9679 100.56L0 100.577V89.9558H2.1673V98.2248Z" fill="black"/>
<path d="M10.1077 70.7306L18.0658 72.3375L17.6933 74.1537L15.1365 73.8189C16.6265 75.1832 17.3546 77.1333 16.8382 79.6023C15.9493 83.9293 11.9279 86.4318 7.84728 85.6116C3.29256 84.6909 0.803546 80.6568 1.67555 76.4386C2.31896 73.3 4.68099 70.672 8.35524 70.5214L7.84728 72.9736C5.426 73.2666 4.18996 75.1246 3.84285 76.832C3.21636 79.8785 5.01116 82.6153 8.32984 83.2849C11.1575 83.854 14.019 82.2554 14.6624 79.1671C15.1873 76.606 13.892 74.6392 11.7501 73.6683L10.7427 78.5477L8.58382 78.1125L10.1077 70.7306Z" fill="black"/>
<path d="M17.4477 60.6372L16.0339 63.7591L20.6563 65.8012L19.6827 67.9438L6.01855 61.9094L8.4737 56.4859C9.83673 53.4646 12.5967 52.0585 15.3481 53.2804C17.38 54.176 18.3451 56.034 18.1673 58.1431L24.8385 56.5613L23.6533 59.1809L17.4477 60.6372ZM14.0528 62.8803L15.5005 59.6831C16.3132 57.8753 15.9746 56.0758 14.4084 55.3895C12.8422 54.6949 11.259 55.6406 10.4378 57.4484L8.99013 60.6456L14.0528 62.8803Z" fill="black"/>
<path d="M29.5305 43.5387L25.2637 49.4057L27.2786 52.7117L25.797 54.7455L17.5088 40.7851L18.8041 39.0024L34.8133 42.3419L33.3318 44.3757L29.5221 43.5387H29.5305ZM27.287 43.0449L20.4465 41.53L24.0615 47.4808L27.287 43.0449Z" fill="black"/>
<path d="M48.3239 23.5605L50.2796 22.1126C51.8627 25.3683 51.05 28.9086 48.053 31.1265C44.5989 33.6792 39.8494 33.1101 37.1742 29.5698C34.4904 26.0128 35.3032 21.3844 38.7573 18.8317C41.7543 16.6138 45.3947 16.8147 48.1038 19.2335L46.1482 20.6814C44.2856 19.2 42.0675 19.0996 40.078 20.5726C37.6313 22.3804 37.1572 25.5859 39.096 28.147C41.0177 30.6913 44.2687 31.1684 46.7238 29.3606C48.7134 27.8875 49.2467 25.7533 48.3239 23.5605Z" fill="black"/>
<path d="M67.8126 11.9769C69.5396 15.8854 67.7279 20.3715 63.7827 22.0789C59.8291 23.7863 55.2659 22.0538 53.5388 18.1452C51.8118 14.2366 53.6235 9.75059 57.5771 8.04321C61.5308 6.33583 66.094 8.06832 67.821 11.9769H67.8126ZM65.6199 12.931C64.3923 10.1607 61.2599 8.82994 58.4576 10.0435C55.6554 11.2571 54.5124 14.4375 55.74 17.2078C56.9676 19.9781 60.0915 21.2838 62.8938 20.0786C65.6961 18.865 66.8474 15.7097 65.6199 12.9394V12.931Z" fill="black"/>
<path d="M89.2906 15.0394L86.9709 15.4578L85.2269 5.97519L82.1453 13.7839L80.6976 14.0434L74.9746 7.74953L76.7694 17.2908L74.4328 17.7092L71.749 3.15467L73.4422 2.85337L80.8839 11.0722L84.9222 0.794466L86.6154 0.493164L89.2906 15.0477V15.0394Z" fill="black"/>
<path d="M108.635 15.6342L106.282 15.5003L106.84 5.87539L101.981 12.7468L100.508 12.6631L96.4442 5.2142L95.9193 14.9061L93.5488 14.7722L94.4124 0L96.1225 0.100434L101.397 9.81743L107.772 0.761625L109.482 0.862059L108.618 15.6342H108.635Z" fill="black"/>
<path d="M127.143 13.8096C125.966 17.8018 122.715 19.5846 118.931 18.4965C115.163 17.4169 113.368 14.1779 114.545 10.1856L116.89 2.2262L119.176 2.87902L116.831 10.8384C116.061 13.4497 117.144 15.7095 119.549 16.4041C121.961 17.0988 124.112 15.7681 124.882 13.1568L127.227 5.19737L129.488 5.85019L127.143 13.8096Z" fill="black"/>
<path d="M147.826 14.7642L140.714 27.7871L139.047 26.9L136.295 13.5674L131.275 22.7571L129.184 21.6439L136.295 8.62097L137.904 9.48303L140.63 23.05L145.752 13.6678L147.826 14.7726V14.7642Z" fill="black"/>
<path d="M155.478 20.3133L146.445 32.1226L144.549 30.6998L153.582 18.8988L155.478 20.3133Z" fill="black"/>
<path d="M167.584 34.281L163.834 30.5733L154.792 39.512L153.124 37.8632L162.166 28.9162L158.415 25.2085L159.956 23.6852L169.125 32.7494L167.584 34.2727V34.281Z" fill="black"/>
<path d="M180.318 48.217L168.762 48.7108L164.529 51.5313L163.191 49.5645L167.424 46.7439L172.208 36.3323L173.672 38.4749L169.981 46.451L178.854 46.0744L180.318 48.217Z" fill="black"/>
<path d="M178.778 62.9805C180.183 62.4783 181.834 63.2734 182.342 64.646C182.859 66.0604 182.105 67.6925 180.691 68.203C179.286 68.7052 177.643 67.9268 177.127 66.5208C176.628 65.1482 177.373 63.491 178.786 62.9888L178.778 62.9805Z" fill="black"/>
</svg>
