<svg width="150" height="150" viewBox="0 0 150 150" fill="none" xmlns="http://www.w3.org/2000/svg">
<g clip-path="url(#clip0_5_2)">
<mask id="mask0_5_2" style="mask-type:luminance" maskUnits="userSpaceOnUse" x="0" y="0" width="150" height="150">
<path d="M150 0H0V150H150V0Z" fill="white"/>
</mask>
<g mask="url(#mask0_5_2)">
<path d="M17.0383 59.2498L17.4347 57.2204C20.3008 58.3874 21.8209 61.0953 21.2148 64.2022C20.5153 67.7866 17.2132 70.1205 13.5012 69.3958C9.77231 68.6678 7.62612 65.2699 8.32559 61.6865C8.93277 58.5786 11.3239 56.636 14.4175 56.6318L14.0211 58.6612C12.0057 58.7801 10.5577 59.9781 10.1537 62.0434C9.65736 64.5842 11.2027 66.8784 13.8899 67.4032C16.5593 67.9248 18.8714 66.3838 19.3677 63.842C19.7708 61.7767 18.8794 60.122 17.0383 59.2498Z" fill="black"/>
<path d="M26.1448 38.6042C29.1789 40.4643 29.9258 43.5228 28.183 46.3659C26.4496 49.1931 23.3742 49.9317 20.3402 48.0706L14.2888 44.3607L15.3398 42.6448L21.3922 46.3557C23.3783 47.5734 25.484 47.203 26.5937 45.392C27.7044 43.5811 27.0882 41.5201 25.1021 40.3023L19.0507 36.5924L20.0925 34.8933L26.1448 38.6042Z" fill="black"/>
<path d="M42.132 28.2249L43.3294 29.6509L36.6112 35.2919L28.4677 25.5927L30.0075 24.2993L36.9546 32.5714L42.132 28.2249Z" fill="black"/>
<path d="M52.3897 12.8181L48.3143 14.7004L52.852 24.5229L51.0422 25.3585L46.5055 15.5351L42.4311 17.4175L41.6571 15.7437L51.6157 11.1444L52.3897 12.8181Z" fill="black"/>
<path d="M74.3176 14.0918C74.6761 17.6306 72.6962 20.0765 69.3799 20.4128C66.0815 20.7465 63.6319 18.7485 63.2745 15.2098L62.5602 8.15028L64.5611 7.94807L65.2753 15.0066C65.51 17.323 67.08 18.7745 69.1921 18.5603C71.3041 18.347 72.5695 16.6098 72.3358 14.2933L71.6206 7.23382L73.6034 7.0323L74.3176 14.0918Z" fill="black"/>
<path d="M89.0574 17.2928L86.2138 16.6082L85.2112 20.7754L83.2541 20.3033L86.2189 7.985L91.1639 9.17624C93.9178 9.83827 95.527 11.9126 94.9297 14.3936C94.4898 16.2232 93.0755 17.3207 91.2691 17.4993L93.6352 22.8023L91.2428 22.2266L89.0574 17.2928ZM86.6451 14.8155L89.5613 15.5173C91.2097 15.9131 92.6698 15.3444 93.0095 13.9311C93.3491 12.5188 92.3083 11.3485 90.66 10.9517L87.7437 10.2499L86.6451 14.8155Z" fill="black"/>
<path d="M107.856 17.7941L105.936 20.8792L111.316 24.2263L110.342 25.7926L104.962 22.4455L103.121 25.4049L109.133 29.1451L108.149 30.7272L100.428 25.9241L107.122 15.165L114.844 19.9681L113.869 21.5354L107.856 17.7941Z" fill="black"/>
<path d="M118.334 31.6115C119.263 30.7506 120.815 30.8366 121.664 31.7525C122.537 32.6958 122.491 34.2363 121.561 35.0962C120.631 35.9572 119.093 35.8854 118.22 34.942C117.371 34.0271 117.404 32.4725 118.334 31.6115Z" fill="black"/>
<path d="M129.684 53.3334C127.842 54.2705 125.787 53.3096 124.513 50.804L121.93 45.7243L133.216 39.9849L135.707 44.882C136.897 47.222 136.493 49.1813 134.7 50.0932C133.522 50.6918 132.197 50.5517 131.283 49.6577C131.77 51.3544 131.028 52.6497 129.684 53.3334ZM132.552 42.5797L129.232 44.2682L130.667 47.0896C131.435 48.6002 132.571 49.067 133.616 48.5351C134.596 48.0361 134.762 46.9288 134.029 45.4848L132.552 42.5797ZM129.006 51.4643C130.018 50.9499 130.16 49.7492 129.426 48.3052L127.755 45.0186L124.419 46.7148L126.056 49.9348C126.85 51.4948 128.043 51.9536 129.006 51.4643Z" fill="black"/>
<path d="M133.82 66.8754L133.421 63.9801L129.177 64.5653L128.902 62.5732L141.447 60.8403L142.143 65.8771C142.53 68.6813 141.187 70.9353 138.659 71.2843C136.796 71.5419 135.259 70.6261 134.434 69.0095L130.362 73.1452L130.025 70.709L133.82 66.8754ZM135.247 63.7278L135.657 66.6974C135.889 68.3767 136.95 69.5273 138.389 69.3283C139.829 69.1294 140.538 67.7345 140.307 66.0562L139.896 63.0856L135.247 63.7278Z" fill="black"/>
<path d="M131.326 89.7155L132.562 83.6571L129.847 81.7725L130.276 79.6737L141.565 87.6964L141.189 89.5401L127.664 92.4842L128.091 90.3853L131.326 89.7155ZM133.231 89.3236L139.043 88.1335L134.165 84.7431L133.231 89.3236Z" fill="black"/>
<path d="M129.666 115.405L118.907 108.722L119.753 107.361L131.289 105.734L123.694 101.016L124.756 99.3076L135.515 105.992L134.699 107.305L122.964 108.897L130.718 113.713L129.666 115.405Z" fill="black"/>
<path d="M108.196 127.104C105.911 124.185 106.476 120.313 109.541 117.914L113.223 115.032L121.03 125.007L117.349 127.888C114.284 130.287 110.423 129.95 108.196 127.104ZM109.795 125.853C111.345 127.833 114.114 128.078 116.212 126.436L118.31 124.794L112.788 117.739L110.69 119.381C108.592 121.024 108.188 123.8 109.795 125.853Z" fill="black"/>
<path d="M99.6909 131.137C100.155 132.315 99.5127 133.73 98.3515 134.189C97.1551 134.662 95.7354 134.06 95.2709 132.881C94.8053 131.702 95.4309 130.293 96.6273 129.822C97.7885 129.363 99.2253 129.958 99.6909 131.137Z" fill="black"/>
<path d="M76.3868 139.253L78.3505 139.057C78.7057 140.369 79.6942 141.095 81.5287 140.912C83.1407 140.752 84.1286 139.961 84.0069 138.737C83.9073 137.736 83.1149 137.293 81.7369 137.168L79.9407 136.99C77.5413 136.761 76.0902 135.895 75.896 133.95C75.6619 131.597 77.438 129.886 80.3284 129.598C83.4042 129.292 85.6201 130.699 86.1305 133.38L84.1487 133.577C83.749 132.008 82.395 131.189 80.3943 131.387C78.7452 131.552 77.7943 132.338 77.91 133.506C77.9858 134.266 78.5538 134.902 80.0621 135.013L82.3099 135.22C84.7076 135.431 85.9197 136.526 86.1045 138.379C86.3335 140.677 84.6272 142.344 81.83 142.622C79.5136 142.853 76.9728 142.132 76.3868 139.253Z" fill="black"/>
<path d="M55.7894 138.297L60.1797 139.235L62.4383 128.651L64.3873 129.066L62.1288 139.651L66.5182 140.587L66.1337 142.39L55.4049 140.101L55.7894 138.297Z" fill="black"/>
<path d="M37.724 124.258C39.6067 121.129 43.6273 120.156 46.756 122.038C49.8847 123.919 50.9091 127.927 49.0264 131.055C47.1447 134.184 43.1241 135.157 39.9954 133.276C36.8667 131.394 35.8423 127.386 37.724 124.258ZM39.4651 125.303C38.1303 127.522 38.7372 130.344 40.9563 131.679C43.1754 133.014 45.9525 132.228 47.2874 130.009C48.6222 127.791 48.0049 124.985 45.7858 123.65C43.5667 122.315 40.7999 123.085 39.4651 125.303Z" fill="black"/>
<path d="M28.6717 112.126L30.5063 114.403L33.8416 111.716L35.1035 113.282L25.2408 121.226L22.0522 117.267C20.2763 115.063 20.268 112.439 22.2551 110.838C23.7199 109.659 25.5072 109.653 27.0467 110.614L28.4091 104.973L29.9521 106.887L28.6717 112.126ZM29.07 115.56L27.1893 113.225C26.1272 111.904 24.6236 111.465 23.4925 112.376C22.3615 113.288 22.4723 114.849 23.5345 116.169L25.4152 118.504L29.07 115.56Z" fill="black"/>
<path d="M9.47095 93.3393L19.0908 95.157L23.1291 93.6211L23.8512 95.5169L19.8129 97.0549L13.837 104.809L13.0489 102.739L17.6449 96.8041L10.259 95.4103L9.47095 93.3393Z" fill="black"/>
<path d="M14.2958 83.7218C13.0364 83.8509 11.8466 82.85 11.7192 81.6086C11.5874 80.3302 12.5495 79.1257 13.81 78.9966C15.0694 78.8665 16.2575 79.8494 16.3893 81.1278C16.5167 82.3692 15.5563 83.5917 14.2958 83.7218Z" fill="black"/>
</g>
</g>
<defs>
<clipPath id="clip0_5_2">
<rect width="150" height="150" fill="white"/>
</clipPath>
</defs>
</svg>
