<?xml version="1.0" encoding="UTF-8"?> <svg xmlns="http://www.w3.org/2000/svg" id="Layer_2" data-name="Layer 2" viewBox="0 0 222.58 228.01"> <defs> <style> .cls-1 { stroke-width: 0px; } </style> </defs> <g id="Layer_1-2" data-name="Layer 1"> <path class="cls-1" d="M104.95,62.78c2.72-1.86,5.71-2.79,8.97-2.79l-.04-.04c1.83,0,3.65.32,5.45.94,2.69.89,4.73,2.07,6.11,3.56,1.39,1.49,2.37,2.86,2.94,4.12,1.37,2.89,1.83,5.96,1.37,9.22-.46,3.26-1.2,6.36-2.23,9.31.4.03.8.04,1.2.04h1.2c2.8,0,5.36.69,7.66,2.06,2.3,1.37,4.13,3.2,5.49,5.49,1.36,2.29,2.04,4.83,2.04,7.64,0,1.46-.2,2.89-.6,4.29,2.6,2.75,3.9,6.01,3.9,9.78,0,3.12-.89,5.91-2.66,8.37.86,1.89,1.29,3.93,1.29,6.13,0,2-.37,3.9-1.12,5.71s-1.79,3.39-3.13,4.76c.11.74.17,1.42.17,2.02,0,2.63-.61,5.05-1.82,7.25-1.22,2.2-2.85,4-4.89,5.38-2.04,1.39-4.34,2.19-6.89,2.42h-27.8c-2.03-.14-4.57-.54-7.62-1.18s-6.14-1.84-9.29-3.58c-1.95-1.06-3.9-2.42-5.86-4.1-1.96-1.67-3.77-3.75-5.43-6.24-1.66-2.49-3-5.45-4.01-8.88-1.02-3.43-1.52-7.41-1.52-11.93,0-4.83.64-8.95,1.91-12.33,1.27-3.39,2.85-6.21,4.72-8.45,1.87-2.25,3.76-4.05,5.66-5.41,1.9-1.36,3.48-2.41,4.74-3.15.71-.43,1.22-.73,1.5-.9,1.52-1.12,2.92-2.37,4.2-3.75,1.29-1.39,2.16-2.51,2.62-3.37.57-1.09,1.11-2.34,1.61-3.75.5-1.42.99-2.84,1.48-4.27l.26-.77c.34-1.03.7-2.06,1.07-3.09.37-1.03.76-2,1.16-2.92,1.4-3.2,3.46-5.73,6.18-7.59ZM113.87,66.09l.04.09c-2,0-3.85.58-5.53,1.74-1.69,1.16-2.99,2.8-3.9,4.91-.43.94-.83,1.95-1.2,3-.37,1.06-.74,2.15-1.12,3.26-.51,1.57-1.05,3.15-1.61,4.72-.56,1.57-1.19,3-1.91,4.29-.71,1.34-1.89,2.89-3.52,4.63-1.63,1.75-3.35,3.28-5.15,4.59-.2.14-.45.3-.75.47-.3.17-.61.36-.92.56l-.26.17c-1.23.72-2.64,1.63-4.23,2.75-1.59,1.12-3.12,2.58-4.61,4.4-1.49,1.82-2.72,4.09-3.71,6.82-.99,2.73-1.48,6.07-1.48,10.02,0,4.81.64,8.89,1.91,12.25,1.27,3.36,2.94,6.14,5,8.32,2.06,2.19,4.28,3.91,6.67,5.17,2.39,1.26,4.72,2.18,6.99,2.77,2.27.59,4.28.95,6.01,1.09,1.73.14,2.92.21,3.58.21h5.66c-.6-.12-1.29-.45-2.08-1.01-.79-.56-1.44-1.44-1.97-2.66s-.71-2.85-.54-4.91c.03-.26.06-.5.09-.73.14-1.57.59-2.82,1.35-3.73.76-.92,1.38-1.52,1.87-1.8-1-.71-1.79-1.61-2.38-2.68-.59-1.07-.88-2.32-.88-3.75,0-1.29.27-2.46.82-3.52.54-1.06,1.36-2.23,2.45-3.52-1.09-1.17-1.9-2.27-2.45-3.3-.54-1.03-.82-2.22-.82-3.56,0-1.77.33-3.32.99-4.63.66-1.32,1.42-2.17,2.27-2.57-.86-.6-1.6-1.47-2.23-2.62-.63-1.14-.94-2.67-.94-4.59,0-2.69.68-4.89,2.04-6.61,1.36-1.72,3.12-3.01,5.28-3.88,2.16-.87,4.44-1.37,6.84-1.48.14-.37.3-.8.47-1.29.8-2.03,1.57-4.19,2.29-6.48.73-2.29,1.17-4.52,1.33-6.69.16-2.17-.22-4.11-1.14-5.81-.92-1.7-2.65-2.98-5.19-3.84-1.14-.37-2.29-.56-3.43-.56ZM122.84,93.2c-.29,0-.57-.01-.86-.04-1.4,0-2.61.06-3.62.17-1.02.11-2.18.6-3.5,1.46-.51.37-.97.83-1.37,1.37-.14.23-.33.54-.56.94-.03.03-.05.06-.06.09-.01.03-.02.06-.02.09-.29.63-.54,1.22-.77,1.76-.2.6-.34,1.19-.43,1.76-.09.57-.13,1.07-.13,1.5,0,1.06.21,2.21.64,3.45.43,1.24,1.09,2.32,1.97,3.24h16c.43,0,.79.15,1.09.45.3.3.45.67.45,1.09s-.15.79-.45,1.09c-.3.3-.67.45-1.09.45h-17.38c-.43.8-.74,1.59-.94,2.38-.2.79-.3,1.47-.3,2.04,0,1.14.2,2.29.6,3.43.4,1.14.99,2.13,1.76,2.96h16.26c.43,0,.79.15,1.09.45s.45.67.45,1.09-.15.79-.45,1.09-.67.45-1.09.45h-16.95c-.6.92-1.03,1.85-1.29,2.81-.26.96-.39,1.75-.39,2.38,0,2.26.63,4.2,1.89,5.83h16.73c.43,0,.79.15,1.09.45.3.3.45.67.45,1.09s-.15.79-.45,1.09-.67.45-1.09.45h-17.16c-.51.77-.89,1.57-1.12,2.4-.23.83-.34,1.52-.34,2.06,0,.94.14,1.86.43,2.75l.04.09c.17.57.54,1.24,1.12,2.02.57.77,1.5,1.45,2.79,2.04,1.29.59,3.07.88,5.36.88h6.74c2.4,0,4.46-.88,6.18-2.64,1.72-1.76,2.57-3.85,2.57-6.29,0-1.6-.4-3.08-1.2-4.42,1.54-.69,2.81-1.75,3.8-3.2.99-1.44,1.48-3.08,1.48-4.91,0-1.43-.31-2.75-.94-3.97-.63-1.22-1.47-2.22-2.53-3.03,1.43-.63,2.6-1.62,3.52-2.96.92-1.34,1.37-2.86,1.37-4.55,0-1.86-.56-3.5-1.67-4.93-1.12-1.43-2.52-2.39-4.21-2.88,1.69-1.77,2.53-3.86,2.53-6.26s-.87-4.61-2.62-6.37c-1.74-1.76-3.86-2.64-6.35-2.64-.37,0-.98,0-1.82-.02-.84-.01-1.69-.03-2.53-.04-.84-.01-1.45-.02-1.82-.02h-.9Z"></path> <g> <path class="cls-1" d="M.65,86.31l17.2,4.09-.65,2.73L0,89.04l.65-2.73Z"></path> <path class="cls-1" d="M11.38,58.54l15.99,7.54-.95,2.02-15.74,4.1,11.29,5.32-1.2,2.54-15.99-7.54.92-1.95,16.01-4.09-11.52-5.44,1.19-2.52Z"></path> <path class="cls-1" d="M32.19,38.95l-1.77,2.11c-1.64-.96-3.33-.72-4.98,1.26-1.45,1.73-1.66,3.49-.35,4.59,1.08.9,2.3.57,3.8-.65l1.96-1.58c2.62-2.12,4.91-2.67,7-.92,2.53,2.12,2.43,5.56-.17,8.67-2.77,3.31-6.36,4.07-9.48,1.9l1.78-2.13c1.93,1.17,4.08.67,5.88-1.48,1.48-1.78,1.66-3.49.41-4.54-.82-.68-2.01-.76-3.62.6l-2.44,1.99c-2.6,2.13-4.88,2.23-6.87.56-2.47-2.07-2.4-5.4.12-8.41,2.08-2.49,5.32-4.26,8.72-1.96Z"></path> <path class="cls-1" d="M40.48,24.76l11.14,13.73-2.18,1.77-11.14-13.73,2.18-1.77Z"></path> <path class="cls-1" d="M71.33,15.66l4.32,8.56-1.97,1-1.56-2.62c-.19,2.4-1.48,4.51-4.17,5.86-4.71,2.38-10,.5-12.21-3.88-2.47-4.9-.52-10.2,4.08-12.52,3.41-1.72,7.61-1.48,10.44,1.81l-2.67,1.35c-2.04-2.03-4.69-1.8-6.55-.86-3.32,1.68-4.57,5.37-2.77,8.94,1.54,3.04,5.13,4.51,8.5,2.82,2.79-1.41,3.68-4.07,3.02-6.77l-5.31,2.68-1.17-2.32,8.03-4.05Z"></path> <path class="cls-1" d="M97.01.86l3.3,17.37-2.73.52-1.38-7.25-9.12,1.73,1.38,7.25-2.76.52-3.3-17.37,2.76-.52,1.44,7.56,9.12-1.73-1.44-7.56,2.73-.52Z"></path> <path class="cls-1" d="M125.22,3.45l-6.25-.36-.87,15.08-2.78-.16.87-15.08-6.26-.36.15-2.57,15.29.88-.15,2.57Z"></path> <path class="cls-1" d="M155.54,12.04l-2.34,5.02,7.75,3.61-1.09,2.33-7.75-3.61-2.96,6.34-2.54-1.19,7.47-16.02,11.33,5.28-1.09,2.33-8.79-4.1Z"></path> <path class="cls-1" d="M178.48,22.34l-10.3,14.37-2.28-1.64,10.3-14.37,2.28,1.64Z"></path> <path class="cls-1" d="M185.71,44.39l-2.79-2.98-4.37,4.08-1.92-2.05,12.91-12.08,4.85,5.18c2.7,2.89,2.98,6.54.38,8.97-1.92,1.79-4.41,1.99-6.65.81l-1.31,7.99-2.34-2.51,1.24-7.43ZM184.8,39.65l2.86,3.06c1.62,1.73,3.75,2.18,5.23.8,1.48-1.39,1.17-3.55-.45-5.28l-2.86-3.06-4.78,4.48Z"></path> <path class="cls-1" d="M209.23,66.81l-1.36-2.4c1.48-1.19,1.84-2.87.58-5.11-1.11-1.97-2.68-2.79-4.17-1.94-1.22.69-1.34,1.96-.73,3.79l.79,2.39c1.06,3.19.77,5.54-1.6,6.88-2.87,1.63-6.06.32-8.06-3.21-2.13-3.76-1.58-7.38,1.56-9.55l1.37,2.42c-1.78,1.4-2.06,3.59-.68,6.03,1.14,2.01,2.68,2.78,4.11,1.98.93-.52,1.42-1.61.71-3.6l-1-2.99c-1.08-3.18-.37-5.35,1.9-6.63,2.81-1.59,5.9-.35,7.83,3.07,1.6,2.83,2.11,6.48-1.23,8.85Z"></path> <path class="cls-1" d="M220.11,90.64l-1.73-6.02-14.52,4.18-.77-2.67,14.52-4.18-1.73-6.02,2.47-.71,4.23,14.72-2.47.71Z"></path> </g> <g> <path class="cls-1" d="M12.12,161.38l-3.42-7.93h-4.61s-1.18-2.74-1.18-2.74l19.34.18,1.04,2.41-13.15,14.17-1.18-2.75,3.17-3.35ZM13.99,159.41l5.71-6h-8.29s2.58,6,2.58,6Z"></path> <path class="cls-1" d="M41.98,181.35l-13.6,11.29-1.43-1.72,2.94-15.99-9.6,7.97-1.79-2.16,13.6-11.29,1.38,1.66-3.08,16.24,9.8-8.13,1.78,2.14Z"></path> <path class="cls-1" d="M59.3,205.66c-2.89,4.29-8.28,5.2-12.78,2.16l-5.41-3.65,9.89-14.65,5.41,3.65c4.5,3.04,5.71,8.31,2.89,12.49ZM56.95,204.07c1.96-2.91,1.1-6.69-1.98-8.77l-3.08-2.08-6.99,10.36,3.08,2.08c3.08,2.08,6.94,1.42,8.98-1.59Z"></path> <path class="cls-1" d="M99.69,223.13l-8.55-1.22-2.4,3.94-2.96-.42,10.25-16.4,2.6.37,5.22,18.61-2.96-.42-1.2-4.45ZM98.99,220.51l-2.14-8-4.32,7.08,6.46.92Z"></path> <path class="cls-1" d="M131.17,223.68l.31,2.58-12.16,1.45-2.1-17.56,2.79-.33,1.79,14.97,9.37-1.12Z"></path> <path class="cls-1" d="M160.11,197.79l1.37,18.7-2.54,1.06-8.94-10.08.85,13.45-2.54,1.06-12.29-14.15,2.71-1.13,9.2,10.7-.96-14.14,2.21-.92,9.37,10.63-1.16-14.06,2.74-1.14Z"></path> <path class="cls-1" d="M184.14,195.83l-6.66,5.5,1.3,4.43-2.31,1.9-5.22-18.62,2.03-1.67,17.27,8.67-2.31,1.9-4.1-2.11ZM181.73,194.58l-7.36-3.81,2.33,7.96,5.03-4.16Z"></path> <path class="cls-1" d="M193.53,164.22l5.13,12.67,4.85,3.58-1.68,2.28-4.85-3.58-13.62-1.17,1.84-2.49,10.44.92-3.94-9.73,1.84-2.49Z"></path> <path class="cls-1" d="M207.77,145.01l-1.02,2.56c-1.85-.4-3.39.35-4.34,2.74-.84,2.1-.5,3.83,1.1,4.47,1.3.52,2.37-.17,3.41-1.8l1.37-2.11c1.83-2.82,3.84-4.07,6.37-3.05,3.07,1.22,4.04,4.53,2.54,8.29-1.6,4.01-4.77,5.85-8.42,4.75l1.03-2.58c2.2.52,4.09-.63,5.13-3.24.86-2.15.5-3.83-1.03-4.44-.99-.4-2.14-.1-3.25,1.7l-1.7,2.65c-1.8,2.83-3.94,3.63-6.36,2.67-2.99-1.2-3.96-4.38-2.5-8.03,1.21-3.02,3.73-5.7,7.68-4.57Z"></path> </g> <circle class="cls-1" cx="216.04" cy="114.06" r="4.62"></circle> <circle class="cls-1" cx="6.09" cy="114.06" r="4.62"></circle> </g> </svg> 