<?xml version="1.0" encoding="UTF-8"?>
<svg id="Layer_2" data-name="Layer 2" xmlns="http://www.w3.org/2000/svg" viewBox="0 0 15.95 16.01">
  <defs>
    <style>
      .cls-1 {
        stroke: #000;
        stroke-miterlimit: 10;
        stroke-width: .5px;
      }
    </style>
  </defs>
  <g id="Layer_1-2" data-name="Layer 1">
    <path class="cls-1" d="M3.38,10.56c1.53,1.83,3.37,3.27,5.47,4.29.8.38,1.87.83,3.06.91.07,0,.14,0,.22,0,.8,0,1.44-.28,1.97-.85,0,0,0,0,.01-.02.19-.22.4-.43.62-.64.15-.14.31-.3.45-.45.68-.71.68-1.62,0-2.31l-1.93-1.93c-.33-.34-.72-.52-1.13-.52s-.81.18-1.14.52l-1.15,1.15c-.11-.06-.22-.12-.32-.17-.13-.06-.25-.13-.35-.19-1.05-.67-2-1.53-2.91-2.65-.46-.58-.77-1.07-.98-1.57.3-.27.58-.56.86-.84.1-.1.2-.2.3-.3.35-.35.53-.75.53-1.16s-.18-.81-.53-1.16l-.96-.96c-.11-.11-.22-.22-.33-.33-.21-.22-.43-.44-.65-.65-.33-.32-.72-.49-1.13-.49s-.8.17-1.14.5L1,1.95c-.44.44-.68.97-.74,1.58-.06.77.08,1.58.45,2.57.56,1.53,1.41,2.94,2.67,4.46ZM1.05,3.6c.04-.43.2-.78.51-1.09l1.2-1.2c.19-.18.39-.27.59-.27s.4.09.58.28c.22.2.42.41.64.63.11.11.22.22.33.34l.96.96c.2.2.3.4.3.6s-.1.4-.3.6c-.1.1-.2.2-.3.3-.3.3-.58.59-.89.86l-.02.02c-.27.27-.22.52-.16.71,0,0,0,.02,0,.03.25.59.59,1.16,1.13,1.84.96,1.19,1.98,2.11,3.1,2.82.14.09.29.16.42.23.13.06.25.13.35.19.01,0,.02.01.04.02.11.05.21.08.31.08.26,0,.42-.16.48-.22l1.2-1.2c.19-.19.39-.29.59-.29.24,0,.44.15.57.29l1.94,1.93c.39.39.38.8,0,1.21-.13.14-.28.28-.43.43-.22.22-.46.44-.67.7-.37.4-.81.58-1.38.58-.05,0-.11,0-.17,0-1.05-.07-2.03-.48-2.77-.83-2-.97-3.75-2.34-5.21-4.08-1.2-1.44-2.01-2.79-2.54-4.23-.33-.88-.46-1.59-.4-2.24Z"/>
  </g>
</svg>