<?xml version="1.0" encoding="UTF-8"?>
<svg id="Layer_2" data-name="Layer 2" xmlns="http://www.w3.org/2000/svg" viewBox="0 0 15.95 12.28">
  <defs>
    <style>
      .cls-1 {
        stroke: #000;
        stroke-miterlimit: 10;
        stroke-width: .5px;
      }
    </style>
  </defs>
  <g id="Layer_1-2" data-name="Layer 1">
    <path class="cls-1" d="M12.99.26c-1.65,0-3.36-.01-5.06-.01s-3.29,0-4.97,0c-.7,0-1.32.23-1.8.65-.48.42-.79,1.01-.9,1.7-.01.09-.01.19-.01.31v.92c0,1.81,0,3.68,0,5.52,0,.68.25,1.32.71,1.81.46.49,1.08.79,1.76.84.17.01.34.02.49.02,2.18,0,4.36,0,6.2,0h3.49c.56,0,1.03-.11,1.43-.34.37-.21.68-.48.9-.79.22-.31.38-.69.46-1.11,0-.04.01-.07.02-.1h0V2.6c-.05-.3-.13-.64-.31-.94-.54-.93-1.34-1.4-2.4-1.4ZM2.07,1.16c.04-.13.14-.28.42-.32,0,0,0,0,.01,0,.17-.04.33-.04.49-.04h.04c.96,0,1.91,0,2.87,0h4.26c.92,0,1.85,0,2.77,0h0c.16,0,.35,0,.55.05h0c.2.03.35.15.4.32.06.2-.02.39-.21.51h0c-.63.51-1.27,1.03-1.88,1.53l-.7.57c-.19.16-.59.48-.59.48-.7.57-1.43,1.16-2.14,1.75-.13.1-.25.15-.39.15-.2,0-.34-.12-.39-.15-1.15-.94-2.31-1.88-3.44-2.8l-.08-.07c-.59-.48-1.18-.96-1.77-1.44h0c-.21-.13-.3-.33-.23-.54ZM15.13,9.79c-.21.99-1.06,1.69-2.07,1.69-.62,0-1.3,0-2.12,0-.5,0-.99,0-1.49,0-.5,0-.99,0-1.49,0-.48,0-.97,0-1.45,0-.5,0-1.01,0-1.51,0-.82,0-1.48,0-2.1,0-1,0-1.85-.69-2.07-1.67-.04-.18-.06-.36-.06-.57v-1.82c0-1.48,0-2.95,0-4.43,0-.3.05-.59.15-.85.04-.09.14-.36.44-.36.17,0,.28.09.36.16.82.67,1.65,1.34,2.47,2.01l1.71,1.39c.62.5,1.22.99,1.82,1.48.1.08.18.12.24.12.06,0,.14-.04.23-.12,1.86-1.51,3.72-3.02,5.94-4.83.13-.1.25-.2.43-.2.32,0,.42.29.48.46.07.2.1.39.1.57,0,.1,0,.19,0,.29v.02c0,.11,0,.23,0,.34,0,.78,0,1.57,0,2.35v.06c0,1.08,0,2.16,0,3.25,0,.2,0,.43-.06.66Z"/>
  </g>
</svg>