<?xml version="1.0" encoding="UTF-8"?>
<svg id="Layer_2" xmlns="http://www.w3.org/2000/svg" version="1.1" xmlns:xlink="http://www.w3.org/1999/xlink" viewBox="0 0 600 68.6">
  <!-- Generator: Adobe Illustrator 29.8.1, SVG Export Plug-In . SVG Version: 2.1.1 Build 2)  -->
  <defs>
    <style>
      .st0 {
        letter-spacing: 0em;
      }

      .st0, .st1 {
        font-family: Arial-BoldMT, Arial;
        font-size: 16px;
        font-weight: 700;
        isolation: isolate;
      }

      .st2 {
        fill: #fff;
      }

      .st3 {
        fill: #ffce52;
      }

      .st1 {
        fill: #1c1c1c;
      }

      .st4 {
        fill: #f6fafd;
      }

      .st5 {
        fill: #fcb514;
      }

      .st6 {
        fill: #273941;
      }

      .st7 {
        fill: #ffb32b;
      }

      .st8 {
        fill: url(#linear-gradient);
      }

      .st9 {
        fill: #ffe369;
      }
    </style>
    <linearGradient id="linear-gradient" x1="19.1" y1="5687.4" x2="446" y2="5687.4" gradientTransform="translate(0 -5653.1)" gradientUnits="userSpaceOnUse">
      <stop offset="0" stop-color="#f6dbe2"/>
      <stop offset=".5" stop-color="#f6e8c4"/>
      <stop offset="1" stop-color="#add0bc"/>
    </linearGradient>
  </defs>
  <rect class="st2" y="0" width="600" height="68.6"/>
  <path class="st8" d="M437.5,11.4c3.5,0,6.4,2.8,6.4,6.3v33.4c0,3.5-2.9,6.3-6.4,6.3H27.6c-3.5,0-6.4-2.8-6.4-6.3V17.6c0-3.4,2.9-6.3,6.4-6.3h409.9ZM437.5,9.3H27.6c-4.7,0-8.5,3.7-8.5,8.4v33.4c0,4.6,3.8,8.3,8.5,8.3h409.8c4.7,0,8.5-3.7,8.5-8.3V17.6c0-4.6-3.8-8.4-8.5-8.4h0Z"/>
  <text class="st1" transform="translate(38 39)"><tspan x="0" y="0">Unlock your free creative session with Tanishka</tspan></text>
  <g>
    <circle class="st3" cx="420.1" cy="33.9" r="8.3"/>
    <path class="st6" d="M420.1,39.4c-2.6,0-4.7-1.8-4.7-4h.7c0,1.8,1.8,3.2,4,3.2s4-1.5,4-3.2h.7c0,2.2-2.1,4-4.7,4Z"/>
    <path class="st6" d="M418.6,32.8h-.7c0-.8-.5-1.5-1.1-1.5s-1.1.7-1.1,1.5h-.7c0-1.2.8-2.2,1.8-2.2s1.8,1,1.8,2.2h0Z"/>
    <path class="st6" d="M425.1,32.8h-.7c0-.8-.5-1.5-1.1-1.5s-1.1.7-1.1,1.5h-.7c0-1.2.8-2.2,1.8-2.2s1.8,1,1.8,2.2h0Z"/>
    <path class="st9" d="M420.1,26.7c4.4,0,8,3.1,8,6.9h.4c-.2-4.6-4.1-8.1-8.7-7.9-4.3.2-7.7,3.6-7.9,7.9h.4c0-3.8,3.6-6.9,8-6.9h0Z"/>
    <path class="st7" d="M428,33.6c0,3.8-3.6,6.9-8,6.9s-8-3.1-8-6.9h-.4v.4c0,4.6,3.7,8.3,8.3,8.3s8.3-3.7,8.3-8.3v-.4h-.4Z"/>
    <ellipse class="st4" cx="424.8" cy="28.5" rx=".3" ry=".4" transform="translate(104.2 308.7) rotate(-45)"/>
    <ellipse class="st4" cx="422.5" cy="26.9" rx=".1" ry=".2" transform="translate(104.7 306.6) rotate(-45)"/>
    <ellipse class="st4" cx="423.7" cy="27.8" rx=".6" ry=".8" transform="translate(104.4 307.7) rotate(-45)"/>
  </g>
  <rect class="st5" x="455.3" y="9.3" width="129.5" height="50.1" rx="6.4" ry="6.4"/>
  <text class="st0" transform="translate(495.7 39)"><tspan x="0" y="0">Book Now</tspan></text>
  <path d="M466.9,40.6h2.9v1.7c0,.3.3.6.6.6h15.1c.3,0,.6-.3.6-.6v-15c0-.3-.3-.6-.6-.6h-2.9v-.6c0-.3-.3-.6-.6-.6s-.6.3-.6.6v.6h-2.9v-.6c0-.3-.3-.6-.6-.6s-.6.3-.6.6v.6h-2.9v-.6c0-.3-.3-.6-.6-.6s-.6.3-.6.6v.6h-2.9c-.3,0-.6.3-.6.6v3.5c0,4.2-1.8,7.5-3.2,8.8-.2.2-.3.4-.2.6,0,.2.3.4.5.4h0ZM484.9,41.8h-13.9v-1.2h11c.1,0,.3,0,.4-.1.7-.6,1.8-2,2.5-3.7v5h0ZM471,28h2.3v.6c0,.3.3.6.6.6s.6-.3.6-.6v-.6h2.9v.6c0,.3.3.6.6.6s.6-.3.6-.6v-.6h2.9v.6c0,.3.3.6.6.6s.6-.3.6-.6v-.6h2.3v2.3h-13.9v-2.3h0ZM471,31.4h13.9c-.1,3.7-1.5,6.5-3.1,8.1h-13.5c1.8-2.3,2.6-5.2,2.7-8.1h0Z"/>
</svg>