<?xml version="1.0" encoding="UTF-8"?>
<svg id="Layer_2" data-name="Layer 2" xmlns="http://www.w3.org/2000/svg" viewBox="0 0 170.9 53.34">
  <defs>
    <style>
      .cls-1 {
        fill: #111821;
      }

      .cls-2 {
        fill: #fcb514;
      }

      .cls-3 {
        fill: #f17597;
      }

      .cls-4 {
        fill: #017a3e;
      }
    </style>
  </defs>
  <g id="Layer_1-2" data-name="Layer 1">
    <g>
      <rect class="cls-1" x="58.66" y=".11" width="4.18" height="20.88"/>
      <path class="cls-1" d="M82.33,12.69v8.3h-4.2v-8.04c0-2.5-1.25-3.81-3.46-3.81-1.15,0-2.43.67-3.52,1.95v9.9h-4.2V5.71h4.2v1.15c1.25-.99,2.69-1.54,4.42-1.54,4.07,0,6.76,2.88,6.76,7.37"/>
      <path class="cls-1" d="M97.06,20.26c-1.37.53-2.48.65-3.57.65-3.97,0-6.21-2.48-6.21-6.27v-5.49h-3.17v-3.41h3.17V.61h4.07v5.12h5.43v3.41h-5.43v5.49c0,1.74,1.09,2.51,2.61,2.51.93,0,1.8-.28,2.55-.59l.56,3.69Z"/>
      <path class="cls-1" d="M113.69,14.36h-10.94c.31,1.72,1.44,3.03,3.78,3.03,1.09,0,1.84-.19,2.38-.84h4.53c-1,2.81-3.66,4.44-6.94,4.44-4.78,0-7.94-3.38-7.94-7.82s3.13-7.85,7.69-7.85c5.13,0,8.22,3.88,7.44,9.03M102.84,11.58h6.78c-.22-1.91-1.44-2.78-3.35-2.78-2,0-3.06,1.22-3.44,2.78"/>
      <path class="cls-1" d="M131.26,5.7v14.88c0,4.62-3.16,7.41-7.56,7.41s-7.41-2.64-7.72-6.36h4.12c.19,1.58,1.49,2.67,3.6,2.67,1.98,0,3.5-1.3,3.5-3.72v-1.89c-1.15.74-2.6,1.18-4.25,1.18-4.09,0-7.38-3.32-7.38-7.13,0-4.43,3.29-7.41,7.38-7.41,1.64,0,3.1.43,4.25,1.18v-.81h4.06ZM127.2,14.5v-3.81c-.96-1.4-2.29-1.86-3.63-1.86-2.33,0-3.94,1.55-3.94,3.91,0,1.74,1.61,3.63,3.94,3.63,1.33,0,2.67-.47,3.63-1.86"/>
      <path class="cls-1" d="M145,5.33v4c-2.39.13-4.13.84-5.46,2.33v9.33h-4.23V5.71h4.23v1.65c1.39-1.32,3.16-2.03,5.46-2.03"/>
      <path class="cls-1" d="M162.37,5.7v14.91h-4.1v-.84c-1.16.75-2.63,1.22-4.28,1.22-4.13,0-7.44-3.5-7.44-7.82s3.31-7.85,7.44-7.85c1.66,0,3.13.47,4.28,1.22v-.84h4.1ZM158.28,15.52v-4.72c-.97-1.38-2.31-1.75-3.66-1.75-2.34,0-3.97,1.88-3.97,4.13s1.63,4.1,3.97,4.1c1.34,0,2.69-.38,3.66-1.75"/>
      <polygon class="cls-1" points="80.39 46.34 76.22 46.34 76.22 34.67 70.79 43.27 68.27 43.27 68.27 43.24 62.77 34.55 62.83 46.34 58.66 46.34 58.66 25.46 61.61 25.46 69.53 38.11 77.45 25.46 80.39 25.46 80.39 46.34"/>
      <path class="cls-1" d="M99.6,31.07v14.89h-4.09v-.84c-1.16.75-2.62,1.22-4.28,1.22-4.12,0-7.43-3.5-7.43-7.81s3.31-7.84,7.43-7.84c1.65,0,3.12.47,4.28,1.22v-.84h4.09ZM95.51,40.88v-4.71c-.97-1.37-2.31-1.75-3.65-1.75-2.34,0-3.97,1.87-3.97,4.12s1.62,4.09,3.97,4.09c1.34,0,2.69-.37,3.65-1.75"/>
      <path class="cls-1" d="M118.68,31.07v14.87c0,4.62-3.16,7.4-7.56,7.4s-7.4-2.63-7.71-6.35h4.12c.19,1.58,1.49,2.66,3.59,2.66,1.98,0,3.5-1.3,3.5-3.72v-1.89c-1.15.74-2.6,1.18-4.24,1.18-4.09,0-7.37-3.31-7.37-7.12,0-4.43,3.28-7.4,7.37-7.4,1.64,0,3.1.43,4.24,1.18v-.81h4.06ZM114.62,39.87v-3.81c-.96-1.39-2.29-1.86-3.62-1.86-2.32,0-3.93,1.55-3.93,3.9,0,1.73,1.61,3.62,3.93,3.62,1.33,0,2.66-.46,3.62-1.86"/>
      <path class="cls-1" d="M138.16,38.05v8.28h-4.19v-8.03c0-2.49-1.25-3.81-3.45-3.81-1.15,0-2.43.67-3.52,1.95v9.88h-4.19v-15.26h4.19v1.15c1.25-.99,2.69-1.54,4.41-1.54,4.06,0,6.75,2.88,6.75,7.36"/>
      <path class="cls-1" d="M156.93,31.07v14.89h-4.09v-.84c-1.16.75-2.62,1.22-4.28,1.22-4.12,0-7.43-3.5-7.43-7.81s3.31-7.84,7.43-7.84c1.65,0,3.12.47,4.28,1.22v-.84h4.09ZM152.84,40.88v-4.71c-.97-1.37-2.31-1.75-3.65-1.75-2.34,0-3.97,1.87-3.97,4.12s1.62,4.09,3.97,4.09c1.34,0,2.69-.37,3.65-1.75"/>
      <path class="cls-4" d="M16.91,46.34H0v-30.24c9.34,0,16.91,7.57,16.91,16.91v13.33Z"/>
      <path class="cls-3" d="M24.79.11H0C0,6.96,5.55,12.51,12.4,12.51S24.79,6.96,24.79.11"/>
      <path class="cls-2" d="M46.23,46.29V8.61c-9.86,0-17.85,8.44-17.85,18.84s7.99,18.84,17.85,18.84"/>
      <path class="cls-1" d="M24.13,26.34h-4.13C20,11.87,31.77.11,46.23.11v4.13c-12.19,0-22.1,9.91-22.1,22.1"/>
      <polygon class="cls-1" points="166.03 .61 164.53 .61 164.53 4.22 163.87 4.22 163.87 .61 162.37 .61 162.37 0 166.03 0 166.03 .61"/>
      <polygon class="cls-1" points="170.9 4.22 170.24 4.22 170.24 1.47 168.98 3.51 168.57 3.51 167.3 1.45 167.31 4.22 166.64 4.22 166.64 0 167.13 0 168.77 2.68 170.42 0 170.9 0 170.9 4.22"/>
    </g>
  </g>
</svg>