<?xml version="1.0" encoding="UTF-8"?>
<svg id="Layer_2" data-name="Layer 2" xmlns="http://www.w3.org/2000/svg" viewBox="0 0 12.59 12.59">
  <defs>
    <style>
      .cls-1 {
        fill-rule: evenodd;
      }
    </style>
  </defs>
  <g id="Layer_1-2" data-name="Layer 1">
    <path class="cls-1" d="M10.51,10.14c-.51-.31-1.05-.57-1.61-.76.26-.84.41-1.79.43-2.79h2.67c-.07,1.32-.59,2.58-1.49,3.55h0ZM6.33,0h-.07C2.8.02,0,2.84,0,6.29s2.82,6.3,6.3,6.3,6.3-2.82,6.3-6.3S9.79.02,6.33,0ZM.6,6.59h2.67c.02,1,.17,1.95.43,2.79-.56.19-1.11.45-1.61.76-.89-.97-1.42-2.23-1.49-3.55ZM2.09,2.45c.51.31,1.05.57,1.61.77-.26.84-.41,1.79-.43,2.79H.6c.07-1.32.59-2.58,1.49-3.55h0ZM4.63,2.45c.46-.94,1.07-1.48,1.67-1.48s1.21.54,1.67,1.48c.06.12.11.24.17.37-.6.15-1.22.23-1.83.23-.62,0-1.24-.08-1.83-.23.05-.13.11-.25.17-.37h0ZM3.89,2.66c-.48-.16-.94-.38-1.37-.63.79-.7,1.77-1.17,2.81-1.35-.47.3-.89.81-1.24,1.52-.07.15-.14.3-.2.46h0ZM8.49,2.19c-.35-.71-.77-1.22-1.24-1.52,1.04.18,2.02.65,2.81,1.35-.43.26-.9.47-1.37.63-.06-.16-.13-.32-.2-.46h0ZM3.86,6c.02-.94.16-1.84.41-2.62.66.17,1.35.26,2.03.26.69,0,1.37-.09,2.03-.26.24.78.38,1.67.41,2.62H3.86ZM6.3,8.94c-.69,0-1.37.09-2.03.26-.24-.78-.38-1.67-.41-2.62h4.88c-.02.94-.16,1.84-.41,2.62-.66-.17-1.35-.26-2.03-.26h0ZM7.96,10.14c-.46.94-1.07,1.48-1.67,1.48s-1.21-.54-1.67-1.48c-.06-.12-.11-.25-.17-.37,1.2-.31,2.47-.31,3.67,0-.05.13-.11.25-.17.37ZM8.7,9.93c-.06.16-.13.32-.2.46-.35.71-.77,1.22-1.24,1.52,1.04-.18,2.02-.65,2.81-1.35-.43-.26-.89-.47-1.37-.63ZM4.1,10.4c.35.71.77,1.22,1.24,1.52-1.04-.18-2.02-.65-2.81-1.35.43-.26.89-.47,1.37-.63.06.16.13.32.2.46ZM9.32,6c-.02-1-.17-1.95-.43-2.79.56-.19,1.11-.45,1.61-.76.89.97,1.42,2.23,1.49,3.55h-2.67Z"/>
  </g>
</svg>