<svg width="1002" height="312" viewBox="0 0 1002 312" fill="none" xmlns="http://www.w3.org/2000/svg">
<rect x="658.658" y="81.3837" width="356" height="144" rx="8.5" transform="rotate(15 658.658 81.3837)" fill="white" stroke="black"/>
<path d="M761.241 160.853C768.968 162.924 776.267 168.325 774.656 178.296L768.103 176.54C768.554 171.89 766.253 168.358 760.133 166.719C754.755 165.277 750.618 166.621 749.525 170.701C748.631 174.039 750.639 176.432 754.92 178.507L760.478 181.255C767.915 184.904 771.534 189.452 769.794 195.943C767.691 203.794 759.903 207.14 750.26 204.556C739.998 201.807 734.577 194.59 736.191 185.349L742.806 187.121C742.185 192.653 745.544 196.932 752.221 198.721C757.723 200.195 761.735 198.819 762.779 194.924C763.458 192.39 762.402 189.655 757.688 187.465L750.713 184.072C743.259 180.484 740.689 175.489 742.345 169.307C744.399 161.641 751.906 158.352 761.241 160.853ZM795.503 209.126L794.857 215.247C792.074 215.495 789.905 215.179 787.927 214.649C780.509 212.662 777.745 207.151 779.749 199.67L783.095 187.183L776.234 185.344L777.675 179.966L784.537 181.805L787.402 171.11L793.831 172.833L790.966 183.527L801.722 186.41L800.281 191.788L789.525 188.906L786.179 201.393C785.052 205.597 786.674 207.953 790.259 208.913C791.99 209.377 793.854 209.347 795.503 209.126ZM821.645 190.953C830.671 193.371 835.394 201.461 833.009 210.363C830.623 219.265 822.488 223.91 813.462 221.492C804.437 219.073 799.714 210.983 802.099 202.081C804.484 193.179 812.62 188.534 821.645 190.953ZM815.02 215.68C820.274 217.088 825.122 214.081 826.579 208.641C828.054 203.139 825.343 198.172 820.088 196.764C814.834 195.356 810.003 198.302 808.528 203.804C807.071 209.244 809.765 214.273 815.02 215.68ZM849.884 192.092C847.596 191.479 846.251 189.33 846.864 187.043C847.477 184.755 849.717 183.566 852.004 184.179C854.229 184.776 855.637 186.942 855.024 189.229C854.411 191.516 852.109 192.689 849.884 192.092ZM844.925 197.986L851.293 199.692L843.507 228.747L837.14 227.041L844.925 197.986ZM868.203 229.931C872.098 230.974 875.599 229.528 877.281 226.466L883.834 228.222C880.994 234.617 873.941 237.697 866.646 235.742C857.929 233.406 853.087 225.019 855.406 216.365C857.709 207.772 866.112 202.868 874.829 205.203C882.123 207.158 886.692 213.351 885.954 220.309L879.401 218.554C879.475 215.062 877.166 212.058 873.272 211.014C867.893 209.573 863.243 212.833 861.835 218.087C860.427 223.342 862.825 228.49 868.203 229.931Z" fill="#2B8852"/>
<rect x="0.5" y="101.496" width="589" height="144" rx="8.5" fill="white" stroke="black"/>
<path d="M190.649 190.364C197.881 190.364 202.873 186.268 204.601 179.484H211.705C209.657 189.916 201.529 196.828 190.649 196.828C178.105 196.828 168.057 187.228 168.057 174.236C168.057 161.18 178.105 151.708 190.649 151.708C201.529 151.708 209.657 158.492 211.705 168.924H204.601C202.873 162.204 197.881 158.108 190.649 158.108C181.753 158.108 175.033 164.828 175.033 174.236C175.033 183.58 181.753 190.364 190.649 190.364ZM232.905 165.148C242.889 165.148 249.097 172.764 247.817 182.94H224.201C224.841 187.484 227.721 190.94 233.353 190.94C236.297 190.94 238.537 190.044 239.753 188.124H247.049C245.129 193.564 239.817 196.764 233.289 196.764C223.817 196.764 217.417 189.916 217.417 180.956C217.417 172.06 223.753 165.148 232.905 165.148ZM232.969 170.78C227.977 170.78 225.097 174.108 224.329 178.332H241.225C240.841 173.404 237.641 170.78 232.969 170.78ZM261.733 170.012C264.485 167.004 268.261 165.276 272.869 165.276V171.548C268.069 171.74 264.421 173.532 261.733 177.052V195.996H255.077V165.916H261.733V170.012ZM292.093 165.148C302.077 165.148 308.285 172.764 307.005 182.94H283.389C284.029 187.484 286.909 190.94 292.541 190.94C295.485 190.94 297.725 190.044 298.941 188.124H306.237C304.317 193.564 299.005 196.764 292.477 196.764C283.005 196.764 276.605 189.916 276.605 180.956C276.605 172.06 282.941 165.148 292.093 165.148ZM292.157 170.78C287.165 170.78 284.285 174.108 283.517 178.332H300.413C300.029 173.404 296.829 170.78 292.157 170.78ZM330.833 165.148C339.281 165.148 346.129 172.188 346.129 180.892C346.129 189.724 339.281 196.764 330.833 196.764C326.993 196.764 323.729 195.612 321.233 193.628V195.996H314.577V150.556H321.233V168.22C323.729 166.3 326.993 165.148 330.833 165.148ZM329.873 190.748C335.441 190.748 339.473 186.268 339.473 180.892C339.473 175.58 335.441 171.164 329.873 171.164C326.545 171.164 323.473 172.252 321.233 175.388V186.46C323.473 189.596 326.545 190.748 329.873 190.748ZM359.858 170.012C362.61 167.004 366.386 165.276 370.994 165.276V171.548C366.194 171.74 362.546 173.532 359.858 177.052V195.996H353.202V165.916H359.858V170.012ZM399.626 165.916H406.218V195.996H399.626V193.628C397.066 195.612 393.802 196.764 389.962 196.764C381.514 196.764 374.73 189.724 374.73 180.956C374.73 172.188 381.514 165.148 389.962 165.148C393.802 165.148 397.066 166.3 399.626 168.284V165.916ZM390.922 190.748C394.25 190.748 397.386 189.596 399.626 186.396V175.516C397.386 172.316 394.25 171.164 390.922 171.164C385.418 171.164 381.386 175.58 381.386 180.956C381.386 186.332 385.418 190.748 390.922 190.748ZM415.452 150.556H422.108V195.996H415.452V150.556Z" fill="#F87498"/>
<rect x="553.5" y="0.496094" width="356" height="144" rx="8.5" fill="white" stroke="black"/>
<path d="M687.337 89.3641C694.569 89.3641 699.561 85.2681 701.289 78.4841H708.393C706.345 88.9161 698.217 95.8281 687.337 95.8281C674.793 95.8281 664.745 86.2281 664.745 73.2361C664.745 60.1801 674.793 50.7081 687.337 50.7081C698.217 50.7081 706.345 57.4921 708.393 67.9241H701.289C699.561 61.2041 694.569 57.1081 687.337 57.1081C678.441 57.1081 671.721 63.8281 671.721 73.2361C671.721 82.5801 678.441 89.3641 687.337 89.3641ZM730.105 64.1481C739.449 64.1481 746.105 70.7401 746.105 79.9561C746.105 89.1721 739.449 95.7641 730.105 95.7641C720.761 95.7641 714.105 89.1721 714.105 79.9561C714.105 70.7401 720.761 64.1481 730.105 64.1481ZM730.105 89.7481C735.545 89.7481 739.449 85.5881 739.449 79.9561C739.449 74.2601 735.545 70.1641 730.105 70.1641C724.665 70.1641 720.761 74.2601 720.761 79.9561C720.761 85.5881 724.665 89.7481 730.105 89.7481ZM768.355 64.1481C777.699 64.1481 784.355 70.7401 784.355 79.9561C784.355 89.1721 777.699 95.7641 768.355 95.7641C759.011 95.7641 752.355 89.1721 752.355 79.9561C752.355 70.7401 759.011 64.1481 768.355 64.1481ZM768.355 89.7481C773.795 89.7481 777.699 85.5881 777.699 79.9561C777.699 74.2601 773.795 70.1641 768.355 70.1641C762.915 70.1641 759.011 74.2601 759.011 79.9561C759.011 85.5881 762.915 89.7481 768.355 89.7481ZM791.764 49.5561H798.42V94.9961H791.764V49.5561Z" fill="#F8B915"/>
</svg>
