<svg width="1002" height="313" viewBox="0 0 1002 313" fill="none" xmlns="http://www.w3.org/2000/svg">
<rect x="658.658" y="81.3935" width="356" height="144" rx="8.5" transform="rotate(15 658.658 81.3935)" fill="white" stroke="black"/>
<path d="M763.173 161.381C770.9 163.451 778.199 168.852 776.587 178.823L770.035 177.067C770.485 172.417 768.185 168.886 762.065 167.246C756.687 165.805 752.55 167.148 751.457 171.228C750.562 174.566 752.571 176.96 756.852 179.034L762.41 181.783C769.847 185.432 773.466 189.979 771.726 196.47C769.623 204.321 761.835 207.668 752.191 205.084C741.929 202.334 736.509 195.117 738.123 185.876L744.738 187.649C744.117 193.18 747.476 197.46 754.152 199.248C759.654 200.723 763.667 199.346 764.711 195.452C765.39 192.917 764.334 190.183 759.62 187.992L752.645 184.599C745.191 181.012 742.621 176.016 744.277 169.834C746.331 162.169 753.838 158.88 763.173 161.381ZM806.374 187.666L812.742 189.372L804.956 218.427L798.589 216.721L799.202 214.434C796.216 215.687 792.765 215.955 789.055 214.961C780.895 212.775 776.165 204.219 778.434 195.75C780.703 187.281 789.078 182.236 797.238 184.423C800.947 185.417 803.802 187.374 805.761 189.953L806.374 187.666ZM791.54 209.399C794.754 210.26 798.082 209.959 801.074 207.448L803.89 196.939C802.554 193.268 799.823 191.344 796.609 190.482C791.292 189.058 786.254 192.28 784.863 197.472C783.472 202.665 786.223 207.974 791.54 209.399ZM843.992 197.745L850.792 199.568L829.469 224.995L823.843 223.488L818.09 190.805L824.89 192.627L828.89 216.028L843.992 197.745ZM881.604 207.757L888.404 209.579L857.595 247.903L850.857 246.098L860.704 233.828L853.785 200.303L860.647 202.142L865.494 227.823L881.604 207.757Z" fill="#2B8852"/>
<rect x="0.5" y="101.506" width="589" height="144" rx="8.5" fill="white" stroke="black"/>
<path d="M164.121 173.478C170.073 174.63 172.889 178.918 172.889 184.102C172.889 191.206 166.745 196.006 157.081 196.006H137.497V152.486H156.377C165.401 152.486 170.777 156.774 170.777 163.686C170.777 168.23 168.281 172.07 164.121 173.478ZM155.609 158.566H144.409V171.366H155.289C161.113 171.366 164.312 168.614 164.312 164.582C164.312 160.806 161.177 158.566 155.609 158.566ZM156.825 189.926C162.841 189.926 166.104 186.982 166.104 183.27C166.104 179.366 162.649 177.062 157.081 177.062H144.409V189.926H156.825ZM194.386 165.158C203.73 165.158 210.386 171.75 210.386 180.966C210.386 190.182 203.73 196.774 194.386 196.774C185.042 196.774 178.386 190.182 178.386 180.966C178.386 171.75 185.042 165.158 194.386 165.158ZM194.386 190.758C199.826 190.758 203.73 186.598 203.73 180.966C203.73 175.27 199.826 171.174 194.386 171.174C188.946 171.174 185.042 175.27 185.042 180.966C185.042 186.598 188.946 190.758 194.386 190.758ZM221.957 158.95C219.589 158.95 217.733 157.222 217.733 154.854C217.733 152.486 219.589 150.758 221.957 150.758C224.261 150.758 226.181 152.486 226.181 154.854C226.181 157.222 224.261 158.95 221.957 158.95ZM218.693 165.926H225.285V196.006H218.693V165.926ZM239.267 186.086C239.97 189.798 242.723 191.334 247.267 191.334C251.171 191.334 253.859 190.054 253.859 187.686C253.859 185.894 252.387 184.614 249.827 184.166L243.171 183.014C238.562 182.246 234.275 179.942 234.275 174.502C234.275 168.678 239.331 165.094 246.819 165.094C252.643 165.094 259.363 167.078 260.003 174.95H253.859C253.539 171.686 250.659 170.406 246.819 170.406C242.979 170.406 240.867 171.814 240.867 173.926C240.867 175.526 242.019 177.062 245.539 177.638L251.171 178.534C255.715 179.366 260.195 181.35 260.195 187.174C260.195 193.51 254.627 196.774 247.075 196.774C239.97 196.774 233.891 193.958 233.123 186.022L239.267 186.086ZM288.338 189.478L289.298 195.558C286.674 196.518 284.498 196.774 282.45 196.774C274.77 196.774 270.674 192.166 270.674 184.422V171.494H263.57V165.926H270.674V154.854H277.33V165.926H288.466V171.494H277.33V184.422C277.33 188.774 279.506 190.63 283.218 190.63C285.01 190.63 286.802 190.118 288.338 189.478ZM308.374 165.158C318.358 165.158 324.566 172.774 323.286 182.95H299.67C300.31 187.494 303.19 190.95 308.822 190.95C311.766 190.95 314.006 190.054 315.222 188.134H322.518C320.598 193.574 315.286 196.774 308.758 196.774C299.286 196.774 292.886 189.926 292.886 180.966C292.886 172.07 299.222 165.158 308.374 165.158ZM308.438 170.79C303.446 170.79 300.566 174.118 299.798 178.342H316.694C316.31 173.414 313.11 170.79 308.438 170.79ZM337.202 170.022C339.954 167.014 343.73 165.286 348.338 165.286V171.558C343.538 171.75 339.89 173.542 337.202 177.062V196.006H330.546V165.926H337.202V170.022ZM368.074 165.158C377.418 165.158 384.074 171.75 384.074 180.966C384.074 190.182 377.418 196.774 368.074 196.774C358.73 196.774 352.074 190.182 352.074 180.966C352.074 171.75 358.73 165.158 368.074 165.158ZM368.074 190.758C373.514 190.758 377.418 186.598 377.418 180.966C377.418 175.27 373.514 171.174 368.074 171.174C362.634 171.174 358.73 175.27 358.73 180.966C358.73 186.598 362.634 190.758 368.074 190.758ZM413.626 165.926H420.218V196.006H413.626V193.062C411.002 195.43 407.738 196.774 403.833 196.774C396.026 196.774 390.778 191.206 390.778 182.566V165.926H397.37V182.182C397.37 187.686 400.378 190.758 405.178 190.758C408.122 190.758 411.194 189.094 413.626 186.022V165.926ZM433.517 186.086C434.22 189.798 436.973 191.334 441.517 191.334C445.421 191.334 448.109 190.054 448.109 187.686C448.109 185.894 446.637 184.614 444.077 184.166L437.421 183.014C432.812 182.246 428.525 179.942 428.525 174.502C428.525 168.678 433.581 165.094 441.069 165.094C446.893 165.094 453.613 167.078 454.253 174.95H448.109C447.789 171.686 444.909 170.406 441.069 170.406C437.229 170.406 435.117 171.814 435.117 173.926C435.117 175.526 436.269 177.062 439.789 177.638L445.421 178.534C449.965 179.366 454.445 181.35 454.445 187.174C454.445 193.51 448.877 196.774 441.325 196.774C434.22 196.774 428.141 193.958 427.373 186.022L433.517 186.086Z" fill="#F87498"/>
<rect x="553.5" y="0.505859" width="356" height="144" rx="8.5" fill="white" stroke="black"/>
<path d="M701.307 51.4859H708.603L694.011 95.2619H687.227L676.475 63.9019L665.659 95.2619H658.875L644.347 51.4859H651.579L662.331 84.5099L673.531 51.4859H679.419L690.619 84.5099L701.307 51.4859ZM718.832 57.9499C716.464 57.9499 714.608 56.2219 714.608 53.8539C714.608 51.4859 716.464 49.7579 718.832 49.7579C721.136 49.7579 723.056 51.4859 723.056 53.8539C723.056 56.2219 721.136 57.9499 718.832 57.9499ZM715.568 64.9259H722.16V95.0059H715.568V64.9259ZM752.776 88.4779L753.736 94.5579C751.112 95.5179 748.936 95.7739 746.888 95.7739C739.208 95.7739 735.112 91.1659 735.112 83.4219V70.4939H728.008V64.9259H735.112V53.8539H741.768V64.9259H752.904V70.4939H741.768V83.4219C741.768 87.7739 743.944 89.6299 747.656 89.6299C749.448 89.6299 751.24 89.1179 752.776 88.4779ZM780.588 88.4779L781.548 94.5579C778.924 95.5179 776.748 95.7739 774.7 95.7739C767.02 95.7739 762.924 91.1659 762.924 83.4219V70.4939H755.82V64.9259H762.924V53.8539H769.58V64.9259H780.716V70.4939H769.58V83.4219C769.58 87.7739 771.756 89.6299 775.468 89.6299C777.26 89.6299 779.052 89.1179 780.588 88.4779ZM812.524 64.8619H819.564L799.724 109.854H792.748L799.083 95.4539L783.724 64.8619H790.828L802.156 88.4139L812.524 64.8619Z" fill="#F8B915"/>
</svg>
