<?xml version="1.0" encoding="UTF-8"?>
<svg id="Layer_2" data-name="Layer 2" xmlns="http://www.w3.org/2000/svg" viewBox="0 0 1486.11 85.14">
  <defs>
    <style>
      .cls-1 {
        fill: #fff;
        stroke-width: 0px;
      }
    </style>
  </defs>
  <g id="Layer_1-2" data-name="Layer 1">
    <path class="cls-1" d="M743.06,85.14H0V0h743.06v85.14ZM85.14,85.14C85.14,38.12,47.02,0,0,0v85.14h85.14ZM121.91,0c0,47.02,38.12,85.14,85.14,85.14S292.19,47.02,292.19,0H121.91ZM621.15,85.14C621.15,38.12,583.03,0,536.01,0s-85.14,38.12-85.14,85.14h170.28ZM414.1,0h-85.14v85.14h85.14V0ZM743.06,85.14h0V0h-85.14c0,47.02,38.12,85.14,85.14,85.14Z"/>
    <path class="cls-1" d="M1486.11,85.14h-743.06s0-85.14,0-85.14h743.06s0,85.14,0,85.14ZM743.06,0v85.14c47.02,0,85.14-38.12,85.14-85.14h-85.14ZM1035.25,85.14C1035.25,38.12,997.13,0,950.11,0c-47.02,0-85.14,38.12-85.14,85.14h170.28ZM1193.93,0c0,47.02,38.12,85.14,85.14,85.14S1364.2,47.02,1364.2,0h-170.28ZM1157.16,0h-85.14v85.14h85.14V0ZM1400.98,85.14h0s85.14,0,85.14,0V0h0C1439.09,0,1400.98,38.12,1400.98,85.14Z"/>
  </g>
</svg>