<svg width="20" height="230" viewBox="0 0 20 230" fill="none" xmlns="http://www.w3.org/2000/svg">
<path d="M3.12 136.688C3.12 133.344 5.392 130.912 8.496 130.912C11.68 130.912 14 133.344 14 136.688L14 140.704L3.12 140.704L3.12 136.688ZM12.4 136.688C12.4 134.4 10.736 132.656 8.496 132.656C6.336 132.656 4.704 134.4 4.704 136.688L4.704 138.976L12.4 138.976L12.4 136.688ZM3.12 128.688L3.12 126.96L14 126.96L14 128.688L3.12 128.688ZM3.12 115.688L3.12 113.816L14.064 118.76L14.064 120.344L3.12 125.304L3.12 123.416L11.728 119.56L3.12 115.688ZM4.704 104.474L4.704 110.554L7.824 110.554L7.824 105.114L9.408 105.114L9.408 110.554L12.4 110.554L12.4 104.474L14 104.474L14 112.282L3.12 112.282L3.12 104.474L4.704 104.474ZM3.12 98.1103L3.12 96.3823L14 96.3823L14 98.1103L3.12 98.1103ZM3.12 85.9898L3.12 84.2778L14 84.2778L14 85.6538L6.32 92.0698L14 92.0698L14 93.7978L3.12 93.7978L3.12 92.4698L10.96 85.9898L3.12 85.9898ZM3.12 73.2686L4.704 73.2686L4.704 77.1246L14 77.1246L14 78.8366L4.704 78.8366L4.704 82.6926L3.12 82.6926L3.12 73.2686ZM2.928 67.1733C2.928 64.0373 5.424 61.5093 8.56 61.5093C11.696 61.5093 14.192 64.0373 14.192 67.1733C14.192 70.3093 11.696 72.8373 8.56 72.8373C5.424 72.8373 2.928 70.3093 2.928 67.1733ZM12.576 67.1733C12.576 64.9493 10.784 63.2533 8.56 63.2533C6.336 63.2533 4.528 64.9493 4.528 67.1733C4.528 69.3973 6.336 71.0933 8.56 71.0933C10.784 71.0933 12.576 69.3973 12.576 67.1733ZM3.12 51.0318C3.12 47.6878 5.392 45.2558 8.496 45.2558C11.68 45.2558 14 47.6878 14 51.0318L14 55.0478L3.12 55.0478L3.12 51.0318ZM12.4 51.0318C12.4 48.7438 10.736 46.9998 8.496 46.9998C6.336 46.9998 4.704 48.7438 4.704 51.0318L4.704 53.3198L12.4 53.3198L12.4 51.0318ZM4.704 35.2241L4.704 41.3041L7.824 41.3041L7.824 35.8641L9.408 35.8641L9.408 41.3041L12.4 41.3041L12.4 35.2241L14 35.2241L14 43.0321L3.12 43.0321L3.12 35.2241L4.704 35.2241ZM3.12 24.9093L4.704 24.9093L4.704 28.7653L14 28.7653L14 30.4773L4.704 30.4773L4.704 34.3333L3.12 34.3333L3.12 24.9093ZM14 16.3803L11.392 17.5003L11.392 22.8123L14 23.9323L14 25.7723L3.12 20.9563L3.12 19.3403L14 14.5403L14 16.3803ZM9.856 22.1723L9.856 18.1563L5.168 20.1563L9.856 22.1723ZM3.12 12.8759L3.12 11.1479L14 11.1479L14 12.8759L3.12 12.8759ZM12.4 6.83538L12.4 1.02738L14 1.02738L14 8.56338L3.12 8.56338L3.12 6.83538L12.4 6.83538Z" fill="#808080"/>
<path d="M7.2929 229.707C7.68342 230.098 8.31659 230.098 8.70711 229.707L15.0711 223.343C15.4616 222.953 15.4616 222.319 15.0711 221.929C14.6805 221.538 14.0474 221.538 13.6569 221.929L8 227.586L2.34315 221.929C1.95262 221.538 1.31946 221.538 0.928935 221.929C0.538411 222.319 0.538411 222.953 0.928935 223.343L7.2929 229.707ZM7 159L7 229L9 229L9 159L7 159Z" fill="#808080"/>
</svg>
