<svg width="1883" height="927" viewBox="0 0 1883 927" fill="none" xmlns="http://www.w3.org/2000/svg">
<g opacity="0.6">
<mask id="path-1-outside-1_3118_1744" maskUnits="userSpaceOnUse" x="71" y="400" width="1810" height="153" fill="black">
<rect fill="white" x="71" y="400" width="1810" height="153"/>
<path d="M73.0852 405.2H95.7652V548H73.0852V405.2ZM232.167 405.2H254.637V548H236.577L152.367 447.2V548H129.687V405.2H147.117L232.167 508.1V405.2ZM399.132 405.2V425.99H348.522V548H326.052V425.99H275.442V405.2H399.132ZM522.352 425.99H442.552V466.94H513.952V487.73H442.552V527H522.352V548H419.872V405.2H522.352V425.99ZM613.82 470.51H686.48V548H668.63L666.95 523.43C656.87 540.02 639.86 550.52 615.5 550.52C572.87 550.52 541.58 517.76 541.58 478.07C541.58 433.76 574.97 402.68 616.55 402.68C647.42 402.68 676.82 419.69 685.22 453.71H661.07C653.72 431.66 633.77 423.68 616.97 423.68C586.94 423.68 564.47 445.73 564.47 478.07C564.47 505.58 585.05 529.31 615.5 529.31C640.7 529.31 656.87 513.35 661.91 491.51H613.82V470.51ZM816.613 548L779.653 499.7H746.683V548H724.003V405.2H781.333C813.253 405.2 836.353 423.68 836.353 452.45C836.353 473.66 823.753 489.41 804.433 496.13L844.333 548H816.613ZM746.683 425.99V478.91H780.493C799.603 478.91 814.093 468.83 814.093 452.45C814.093 436.07 799.603 425.99 780.493 425.99H746.683ZM978.448 548L963.748 513.77H894.028L879.328 548H855.178L918.388 405.2H939.598L1002.6 548H978.448ZM902.428 493.61H955.138L928.888 432.08L902.428 493.61ZM1224.08 405.2V548H1201.61V454.97L1159.19 523.85H1145.12L1102.28 454.34L1102.7 548H1080.02V405.2H1096.4L1152.05 495.92L1207.7 405.2H1224.08ZM1369.53 548L1354.83 513.77H1285.11L1270.41 548H1246.26L1309.47 405.2H1330.68L1393.68 548H1369.53ZM1293.51 493.61H1346.22L1319.97 432.08L1293.51 493.61ZM1473.1 470.51H1545.76V548H1527.91L1526.23 523.43C1516.15 540.02 1499.14 550.52 1474.78 550.52C1432.15 550.52 1400.86 517.76 1400.86 478.07C1400.86 433.76 1434.25 402.68 1475.83 402.68C1506.7 402.68 1536.1 419.69 1544.5 453.71H1520.35C1513 431.66 1493.05 423.68 1476.25 423.68C1446.22 423.68 1423.75 445.73 1423.75 478.07C1423.75 505.58 1444.33 529.31 1474.78 529.31C1499.98 529.31 1516.15 513.35 1521.19 491.51H1473.1V470.51ZM1685.76 405.2H1708.23V548H1690.17L1605.96 447.2V548H1583.28V405.2H1600.71L1685.76 508.1V405.2ZM1853.52 548L1838.82 513.77H1769.1L1754.4 548H1730.25L1793.46 405.2H1814.67L1877.67 548H1853.52ZM1777.5 493.61H1830.21L1803.96 432.08L1777.5 493.61Z"/>
</mask>
<path d="M73.0852 405.2V403.2H71.0852V405.2H73.0852ZM95.7652 405.2H97.7652V403.2H95.7652V405.2ZM95.7652 548V550H97.7652V548H95.7652ZM73.0852 548H71.0852V550H73.0852V548ZM73.0852 407.2H95.7652V403.2H73.0852V407.2ZM93.7652 405.2V548H97.7652V405.2H93.7652ZM95.7652 546H73.0852V550H95.7652V546ZM75.0852 548V405.2H71.0852V548H75.0852ZM232.167 405.2V403.2H230.167V405.2H232.167ZM254.637 405.2H256.637V403.2H254.637V405.2ZM254.637 548V550H256.637V548H254.637ZM236.577 548L235.042 549.282L235.642 550H236.577V548ZM152.367 447.2L153.902 445.918L150.367 441.686V447.2H152.367ZM152.367 548V550H154.367V548H152.367ZM129.687 548H127.687V550H129.687V548ZM129.687 405.2V403.2H127.687V405.2H129.687ZM147.117 405.2L148.658 403.926L148.058 403.2H147.117V405.2ZM232.167 508.1L230.625 509.374L234.167 513.659V508.1H232.167ZM232.167 407.2H254.637V403.2H232.167V407.2ZM252.637 405.2V548H256.637V405.2H252.637ZM254.637 546H236.577V550H254.637V546ZM238.112 546.718L153.902 445.918L150.832 448.482L235.042 549.282L238.112 546.718ZM150.367 447.2V548H154.367V447.2H150.367ZM152.367 546H129.687V550H152.367V546ZM131.687 548V405.2H127.687V548H131.687ZM129.687 407.2H147.117V403.2H129.687V407.2ZM145.575 406.474L230.625 509.374L233.708 506.826L148.658 403.926L145.575 406.474ZM234.167 508.1V405.2H230.167V508.1H234.167ZM399.132 405.2H401.132V403.2H399.132V405.2ZM399.132 425.99V427.99H401.132V425.99H399.132ZM348.522 425.99V423.99H346.522V425.99H348.522ZM348.522 548V550H350.522V548H348.522ZM326.052 548H324.052V550H326.052V548ZM326.052 425.99H328.052V423.99H326.052V425.99ZM275.442 425.99H273.442V427.99H275.442V425.99ZM275.442 405.2V403.2H273.442V405.2H275.442ZM397.132 405.2V425.99H401.132V405.2H397.132ZM399.132 423.99H348.522V427.99H399.132V423.99ZM346.522 425.99V548H350.522V425.99H346.522ZM348.522 546H326.052V550H348.522V546ZM328.052 548V425.99H324.052V548H328.052ZM326.052 423.99H275.442V427.99H326.052V423.99ZM277.442 425.99V405.2H273.442V425.99H277.442ZM275.442 407.2H399.132V403.2H275.442V407.2ZM522.352 425.99V427.99H524.352V425.99H522.352ZM442.552 425.99V423.99H440.552V425.99H442.552ZM442.552 466.94H440.552V468.94H442.552V466.94ZM513.952 466.94H515.952V464.94H513.952V466.94ZM513.952 487.73V489.73H515.952V487.73H513.952ZM442.552 487.73V485.73H440.552V487.73H442.552ZM442.552 527H440.552V529H442.552V527ZM522.352 527H524.352V525H522.352V527ZM522.352 548V550H524.352V548H522.352ZM419.872 548H417.872V550H419.872V548ZM419.872 405.2V403.2H417.872V405.2H419.872ZM522.352 405.2H524.352V403.2H522.352V405.2ZM522.352 423.99H442.552V427.99H522.352V423.99ZM440.552 425.99V466.94H444.552V425.99H440.552ZM442.552 468.94H513.952V464.94H442.552V468.94ZM511.952 466.94V487.73H515.952V466.94H511.952ZM513.952 485.73H442.552V489.73H513.952V485.73ZM440.552 487.73V527H444.552V487.73H440.552ZM442.552 529H522.352V525H442.552V529ZM520.352 527V548H524.352V527H520.352ZM522.352 546H419.872V550H522.352V546ZM421.872 548V405.2H417.872V548H421.872ZM419.872 407.2H522.352V403.2H419.872V407.2ZM520.352 405.2V425.99H524.352V405.2H520.352ZM613.82 470.51V468.51H611.82V470.51H613.82ZM686.48 470.51H688.48V468.51H686.48V470.51ZM686.48 548V550H688.48V548H686.48ZM668.63 548L666.635 548.136L666.763 550H668.63V548ZM666.95 523.43L668.946 523.294L668.516 517.002L665.241 522.391L666.95 523.43ZM685.22 453.71V455.71H687.774L687.162 453.231L685.22 453.71ZM661.07 453.71L659.173 454.342L659.629 455.71H661.07V453.71ZM661.91 491.51L663.859 491.96L664.425 489.51H661.91V491.51ZM613.82 491.51H611.82V493.51H613.82V491.51ZM613.82 472.51H686.48V468.51H613.82V472.51ZM684.48 470.51V548H688.48V470.51H684.48ZM686.48 546H668.63V550H686.48V546ZM670.626 547.864L668.946 523.294L664.955 523.566L666.635 548.136L670.626 547.864ZM665.241 522.391C655.54 538.358 639.194 548.52 615.5 548.52V552.52C640.527 552.52 658.201 541.682 668.66 524.469L665.241 522.391ZM615.5 548.52C573.975 548.52 543.58 516.655 543.58 478.07H539.58C539.58 518.865 571.766 552.52 615.5 552.52V548.52ZM543.58 478.07C543.58 434.898 576.042 404.68 616.55 404.68V400.68C573.899 400.68 539.58 432.622 539.58 478.07H543.58ZM616.55 404.68C646.703 404.68 675.144 421.246 683.279 454.189L687.162 453.231C678.496 418.134 648.137 400.68 616.55 400.68V404.68ZM685.22 451.71H661.07V455.71H685.22V451.71ZM662.968 453.078C655.259 429.951 634.321 421.68 616.97 421.68V425.68C633.22 425.68 652.182 433.369 659.173 454.342L662.968 453.078ZM616.97 421.68C585.799 421.68 562.47 444.662 562.47 478.07H566.47C566.47 446.798 588.081 425.68 616.97 425.68V421.68ZM562.47 478.07C562.47 506.597 583.86 531.31 615.5 531.31V527.31C586.24 527.31 566.47 504.563 566.47 478.07H562.47ZM615.5 531.31C628.546 531.31 639.359 527.17 647.569 520.117C655.763 513.078 661.259 503.229 663.859 491.96L659.962 491.06C657.522 501.631 652.413 510.682 644.962 517.083C637.527 523.47 627.655 527.31 615.5 527.31V531.31ZM661.91 489.51H613.82V493.51H661.91V489.51ZM615.82 491.51V470.51H611.82V491.51H615.82ZM816.613 548L815.025 549.215L815.625 550H816.613V548ZM779.653 499.7L781.241 498.485L780.641 497.7H779.653V499.7ZM746.683 499.7V497.7H744.683V499.7H746.683ZM746.683 548V550H748.683V548H746.683ZM724.003 548H722.003V550H724.003V548ZM724.003 405.2V403.2H722.003V405.2H724.003ZM804.433 496.13L803.776 494.241L801.157 495.152L802.848 497.349L804.433 496.13ZM844.333 548V550H848.395L845.918 546.781L844.333 548ZM746.683 425.99V423.99H744.683V425.99H746.683ZM746.683 478.91H744.683V480.91H746.683V478.91ZM818.201 546.785L781.241 498.485L778.065 500.915L815.025 549.215L818.201 546.785ZM779.653 497.7H746.683V501.7H779.653V497.7ZM744.683 499.7V548H748.683V499.7H744.683ZM746.683 546H724.003V550H746.683V546ZM726.003 548V405.2H722.003V548H726.003ZM724.003 407.2H781.333V403.2H724.003V407.2ZM781.333 407.2C796.92 407.2 810.189 411.711 819.526 419.567C828.831 427.396 834.353 438.645 834.353 452.45H838.353C838.353 437.485 832.326 425.109 822.101 416.506C811.907 407.929 797.667 403.2 781.333 403.2V407.2ZM834.353 452.45C834.353 472.729 822.37 487.773 803.776 494.241L805.09 498.019C825.136 491.047 838.353 474.591 838.353 452.45H834.353ZM802.848 497.349L842.748 549.219L845.918 546.781L806.018 494.911L802.848 497.349ZM844.333 546H816.613V550H844.333V546ZM744.683 425.99V478.91H748.683V425.99H744.683ZM746.683 480.91H780.493V476.91H746.683V480.91ZM780.493 480.91C790.377 480.91 799.233 478.305 805.669 473.415C812.152 468.49 816.093 461.298 816.093 452.45H812.093C812.093 459.982 808.79 466.02 803.249 470.23C797.663 474.475 789.719 476.91 780.493 476.91V480.91ZM816.093 452.45C816.093 443.602 812.152 436.41 805.669 431.485C799.233 426.595 790.377 423.99 780.493 423.99V427.99C789.719 427.99 797.663 430.425 803.249 434.67C808.79 438.88 812.093 444.918 812.093 452.45H816.093ZM780.493 423.99H746.683V427.99H780.493V423.99ZM978.448 548L976.61 548.789L977.13 550H978.448V548ZM963.748 513.77L965.585 512.981L965.065 511.77H963.748V513.77ZM894.028 513.77V511.77H892.71L892.19 512.981L894.028 513.77ZM879.328 548V550H880.645L881.165 548.789L879.328 548ZM855.178 548L853.349 547.19L852.105 550H855.178V548ZM918.388 405.2V403.2H917.086L916.559 404.39L918.388 405.2ZM939.598 405.2L941.428 404.393L940.901 403.2H939.598V405.2ZM1002.6 548V550H1005.67L1004.43 547.193L1002.6 548ZM902.428 493.61L900.59 492.82L899.391 495.61H902.428V493.61ZM955.138 493.61V495.61H958.165L956.977 492.825L955.138 493.61ZM928.888 432.08L930.727 431.295L928.895 427L927.05 431.29L928.888 432.08ZM980.285 547.211L965.585 512.981L961.91 514.559L976.61 548.789L980.285 547.211ZM963.748 511.77H894.028V515.77H963.748V511.77ZM892.19 512.981L877.49 547.211L881.165 548.789L895.865 514.559L892.19 512.981ZM879.328 546H855.178V550H879.328V546ZM857.007 548.81L920.217 406.01L916.559 404.39L853.349 547.19L857.007 548.81ZM918.388 407.2H939.598V403.2H918.388V407.2ZM937.768 406.007L1000.77 548.807L1004.43 547.193L941.428 404.393L937.768 406.007ZM1002.6 546H978.448V550H1002.6V546ZM902.428 495.61H955.138V491.61H902.428V495.61ZM956.977 492.825L930.727 431.295L927.048 432.865L953.298 494.395L956.977 492.825ZM927.05 431.29L900.59 492.82L904.265 494.4L930.725 432.87L927.05 431.29ZM1224.08 405.2H1226.08V403.2H1224.08V405.2ZM1224.08 548V550H1226.08V548H1224.08ZM1201.61 548H1199.61V550H1201.61V548ZM1201.61 454.97H1203.61V447.908L1199.91 453.921L1201.61 454.97ZM1159.19 523.85V525.85H1160.31L1160.89 524.899L1159.19 523.85ZM1145.12 523.85L1143.42 524.899L1144 525.85H1145.12V523.85ZM1102.28 454.34L1103.98 453.291L1100.25 447.231L1100.28 454.349L1102.28 454.34ZM1102.7 548V550H1104.71L1104.7 547.991L1102.7 548ZM1080.02 548H1078.02V550H1080.02V548ZM1080.02 405.2V403.2H1078.02V405.2H1080.02ZM1096.4 405.2L1098.1 404.154L1097.52 403.2H1096.4V405.2ZM1152.05 495.92L1150.34 496.966L1152.05 499.745L1153.75 496.966L1152.05 495.92ZM1207.7 405.2V403.2H1206.58L1205.99 404.154L1207.7 405.2ZM1222.08 405.2V548H1226.08V405.2H1222.08ZM1224.08 546H1201.61V550H1224.08V546ZM1203.61 548V454.97H1199.61V548H1203.61ZM1199.91 453.921L1157.49 522.801L1160.89 524.899L1203.31 456.019L1199.91 453.921ZM1159.19 521.85H1145.12V525.85H1159.19V521.85ZM1146.82 522.801L1103.98 453.291L1100.58 455.389L1143.42 524.899L1146.82 522.801ZM1100.28 454.349L1100.7 548.009L1104.7 547.991L1104.28 454.331L1100.28 454.349ZM1102.7 546H1080.02V550H1102.7V546ZM1082.02 548V405.2H1078.02V548H1082.02ZM1080.02 407.2H1096.4V403.2H1080.02V407.2ZM1094.69 406.246L1150.34 496.966L1153.75 494.874L1098.1 404.154L1094.69 406.246ZM1153.75 496.966L1209.4 406.246L1205.99 404.154L1150.34 494.874L1153.75 496.966ZM1207.7 407.2H1224.08V403.2H1207.7V407.2ZM1369.53 548L1367.69 548.789L1368.21 550H1369.53V548ZM1354.83 513.77L1356.67 512.981L1356.15 511.77H1354.83V513.77ZM1285.11 513.77V511.77H1283.79L1283.27 512.981L1285.11 513.77ZM1270.41 548V550H1271.73L1272.25 548.789L1270.41 548ZM1246.26 548L1244.43 547.19L1243.19 550H1246.26V548ZM1309.47 405.2V403.2H1308.17L1307.64 404.39L1309.47 405.2ZM1330.68 405.2L1332.51 404.393L1331.99 403.2H1330.68V405.2ZM1393.68 548V550H1396.75L1395.51 547.193L1393.68 548ZM1293.51 493.61L1291.67 492.82L1290.47 495.61H1293.51V493.61ZM1346.22 493.61V495.61H1349.25L1348.06 492.825L1346.22 493.61ZM1319.97 432.08L1321.81 431.295L1319.98 427L1318.13 431.29L1319.97 432.08ZM1371.37 547.211L1356.67 512.981L1352.99 514.559L1367.69 548.789L1371.37 547.211ZM1354.83 511.77H1285.11V515.77H1354.83V511.77ZM1283.27 512.981L1268.57 547.211L1272.25 548.789L1286.95 514.559L1283.27 512.981ZM1270.41 546H1246.26V550H1270.41V546ZM1248.09 548.81L1311.3 406.01L1307.64 404.39L1244.43 547.19L1248.09 548.81ZM1309.47 407.2H1330.68V403.2H1309.47V407.2ZM1328.85 406.007L1391.85 548.807L1395.51 547.193L1332.51 404.393L1328.85 406.007ZM1393.68 546H1369.53V550H1393.68V546ZM1293.51 495.61H1346.22V491.61H1293.51V495.61ZM1348.06 492.825L1321.81 431.295L1318.13 432.865L1344.38 494.395L1348.06 492.825ZM1318.13 431.29L1291.67 492.82L1295.35 494.4L1321.81 432.87L1318.13 431.29ZM1473.1 470.51V468.51H1471.1V470.51H1473.1ZM1545.76 470.51H1547.76V468.51H1545.76V470.51ZM1545.76 548V550H1547.76V548H1545.76ZM1527.91 548L1525.91 548.136L1526.04 550H1527.91V548ZM1526.23 523.43L1528.22 523.294L1527.79 517.002L1524.52 522.391L1526.23 523.43ZM1544.5 453.71V455.71H1547.05L1546.44 453.231L1544.5 453.71ZM1520.35 453.71L1518.45 454.342L1518.91 455.71H1520.35V453.71ZM1521.19 491.51L1523.14 491.96L1523.7 489.51H1521.19V491.51ZM1473.1 491.51H1471.1V493.51H1473.1V491.51ZM1473.1 472.51H1545.76V468.51H1473.1V472.51ZM1543.76 470.51V548H1547.76V470.51H1543.76ZM1545.76 546H1527.91V550H1545.76V546ZM1529.9 547.864L1528.22 523.294L1524.23 523.566L1525.91 548.136L1529.9 547.864ZM1524.52 522.391C1514.82 538.358 1498.47 548.52 1474.78 548.52V552.52C1499.8 552.52 1517.48 541.682 1527.94 524.469L1524.52 522.391ZM1474.78 548.52C1433.25 548.52 1402.86 516.655 1402.86 478.07H1398.86C1398.86 518.865 1431.04 552.52 1474.78 552.52V548.52ZM1402.86 478.07C1402.86 434.898 1435.32 404.68 1475.83 404.68V400.68C1433.18 400.68 1398.86 432.622 1398.86 478.07H1402.86ZM1475.83 404.68C1505.98 404.68 1534.42 421.246 1542.56 454.189L1546.44 453.231C1537.77 418.134 1507.41 400.68 1475.83 400.68V404.68ZM1544.5 451.71H1520.35V455.71H1544.5V451.71ZM1522.25 453.078C1514.54 429.951 1493.6 421.68 1476.25 421.68V425.68C1492.5 425.68 1511.46 433.369 1518.45 454.342L1522.25 453.078ZM1476.25 421.68C1445.08 421.68 1421.75 444.662 1421.75 478.07H1425.75C1425.75 446.798 1447.36 425.68 1476.25 425.68V421.68ZM1421.75 478.07C1421.75 506.597 1443.14 531.31 1474.78 531.31V527.31C1445.52 527.31 1425.75 504.563 1425.75 478.07H1421.75ZM1474.78 531.31C1487.82 531.31 1498.64 527.17 1506.85 520.117C1515.04 513.078 1520.54 503.229 1523.14 491.96L1519.24 491.06C1516.8 501.631 1511.69 510.682 1504.24 517.083C1496.8 523.47 1486.93 527.31 1474.78 527.31V531.31ZM1521.19 489.51H1473.1V493.51H1521.19V489.51ZM1475.1 491.51V470.51H1471.1V491.51H1475.1ZM1685.76 405.2V403.2H1683.76V405.2H1685.76ZM1708.23 405.2H1710.23V403.2H1708.23V405.2ZM1708.23 548V550H1710.23V548H1708.23ZM1690.17 548L1688.64 549.282L1689.24 550H1690.17V548ZM1605.96 447.2L1607.5 445.918L1603.96 441.686V447.2H1605.96ZM1605.96 548V550H1607.96V548H1605.96ZM1583.28 548H1581.28V550H1583.28V548ZM1583.28 405.2V403.2H1581.28V405.2H1583.28ZM1600.71 405.2L1602.25 403.926L1601.65 403.2H1600.71V405.2ZM1685.76 508.1L1684.22 509.374L1687.76 513.659V508.1H1685.76ZM1685.76 407.2H1708.23V403.2H1685.76V407.2ZM1706.23 405.2V548H1710.23V405.2H1706.23ZM1708.23 546H1690.17V550H1708.23V546ZM1691.71 546.718L1607.5 445.918L1604.43 448.482L1688.64 549.282L1691.71 546.718ZM1603.96 447.2V548H1607.96V447.2H1603.96ZM1605.96 546H1583.28V550H1605.96V546ZM1585.28 548V405.2H1581.28V548H1585.28ZM1583.28 407.2H1600.71V403.2H1583.28V407.2ZM1599.17 406.474L1684.22 509.374L1687.3 506.826L1602.25 403.926L1599.17 406.474ZM1687.76 508.1V405.2H1683.76V508.1H1687.76ZM1853.52 548L1851.68 548.789L1852.2 550H1853.52V548ZM1838.82 513.77L1840.65 512.981L1840.13 511.77H1838.82V513.77ZM1769.1 513.77V511.77H1767.78L1767.26 512.981L1769.1 513.77ZM1754.4 548V550H1755.71L1756.23 548.789L1754.4 548ZM1730.25 548L1728.42 547.19L1727.17 550H1730.25V548ZM1793.46 405.2V403.2H1792.15L1791.63 404.39L1793.46 405.2ZM1814.67 405.2L1816.5 404.393L1815.97 403.2H1814.67V405.2ZM1877.67 548V550H1880.73L1879.5 547.193L1877.67 548ZM1777.5 493.61L1775.66 492.82L1774.46 495.61H1777.5V493.61ZM1830.21 493.61V495.61H1833.23L1832.05 492.825L1830.21 493.61ZM1803.96 432.08L1805.8 431.295L1803.96 427L1802.12 431.29L1803.96 432.08ZM1855.35 547.211L1840.65 512.981L1836.98 514.559L1851.68 548.789L1855.35 547.211ZM1838.82 511.77H1769.1V515.77H1838.82V511.77ZM1767.26 512.981L1752.56 547.211L1756.23 548.789L1770.93 514.559L1767.26 512.981ZM1754.4 546H1730.25V550H1754.4V546ZM1732.07 548.81L1795.28 406.01L1791.63 404.39L1728.42 547.19L1732.07 548.81ZM1793.46 407.2H1814.67V403.2H1793.46V407.2ZM1812.84 406.007L1875.84 548.807L1879.5 547.193L1816.5 404.393L1812.84 406.007ZM1877.67 546H1853.52V550H1877.67V546ZM1777.5 495.61H1830.21V491.61H1777.5V495.61ZM1832.05 492.825L1805.8 431.295L1802.12 432.865L1828.37 494.395L1832.05 492.825ZM1802.12 431.29L1775.66 492.82L1779.33 494.4L1805.79 432.87L1802.12 431.29Z" fill="#808080" mask="url(#path-1-outside-1_3118_1744)"/>
</g>
<g opacity="0.4">
<mask id="path-3-outside-2_3118_1744" maskUnits="userSpaceOnUse" x="71" y="588" width="1810" height="153" fill="black">
<rect fill="white" x="71" y="588" width="1810" height="153"/>
<path d="M73.0852 593.2H95.7652V736H73.0852V593.2ZM232.167 593.2H254.637V736H236.577L152.367 635.2V736H129.687V593.2H147.117L232.167 696.1V593.2ZM399.132 593.2V613.99H348.522V736H326.052V613.99H275.442V593.2H399.132ZM522.352 613.99H442.552V654.94H513.952V675.73H442.552V715H522.352V736H419.872V593.2H522.352V613.99ZM613.82 658.51H686.48V736H668.63L666.95 711.43C656.87 728.02 639.86 738.52 615.5 738.52C572.87 738.52 541.58 705.76 541.58 666.07C541.58 621.76 574.97 590.68 616.55 590.68C647.42 590.68 676.82 607.69 685.22 641.71H661.07C653.72 619.66 633.77 611.68 616.97 611.68C586.94 611.68 564.47 633.73 564.47 666.07C564.47 693.58 585.05 717.31 615.5 717.31C640.7 717.31 656.87 701.35 661.91 679.51H613.82V658.51ZM816.613 736L779.653 687.7H746.683V736H724.003V593.2H781.333C813.253 593.2 836.353 611.68 836.353 640.45C836.353 661.66 823.753 677.41 804.433 684.13L844.333 736H816.613ZM746.683 613.99V666.91H780.493C799.603 666.91 814.093 656.83 814.093 640.45C814.093 624.07 799.603 613.99 780.493 613.99H746.683ZM978.448 736L963.748 701.77H894.028L879.328 736H855.178L918.388 593.2H939.598L1002.6 736H978.448ZM902.428 681.61H955.138L928.888 620.08L902.428 681.61ZM1224.08 593.2V736H1201.61V642.97L1159.19 711.85H1145.12L1102.28 642.34L1102.7 736H1080.02V593.2H1096.4L1152.05 683.92L1207.7 593.2H1224.08ZM1369.53 736L1354.83 701.77H1285.11L1270.41 736H1246.26L1309.47 593.2H1330.68L1393.68 736H1369.53ZM1293.51 681.61H1346.22L1319.97 620.08L1293.51 681.61ZM1473.1 658.51H1545.76V736H1527.91L1526.23 711.43C1516.15 728.02 1499.14 738.52 1474.78 738.52C1432.15 738.52 1400.86 705.76 1400.86 666.07C1400.86 621.76 1434.25 590.68 1475.83 590.68C1506.7 590.68 1536.1 607.69 1544.5 641.71H1520.35C1513 619.66 1493.05 611.68 1476.25 611.68C1446.22 611.68 1423.75 633.73 1423.75 666.07C1423.75 693.58 1444.33 717.31 1474.78 717.31C1499.98 717.31 1516.15 701.35 1521.19 679.51H1473.1V658.51ZM1685.76 593.2H1708.23V736H1690.17L1605.96 635.2V736H1583.28V593.2H1600.71L1685.76 696.1V593.2ZM1853.52 736L1838.82 701.77H1769.1L1754.4 736H1730.25L1793.46 593.2H1814.67L1877.67 736H1853.52ZM1777.5 681.61H1830.21L1803.96 620.08L1777.5 681.61Z"/>
</mask>
<path d="M73.0852 593.2V591.2H71.0852V593.2H73.0852ZM95.7652 593.2H97.7652V591.2H95.7652V593.2ZM95.7652 736V738H97.7652V736H95.7652ZM73.0852 736H71.0852V738H73.0852V736ZM73.0852 595.2H95.7652V591.2H73.0852V595.2ZM93.7652 593.2V736H97.7652V593.2H93.7652ZM95.7652 734H73.0852V738H95.7652V734ZM75.0852 736V593.2H71.0852V736H75.0852ZM232.167 593.2V591.2H230.167V593.2H232.167ZM254.637 593.2H256.637V591.2H254.637V593.2ZM254.637 736V738H256.637V736H254.637ZM236.577 736L235.042 737.282L235.642 738H236.577V736ZM152.367 635.2L153.902 633.918L150.367 629.686V635.2H152.367ZM152.367 736V738H154.367V736H152.367ZM129.687 736H127.687V738H129.687V736ZM129.687 593.2V591.2H127.687V593.2H129.687ZM147.117 593.2L148.658 591.926L148.058 591.2H147.117V593.2ZM232.167 696.1L230.625 697.374L234.167 701.659V696.1H232.167ZM232.167 595.2H254.637V591.2H232.167V595.2ZM252.637 593.2V736H256.637V593.2H252.637ZM254.637 734H236.577V738H254.637V734ZM238.112 734.718L153.902 633.918L150.832 636.482L235.042 737.282L238.112 734.718ZM150.367 635.2V736H154.367V635.2H150.367ZM152.367 734H129.687V738H152.367V734ZM131.687 736V593.2H127.687V736H131.687ZM129.687 595.2H147.117V591.2H129.687V595.2ZM145.575 594.474L230.625 697.374L233.708 694.826L148.658 591.926L145.575 594.474ZM234.167 696.1V593.2H230.167V696.1H234.167ZM399.132 593.2H401.132V591.2H399.132V593.2ZM399.132 613.99V615.99H401.132V613.99H399.132ZM348.522 613.99V611.99H346.522V613.99H348.522ZM348.522 736V738H350.522V736H348.522ZM326.052 736H324.052V738H326.052V736ZM326.052 613.99H328.052V611.99H326.052V613.99ZM275.442 613.99H273.442V615.99H275.442V613.99ZM275.442 593.2V591.2H273.442V593.2H275.442ZM397.132 593.2V613.99H401.132V593.2H397.132ZM399.132 611.99H348.522V615.99H399.132V611.99ZM346.522 613.99V736H350.522V613.99H346.522ZM348.522 734H326.052V738H348.522V734ZM328.052 736V613.99H324.052V736H328.052ZM326.052 611.99H275.442V615.99H326.052V611.99ZM277.442 613.99V593.2H273.442V613.99H277.442ZM275.442 595.2H399.132V591.2H275.442V595.2ZM522.352 613.99V615.99H524.352V613.99H522.352ZM442.552 613.99V611.99H440.552V613.99H442.552ZM442.552 654.94H440.552V656.94H442.552V654.94ZM513.952 654.94H515.952V652.94H513.952V654.94ZM513.952 675.73V677.73H515.952V675.73H513.952ZM442.552 675.73V673.73H440.552V675.73H442.552ZM442.552 715H440.552V717H442.552V715ZM522.352 715H524.352V713H522.352V715ZM522.352 736V738H524.352V736H522.352ZM419.872 736H417.872V738H419.872V736ZM419.872 593.2V591.2H417.872V593.2H419.872ZM522.352 593.2H524.352V591.2H522.352V593.2ZM522.352 611.99H442.552V615.99H522.352V611.99ZM440.552 613.99V654.94H444.552V613.99H440.552ZM442.552 656.94H513.952V652.94H442.552V656.94ZM511.952 654.94V675.73H515.952V654.94H511.952ZM513.952 673.73H442.552V677.73H513.952V673.73ZM440.552 675.73V715H444.552V675.73H440.552ZM442.552 717H522.352V713H442.552V717ZM520.352 715V736H524.352V715H520.352ZM522.352 734H419.872V738H522.352V734ZM421.872 736V593.2H417.872V736H421.872ZM419.872 595.2H522.352V591.2H419.872V595.2ZM520.352 593.2V613.99H524.352V593.2H520.352ZM613.82 658.51V656.51H611.82V658.51H613.82ZM686.48 658.51H688.48V656.51H686.48V658.51ZM686.48 736V738H688.48V736H686.48ZM668.63 736L666.635 736.136L666.763 738H668.63V736ZM666.95 711.43L668.946 711.294L668.516 705.002L665.241 710.391L666.95 711.43ZM685.22 641.71V643.71H687.774L687.162 641.231L685.22 641.71ZM661.07 641.71L659.173 642.342L659.629 643.71H661.07V641.71ZM661.91 679.51L663.859 679.96L664.425 677.51H661.91V679.51ZM613.82 679.51H611.82V681.51H613.82V679.51ZM613.82 660.51H686.48V656.51H613.82V660.51ZM684.48 658.51V736H688.48V658.51H684.48ZM686.48 734H668.63V738H686.48V734ZM670.626 735.864L668.946 711.294L664.955 711.566L666.635 736.136L670.626 735.864ZM665.241 710.391C655.54 726.358 639.194 736.52 615.5 736.52V740.52C640.527 740.52 658.201 729.682 668.66 712.469L665.241 710.391ZM615.5 736.52C573.975 736.52 543.58 704.655 543.58 666.07H539.58C539.58 706.865 571.766 740.52 615.5 740.52V736.52ZM543.58 666.07C543.58 622.898 576.042 592.68 616.55 592.68V588.68C573.899 588.68 539.58 620.622 539.58 666.07H543.58ZM616.55 592.68C646.703 592.68 675.144 609.246 683.279 642.189L687.162 641.231C678.496 606.134 648.137 588.68 616.55 588.68V592.68ZM685.22 639.71H661.07V643.71H685.22V639.71ZM662.968 641.078C655.259 617.951 634.321 609.68 616.97 609.68V613.68C633.22 613.68 652.182 621.369 659.173 642.342L662.968 641.078ZM616.97 609.68C585.799 609.68 562.47 632.662 562.47 666.07H566.47C566.47 634.798 588.081 613.68 616.97 613.68V609.68ZM562.47 666.07C562.47 694.597 583.86 719.31 615.5 719.31V715.31C586.24 715.31 566.47 692.563 566.47 666.07H562.47ZM615.5 719.31C628.546 719.31 639.359 715.17 647.569 708.117C655.763 701.078 661.259 691.229 663.859 679.96L659.962 679.06C657.522 689.631 652.413 698.682 644.962 705.083C637.527 711.47 627.655 715.31 615.5 715.31V719.31ZM661.91 677.51H613.82V681.51H661.91V677.51ZM615.82 679.51V658.51H611.82V679.51H615.82ZM816.613 736L815.025 737.215L815.625 738H816.613V736ZM779.653 687.7L781.241 686.485L780.641 685.7H779.653V687.7ZM746.683 687.7V685.7H744.683V687.7H746.683ZM746.683 736V738H748.683V736H746.683ZM724.003 736H722.003V738H724.003V736ZM724.003 593.2V591.2H722.003V593.2H724.003ZM804.433 684.13L803.776 682.241L801.157 683.152L802.848 685.349L804.433 684.13ZM844.333 736V738H848.395L845.918 734.781L844.333 736ZM746.683 613.99V611.99H744.683V613.99H746.683ZM746.683 666.91H744.683V668.91H746.683V666.91ZM818.201 734.785L781.241 686.485L778.065 688.915L815.025 737.215L818.201 734.785ZM779.653 685.7H746.683V689.7H779.653V685.7ZM744.683 687.7V736H748.683V687.7H744.683ZM746.683 734H724.003V738H746.683V734ZM726.003 736V593.2H722.003V736H726.003ZM724.003 595.2H781.333V591.2H724.003V595.2ZM781.333 595.2C796.92 595.2 810.189 599.711 819.526 607.567C828.831 615.396 834.353 626.645 834.353 640.45H838.353C838.353 625.485 832.326 613.109 822.101 604.506C811.907 595.929 797.667 591.2 781.333 591.2V595.2ZM834.353 640.45C834.353 660.729 822.37 675.773 803.776 682.241L805.09 686.019C825.136 679.047 838.353 662.591 838.353 640.45H834.353ZM802.848 685.349L842.748 737.219L845.918 734.781L806.018 682.911L802.848 685.349ZM844.333 734H816.613V738H844.333V734ZM744.683 613.99V666.91H748.683V613.99H744.683ZM746.683 668.91H780.493V664.91H746.683V668.91ZM780.493 668.91C790.377 668.91 799.233 666.305 805.669 661.415C812.152 656.49 816.093 649.298 816.093 640.45H812.093C812.093 647.982 808.79 654.02 803.249 658.23C797.663 662.475 789.719 664.91 780.493 664.91V668.91ZM816.093 640.45C816.093 631.602 812.152 624.41 805.669 619.485C799.233 614.595 790.377 611.99 780.493 611.99V615.99C789.719 615.99 797.663 618.425 803.249 622.67C808.79 626.88 812.093 632.918 812.093 640.45H816.093ZM780.493 611.99H746.683V615.99H780.493V611.99ZM978.448 736L976.61 736.789L977.13 738H978.448V736ZM963.748 701.77L965.585 700.981L965.065 699.77H963.748V701.77ZM894.028 701.77V699.77H892.71L892.19 700.981L894.028 701.77ZM879.328 736V738H880.645L881.165 736.789L879.328 736ZM855.178 736L853.349 735.19L852.105 738H855.178V736ZM918.388 593.2V591.2H917.086L916.559 592.39L918.388 593.2ZM939.598 593.2L941.428 592.393L940.901 591.2H939.598V593.2ZM1002.6 736V738H1005.67L1004.43 735.193L1002.6 736ZM902.428 681.61L900.59 680.82L899.391 683.61H902.428V681.61ZM955.138 681.61V683.61H958.165L956.977 680.825L955.138 681.61ZM928.888 620.08L930.727 619.295L928.895 615L927.05 619.29L928.888 620.08ZM980.285 735.211L965.585 700.981L961.91 702.559L976.61 736.789L980.285 735.211ZM963.748 699.77H894.028V703.77H963.748V699.77ZM892.19 700.981L877.49 735.211L881.165 736.789L895.865 702.559L892.19 700.981ZM879.328 734H855.178V738H879.328V734ZM857.007 736.81L920.217 594.01L916.559 592.39L853.349 735.19L857.007 736.81ZM918.388 595.2H939.598V591.2H918.388V595.2ZM937.768 594.007L1000.77 736.807L1004.43 735.193L941.428 592.393L937.768 594.007ZM1002.6 734H978.448V738H1002.6V734ZM902.428 683.61H955.138V679.61H902.428V683.61ZM956.977 680.825L930.727 619.295L927.048 620.865L953.298 682.395L956.977 680.825ZM927.05 619.29L900.59 680.82L904.265 682.4L930.725 620.87L927.05 619.29ZM1224.08 593.2H1226.08V591.2H1224.08V593.2ZM1224.08 736V738H1226.08V736H1224.08ZM1201.61 736H1199.61V738H1201.61V736ZM1201.61 642.97H1203.61V635.908L1199.91 641.921L1201.61 642.97ZM1159.19 711.85V713.85H1160.31L1160.89 712.899L1159.19 711.85ZM1145.12 711.85L1143.42 712.899L1144 713.85H1145.12V711.85ZM1102.28 642.34L1103.98 641.291L1100.25 635.231L1100.28 642.349L1102.28 642.34ZM1102.7 736V738H1104.71L1104.7 735.991L1102.7 736ZM1080.02 736H1078.02V738H1080.02V736ZM1080.02 593.2V591.2H1078.02V593.2H1080.02ZM1096.4 593.2L1098.1 592.154L1097.52 591.2H1096.4V593.2ZM1152.05 683.92L1150.34 684.966L1152.05 687.745L1153.75 684.966L1152.05 683.92ZM1207.7 593.2V591.2H1206.58L1205.99 592.154L1207.7 593.2ZM1222.08 593.2V736H1226.08V593.2H1222.08ZM1224.08 734H1201.61V738H1224.08V734ZM1203.61 736V642.97H1199.61V736H1203.61ZM1199.91 641.921L1157.49 710.801L1160.89 712.899L1203.31 644.019L1199.91 641.921ZM1159.19 709.85H1145.12V713.85H1159.19V709.85ZM1146.82 710.801L1103.98 641.291L1100.58 643.389L1143.42 712.899L1146.82 710.801ZM1100.28 642.349L1100.7 736.009L1104.7 735.991L1104.28 642.331L1100.28 642.349ZM1102.7 734H1080.02V738H1102.7V734ZM1082.02 736V593.2H1078.02V736H1082.02ZM1080.02 595.2H1096.4V591.2H1080.02V595.2ZM1094.69 594.246L1150.34 684.966L1153.75 682.874L1098.1 592.154L1094.69 594.246ZM1153.75 684.966L1209.4 594.246L1205.99 592.154L1150.34 682.874L1153.75 684.966ZM1207.7 595.2H1224.08V591.2H1207.7V595.2ZM1369.53 736L1367.69 736.789L1368.21 738H1369.53V736ZM1354.83 701.77L1356.67 700.981L1356.15 699.77H1354.83V701.77ZM1285.11 701.77V699.77H1283.79L1283.27 700.981L1285.11 701.77ZM1270.41 736V738H1271.73L1272.25 736.789L1270.41 736ZM1246.26 736L1244.43 735.19L1243.19 738H1246.26V736ZM1309.47 593.2V591.2H1308.17L1307.64 592.39L1309.47 593.2ZM1330.68 593.2L1332.51 592.393L1331.99 591.2H1330.68V593.2ZM1393.68 736V738H1396.75L1395.51 735.193L1393.68 736ZM1293.51 681.61L1291.67 680.82L1290.47 683.61H1293.51V681.61ZM1346.22 681.61V683.61H1349.25L1348.06 680.825L1346.22 681.61ZM1319.97 620.08L1321.81 619.295L1319.98 615L1318.13 619.29L1319.97 620.08ZM1371.37 735.211L1356.67 700.981L1352.99 702.559L1367.69 736.789L1371.37 735.211ZM1354.83 699.77H1285.11V703.77H1354.83V699.77ZM1283.27 700.981L1268.57 735.211L1272.25 736.789L1286.95 702.559L1283.27 700.981ZM1270.41 734H1246.26V738H1270.41V734ZM1248.09 736.81L1311.3 594.01L1307.64 592.39L1244.43 735.19L1248.09 736.81ZM1309.47 595.2H1330.68V591.2H1309.47V595.2ZM1328.85 594.007L1391.85 736.807L1395.51 735.193L1332.51 592.393L1328.85 594.007ZM1393.68 734H1369.53V738H1393.68V734ZM1293.51 683.61H1346.22V679.61H1293.51V683.61ZM1348.06 680.825L1321.81 619.295L1318.13 620.865L1344.38 682.395L1348.06 680.825ZM1318.13 619.29L1291.67 680.82L1295.35 682.4L1321.81 620.87L1318.13 619.29ZM1473.1 658.51V656.51H1471.1V658.51H1473.1ZM1545.76 658.51H1547.76V656.51H1545.76V658.51ZM1545.76 736V738H1547.76V736H1545.76ZM1527.91 736L1525.91 736.136L1526.04 738H1527.91V736ZM1526.23 711.43L1528.22 711.294L1527.79 705.002L1524.52 710.391L1526.23 711.43ZM1544.5 641.71V643.71H1547.05L1546.44 641.231L1544.5 641.71ZM1520.35 641.71L1518.45 642.342L1518.91 643.71H1520.35V641.71ZM1521.19 679.51L1523.14 679.96L1523.7 677.51H1521.19V679.51ZM1473.1 679.51H1471.1V681.51H1473.1V679.51ZM1473.1 660.51H1545.76V656.51H1473.1V660.51ZM1543.76 658.51V736H1547.76V658.51H1543.76ZM1545.76 734H1527.91V738H1545.76V734ZM1529.9 735.864L1528.22 711.294L1524.23 711.566L1525.91 736.136L1529.9 735.864ZM1524.52 710.391C1514.82 726.358 1498.47 736.52 1474.78 736.52V740.52C1499.8 740.52 1517.48 729.682 1527.94 712.469L1524.52 710.391ZM1474.78 736.52C1433.25 736.52 1402.86 704.655 1402.86 666.07H1398.86C1398.86 706.865 1431.04 740.52 1474.78 740.52V736.52ZM1402.86 666.07C1402.86 622.898 1435.32 592.68 1475.83 592.68V588.68C1433.18 588.68 1398.86 620.622 1398.86 666.07H1402.86ZM1475.83 592.68C1505.98 592.68 1534.42 609.246 1542.56 642.189L1546.44 641.231C1537.77 606.134 1507.41 588.68 1475.83 588.68V592.68ZM1544.5 639.71H1520.35V643.71H1544.5V639.71ZM1522.25 641.078C1514.54 617.951 1493.6 609.68 1476.25 609.68V613.68C1492.5 613.68 1511.46 621.369 1518.45 642.342L1522.25 641.078ZM1476.25 609.68C1445.08 609.68 1421.75 632.662 1421.75 666.07H1425.75C1425.75 634.798 1447.36 613.68 1476.25 613.68V609.68ZM1421.75 666.07C1421.75 694.597 1443.14 719.31 1474.78 719.31V715.31C1445.52 715.31 1425.75 692.563 1425.75 666.07H1421.75ZM1474.78 719.31C1487.82 719.31 1498.64 715.17 1506.85 708.117C1515.04 701.078 1520.54 691.229 1523.14 679.96L1519.24 679.06C1516.8 689.631 1511.69 698.682 1504.24 705.083C1496.8 711.47 1486.93 715.31 1474.78 715.31V719.31ZM1521.19 677.51H1473.1V681.51H1521.19V677.51ZM1475.1 679.51V658.51H1471.1V679.51H1475.1ZM1685.76 593.2V591.2H1683.76V593.2H1685.76ZM1708.23 593.2H1710.23V591.2H1708.23V593.2ZM1708.23 736V738H1710.23V736H1708.23ZM1690.17 736L1688.64 737.282L1689.24 738H1690.17V736ZM1605.96 635.2L1607.5 633.918L1603.96 629.686V635.2H1605.96ZM1605.96 736V738H1607.96V736H1605.96ZM1583.28 736H1581.28V738H1583.28V736ZM1583.28 593.2V591.2H1581.28V593.2H1583.28ZM1600.71 593.2L1602.25 591.926L1601.65 591.2H1600.71V593.2ZM1685.76 696.1L1684.22 697.374L1687.76 701.659V696.1H1685.76ZM1685.76 595.2H1708.23V591.2H1685.76V595.2ZM1706.23 593.2V736H1710.23V593.2H1706.23ZM1708.23 734H1690.17V738H1708.23V734ZM1691.71 734.718L1607.5 633.918L1604.43 636.482L1688.64 737.282L1691.71 734.718ZM1603.96 635.2V736H1607.96V635.2H1603.96ZM1605.96 734H1583.28V738H1605.96V734ZM1585.28 736V593.2H1581.28V736H1585.28ZM1583.28 595.2H1600.71V591.2H1583.28V595.2ZM1599.17 594.474L1684.22 697.374L1687.3 694.826L1602.25 591.926L1599.17 594.474ZM1687.76 696.1V593.2H1683.76V696.1H1687.76ZM1853.52 736L1851.68 736.789L1852.2 738H1853.52V736ZM1838.82 701.77L1840.65 700.981L1840.13 699.77H1838.82V701.77ZM1769.1 701.77V699.77H1767.78L1767.26 700.981L1769.1 701.77ZM1754.4 736V738H1755.71L1756.23 736.789L1754.4 736ZM1730.25 736L1728.42 735.19L1727.17 738H1730.25V736ZM1793.46 593.2V591.2H1792.15L1791.63 592.39L1793.46 593.2ZM1814.67 593.2L1816.5 592.393L1815.97 591.2H1814.67V593.2ZM1877.67 736V738H1880.73L1879.5 735.193L1877.67 736ZM1777.5 681.61L1775.66 680.82L1774.46 683.61H1777.5V681.61ZM1830.21 681.61V683.61H1833.23L1832.05 680.825L1830.21 681.61ZM1803.96 620.08L1805.8 619.295L1803.96 615L1802.12 619.29L1803.96 620.08ZM1855.35 735.211L1840.65 700.981L1836.98 702.559L1851.68 736.789L1855.35 735.211ZM1838.82 699.77H1769.1V703.77H1838.82V699.77ZM1767.26 700.981L1752.56 735.211L1756.23 736.789L1770.93 702.559L1767.26 700.981ZM1754.4 734H1730.25V738H1754.4V734ZM1732.07 736.81L1795.28 594.01L1791.63 592.39L1728.42 735.19L1732.07 736.81ZM1793.46 595.2H1814.67V591.2H1793.46V595.2ZM1812.84 594.007L1875.84 736.807L1879.5 735.193L1816.5 592.393L1812.84 594.007ZM1877.67 734H1853.52V738H1877.67V734ZM1777.5 683.61H1830.21V679.61H1777.5V683.61ZM1832.05 680.825L1805.8 619.295L1802.12 620.865L1828.37 682.395L1832.05 680.825ZM1802.12 619.29L1775.66 680.82L1779.33 682.4L1805.79 620.87L1802.12 619.29Z" fill="#808080" mask="url(#path-3-outside-2_3118_1744)"/>
</g>
<g opacity="0.25">
<mask id="path-5-outside-3_3118_1744" maskUnits="userSpaceOnUse" x="71" y="776" width="1810" height="153" fill="black">
<rect fill="white" x="71" y="776" width="1810" height="153"/>
<path d="M73.0852 781.2H95.7652V924H73.0852V781.2ZM232.167 781.2H254.637V924H236.577L152.367 823.2V924H129.687V781.2H147.117L232.167 884.1V781.2ZM399.132 781.2V801.99H348.522V924H326.052V801.99H275.442V781.2H399.132ZM522.352 801.99H442.552V842.94H513.952V863.73H442.552V903H522.352V924H419.872V781.2H522.352V801.99ZM613.82 846.51H686.48V924H668.63L666.95 899.43C656.87 916.02 639.86 926.52 615.5 926.52C572.87 926.52 541.58 893.76 541.58 854.07C541.58 809.76 574.97 778.68 616.55 778.68C647.42 778.68 676.82 795.69 685.22 829.71H661.07C653.72 807.66 633.77 799.68 616.97 799.68C586.94 799.68 564.47 821.73 564.47 854.07C564.47 881.58 585.05 905.31 615.5 905.31C640.7 905.31 656.87 889.35 661.91 867.51H613.82V846.51ZM816.613 924L779.653 875.7H746.683V924H724.003V781.2H781.333C813.253 781.2 836.353 799.68 836.353 828.45C836.353 849.66 823.753 865.41 804.433 872.13L844.333 924H816.613ZM746.683 801.99V854.91H780.493C799.603 854.91 814.093 844.83 814.093 828.45C814.093 812.07 799.603 801.99 780.493 801.99H746.683ZM978.448 924L963.748 889.77H894.028L879.328 924H855.178L918.388 781.2H939.598L1002.6 924H978.448ZM902.428 869.61H955.138L928.888 808.08L902.428 869.61ZM1224.08 781.2V924H1201.61V830.97L1159.19 899.85H1145.12L1102.28 830.34L1102.7 924H1080.02V781.2H1096.4L1152.05 871.92L1207.7 781.2H1224.08ZM1369.53 924L1354.83 889.77H1285.11L1270.41 924H1246.26L1309.47 781.2H1330.68L1393.68 924H1369.53ZM1293.51 869.61H1346.22L1319.97 808.08L1293.51 869.61ZM1473.1 846.51H1545.76V924H1527.91L1526.23 899.43C1516.15 916.02 1499.14 926.52 1474.78 926.52C1432.15 926.52 1400.86 893.76 1400.86 854.07C1400.86 809.76 1434.25 778.68 1475.83 778.68C1506.7 778.68 1536.1 795.69 1544.5 829.71H1520.35C1513 807.66 1493.05 799.68 1476.25 799.68C1446.22 799.68 1423.75 821.73 1423.75 854.07C1423.75 881.58 1444.33 905.31 1474.78 905.31C1499.98 905.31 1516.15 889.35 1521.19 867.51H1473.1V846.51ZM1685.76 781.2H1708.23V924H1690.17L1605.96 823.2V924H1583.28V781.2H1600.71L1685.76 884.1V781.2ZM1853.52 924L1838.82 889.77H1769.1L1754.4 924H1730.25L1793.46 781.2H1814.67L1877.67 924H1853.52ZM1777.5 869.61H1830.21L1803.96 808.08L1777.5 869.61Z"/>
</mask>
<path d="M73.0852 781.2V779.2H71.0852V781.2H73.0852ZM95.7652 781.2H97.7652V779.2H95.7652V781.2ZM95.7652 924V926H97.7652V924H95.7652ZM73.0852 924H71.0852V926H73.0852V924ZM73.0852 783.2H95.7652V779.2H73.0852V783.2ZM93.7652 781.2V924H97.7652V781.2H93.7652ZM95.7652 922H73.0852V926H95.7652V922ZM75.0852 924V781.2H71.0852V924H75.0852ZM232.167 781.2V779.2H230.167V781.2H232.167ZM254.637 781.2H256.637V779.2H254.637V781.2ZM254.637 924V926H256.637V924H254.637ZM236.577 924L235.042 925.282L235.642 926H236.577V924ZM152.367 823.2L153.902 821.918L150.367 817.686V823.2H152.367ZM152.367 924V926H154.367V924H152.367ZM129.687 924H127.687V926H129.687V924ZM129.687 781.2V779.2H127.687V781.2H129.687ZM147.117 781.2L148.658 779.926L148.058 779.2H147.117V781.2ZM232.167 884.1L230.625 885.374L234.167 889.659V884.1H232.167ZM232.167 783.2H254.637V779.2H232.167V783.2ZM252.637 781.2V924H256.637V781.2H252.637ZM254.637 922H236.577V926H254.637V922ZM238.112 922.718L153.902 821.918L150.832 824.482L235.042 925.282L238.112 922.718ZM150.367 823.2V924H154.367V823.2H150.367ZM152.367 922H129.687V926H152.367V922ZM131.687 924V781.2H127.687V924H131.687ZM129.687 783.2H147.117V779.2H129.687V783.2ZM145.575 782.474L230.625 885.374L233.708 882.826L148.658 779.926L145.575 782.474ZM234.167 884.1V781.2H230.167V884.1H234.167ZM399.132 781.2H401.132V779.2H399.132V781.2ZM399.132 801.99V803.99H401.132V801.99H399.132ZM348.522 801.99V799.99H346.522V801.99H348.522ZM348.522 924V926H350.522V924H348.522ZM326.052 924H324.052V926H326.052V924ZM326.052 801.99H328.052V799.99H326.052V801.99ZM275.442 801.99H273.442V803.99H275.442V801.99ZM275.442 781.2V779.2H273.442V781.2H275.442ZM397.132 781.2V801.99H401.132V781.2H397.132ZM399.132 799.99H348.522V803.99H399.132V799.99ZM346.522 801.99V924H350.522V801.99H346.522ZM348.522 922H326.052V926H348.522V922ZM328.052 924V801.99H324.052V924H328.052ZM326.052 799.99H275.442V803.99H326.052V799.99ZM277.442 801.99V781.2H273.442V801.99H277.442ZM275.442 783.2H399.132V779.2H275.442V783.2ZM522.352 801.99V803.99H524.352V801.99H522.352ZM442.552 801.99V799.99H440.552V801.99H442.552ZM442.552 842.94H440.552V844.94H442.552V842.94ZM513.952 842.94H515.952V840.94H513.952V842.94ZM513.952 863.73V865.73H515.952V863.73H513.952ZM442.552 863.73V861.73H440.552V863.73H442.552ZM442.552 903H440.552V905H442.552V903ZM522.352 903H524.352V901H522.352V903ZM522.352 924V926H524.352V924H522.352ZM419.872 924H417.872V926H419.872V924ZM419.872 781.2V779.2H417.872V781.2H419.872ZM522.352 781.2H524.352V779.2H522.352V781.2ZM522.352 799.99H442.552V803.99H522.352V799.99ZM440.552 801.99V842.94H444.552V801.99H440.552ZM442.552 844.94H513.952V840.94H442.552V844.94ZM511.952 842.94V863.73H515.952V842.94H511.952ZM513.952 861.73H442.552V865.73H513.952V861.73ZM440.552 863.73V903H444.552V863.73H440.552ZM442.552 905H522.352V901H442.552V905ZM520.352 903V924H524.352V903H520.352ZM522.352 922H419.872V926H522.352V922ZM421.872 924V781.2H417.872V924H421.872ZM419.872 783.2H522.352V779.2H419.872V783.2ZM520.352 781.2V801.99H524.352V781.2H520.352ZM613.82 846.51V844.51H611.82V846.51H613.82ZM686.48 846.51H688.48V844.51H686.48V846.51ZM686.48 924V926H688.48V924H686.48ZM668.63 924L666.635 924.136L666.763 926H668.63V924ZM666.95 899.43L668.946 899.294L668.516 893.002L665.241 898.391L666.95 899.43ZM685.22 829.71V831.71H687.774L687.162 829.231L685.22 829.71ZM661.07 829.71L659.173 830.342L659.629 831.71H661.07V829.71ZM661.91 867.51L663.859 867.96L664.425 865.51H661.91V867.51ZM613.82 867.51H611.82V869.51H613.82V867.51ZM613.82 848.51H686.48V844.51H613.82V848.51ZM684.48 846.51V924H688.48V846.51H684.48ZM686.48 922H668.63V926H686.48V922ZM670.626 923.864L668.946 899.294L664.955 899.566L666.635 924.136L670.626 923.864ZM665.241 898.391C655.54 914.358 639.194 924.52 615.5 924.52V928.52C640.527 928.52 658.201 917.682 668.66 900.469L665.241 898.391ZM615.5 924.52C573.975 924.52 543.58 892.655 543.58 854.07H539.58C539.58 894.865 571.766 928.52 615.5 928.52V924.52ZM543.58 854.07C543.58 810.898 576.042 780.68 616.55 780.68V776.68C573.899 776.68 539.58 808.622 539.58 854.07H543.58ZM616.55 780.68C646.703 780.68 675.144 797.246 683.279 830.189L687.162 829.231C678.496 794.134 648.137 776.68 616.55 776.68V780.68ZM685.22 827.71H661.07V831.71H685.22V827.71ZM662.968 829.078C655.259 805.951 634.321 797.68 616.97 797.68V801.68C633.22 801.68 652.182 809.369 659.173 830.342L662.968 829.078ZM616.97 797.68C585.799 797.68 562.47 820.662 562.47 854.07H566.47C566.47 822.798 588.081 801.68 616.97 801.68V797.68ZM562.47 854.07C562.47 882.597 583.86 907.31 615.5 907.31V903.31C586.24 903.31 566.47 880.563 566.47 854.07H562.47ZM615.5 907.31C628.546 907.31 639.359 903.17 647.569 896.117C655.763 889.078 661.259 879.229 663.859 867.96L659.962 867.06C657.522 877.631 652.413 886.682 644.962 893.083C637.527 899.47 627.655 903.31 615.5 903.31V907.31ZM661.91 865.51H613.82V869.51H661.91V865.51ZM615.82 867.51V846.51H611.82V867.51H615.82ZM816.613 924L815.025 925.215L815.625 926H816.613V924ZM779.653 875.7L781.241 874.485L780.641 873.7H779.653V875.7ZM746.683 875.7V873.7H744.683V875.7H746.683ZM746.683 924V926H748.683V924H746.683ZM724.003 924H722.003V926H724.003V924ZM724.003 781.2V779.2H722.003V781.2H724.003ZM804.433 872.13L803.776 870.241L801.157 871.152L802.848 873.349L804.433 872.13ZM844.333 924V926H848.395L845.918 922.781L844.333 924ZM746.683 801.99V799.99H744.683V801.99H746.683ZM746.683 854.91H744.683V856.91H746.683V854.91ZM818.201 922.785L781.241 874.485L778.065 876.915L815.025 925.215L818.201 922.785ZM779.653 873.7H746.683V877.7H779.653V873.7ZM744.683 875.7V924H748.683V875.7H744.683ZM746.683 922H724.003V926H746.683V922ZM726.003 924V781.2H722.003V924H726.003ZM724.003 783.2H781.333V779.2H724.003V783.2ZM781.333 783.2C796.92 783.2 810.189 787.711 819.526 795.567C828.831 803.396 834.353 814.645 834.353 828.45H838.353C838.353 813.485 832.326 801.109 822.101 792.506C811.907 783.929 797.667 779.2 781.333 779.2V783.2ZM834.353 828.45C834.353 848.729 822.37 863.773 803.776 870.241L805.09 874.019C825.136 867.047 838.353 850.591 838.353 828.45H834.353ZM802.848 873.349L842.748 925.219L845.918 922.781L806.018 870.911L802.848 873.349ZM844.333 922H816.613V926H844.333V922ZM744.683 801.99V854.91H748.683V801.99H744.683ZM746.683 856.91H780.493V852.91H746.683V856.91ZM780.493 856.91C790.377 856.91 799.233 854.305 805.669 849.415C812.152 844.49 816.093 837.298 816.093 828.45H812.093C812.093 835.982 808.79 842.02 803.249 846.23C797.663 850.475 789.719 852.91 780.493 852.91V856.91ZM816.093 828.45C816.093 819.602 812.152 812.41 805.669 807.485C799.233 802.595 790.377 799.99 780.493 799.99V803.99C789.719 803.99 797.663 806.425 803.249 810.67C808.79 814.88 812.093 820.918 812.093 828.45H816.093ZM780.493 799.99H746.683V803.99H780.493V799.99ZM978.448 924L976.61 924.789L977.13 926H978.448V924ZM963.748 889.77L965.585 888.981L965.065 887.77H963.748V889.77ZM894.028 889.77V887.77H892.71L892.19 888.981L894.028 889.77ZM879.328 924V926H880.645L881.165 924.789L879.328 924ZM855.178 924L853.349 923.19L852.105 926H855.178V924ZM918.388 781.2V779.2H917.086L916.559 780.39L918.388 781.2ZM939.598 781.2L941.428 780.393L940.901 779.2H939.598V781.2ZM1002.6 924V926H1005.67L1004.43 923.193L1002.6 924ZM902.428 869.61L900.59 868.82L899.391 871.61H902.428V869.61ZM955.138 869.61V871.61H958.165L956.977 868.825L955.138 869.61ZM928.888 808.08L930.727 807.295L928.895 803L927.05 807.29L928.888 808.08ZM980.285 923.211L965.585 888.981L961.91 890.559L976.61 924.789L980.285 923.211ZM963.748 887.77H894.028V891.77H963.748V887.77ZM892.19 888.981L877.49 923.211L881.165 924.789L895.865 890.559L892.19 888.981ZM879.328 922H855.178V926H879.328V922ZM857.007 924.81L920.217 782.01L916.559 780.39L853.349 923.19L857.007 924.81ZM918.388 783.2H939.598V779.2H918.388V783.2ZM937.768 782.007L1000.77 924.807L1004.43 923.193L941.428 780.393L937.768 782.007ZM1002.6 922H978.448V926H1002.6V922ZM902.428 871.61H955.138V867.61H902.428V871.61ZM956.977 868.825L930.727 807.295L927.048 808.865L953.298 870.395L956.977 868.825ZM927.05 807.29L900.59 868.82L904.265 870.4L930.725 808.87L927.05 807.29ZM1224.08 781.2H1226.08V779.2H1224.08V781.2ZM1224.08 924V926H1226.08V924H1224.08ZM1201.61 924H1199.61V926H1201.61V924ZM1201.61 830.97H1203.61V823.908L1199.91 829.921L1201.61 830.97ZM1159.19 899.85V901.85H1160.31L1160.89 900.899L1159.19 899.85ZM1145.12 899.85L1143.42 900.899L1144 901.85H1145.12V899.85ZM1102.28 830.34L1103.98 829.291L1100.25 823.231L1100.28 830.349L1102.28 830.34ZM1102.7 924V926H1104.71L1104.7 923.991L1102.7 924ZM1080.02 924H1078.02V926H1080.02V924ZM1080.02 781.2V779.2H1078.02V781.2H1080.02ZM1096.4 781.2L1098.1 780.154L1097.52 779.2H1096.4V781.2ZM1152.05 871.92L1150.34 872.966L1152.05 875.745L1153.75 872.966L1152.05 871.92ZM1207.7 781.2V779.2H1206.58L1205.99 780.154L1207.7 781.2ZM1222.08 781.2V924H1226.08V781.2H1222.08ZM1224.08 922H1201.61V926H1224.08V922ZM1203.61 924V830.97H1199.61V924H1203.61ZM1199.91 829.921L1157.49 898.801L1160.89 900.899L1203.31 832.019L1199.91 829.921ZM1159.19 897.85H1145.12V901.85H1159.19V897.85ZM1146.82 898.801L1103.98 829.291L1100.58 831.389L1143.42 900.899L1146.82 898.801ZM1100.28 830.349L1100.7 924.009L1104.7 923.991L1104.28 830.331L1100.28 830.349ZM1102.7 922H1080.02V926H1102.7V922ZM1082.02 924V781.2H1078.02V924H1082.02ZM1080.02 783.2H1096.4V779.2H1080.02V783.2ZM1094.69 782.246L1150.34 872.966L1153.75 870.874L1098.1 780.154L1094.69 782.246ZM1153.75 872.966L1209.4 782.246L1205.99 780.154L1150.34 870.874L1153.75 872.966ZM1207.7 783.2H1224.08V779.2H1207.7V783.2ZM1369.53 924L1367.69 924.789L1368.21 926H1369.53V924ZM1354.83 889.77L1356.67 888.981L1356.15 887.77H1354.83V889.77ZM1285.11 889.77V887.77H1283.79L1283.27 888.981L1285.11 889.77ZM1270.41 924V926H1271.73L1272.25 924.789L1270.41 924ZM1246.26 924L1244.43 923.19L1243.19 926H1246.26V924ZM1309.47 781.2V779.2H1308.17L1307.64 780.39L1309.47 781.2ZM1330.68 781.2L1332.51 780.393L1331.99 779.2H1330.68V781.2ZM1393.68 924V926H1396.75L1395.51 923.193L1393.68 924ZM1293.51 869.61L1291.67 868.82L1290.47 871.61H1293.51V869.61ZM1346.22 869.61V871.61H1349.25L1348.06 868.825L1346.22 869.61ZM1319.97 808.08L1321.81 807.295L1319.98 803L1318.13 807.29L1319.97 808.08ZM1371.37 923.211L1356.67 888.981L1352.99 890.559L1367.69 924.789L1371.37 923.211ZM1354.83 887.77H1285.11V891.77H1354.83V887.77ZM1283.27 888.981L1268.57 923.211L1272.25 924.789L1286.95 890.559L1283.27 888.981ZM1270.41 922H1246.26V926H1270.41V922ZM1248.09 924.81L1311.3 782.01L1307.64 780.39L1244.43 923.19L1248.09 924.81ZM1309.47 783.2H1330.68V779.2H1309.47V783.2ZM1328.85 782.007L1391.85 924.807L1395.51 923.193L1332.51 780.393L1328.85 782.007ZM1393.68 922H1369.53V926H1393.68V922ZM1293.51 871.61H1346.22V867.61H1293.51V871.61ZM1348.06 868.825L1321.81 807.295L1318.13 808.865L1344.38 870.395L1348.06 868.825ZM1318.13 807.29L1291.67 868.82L1295.35 870.4L1321.81 808.87L1318.13 807.29ZM1473.1 846.51V844.51H1471.1V846.51H1473.1ZM1545.76 846.51H1547.76V844.51H1545.76V846.51ZM1545.76 924V926H1547.76V924H1545.76ZM1527.91 924L1525.91 924.136L1526.04 926H1527.91V924ZM1526.23 899.43L1528.22 899.294L1527.79 893.002L1524.52 898.391L1526.23 899.43ZM1544.5 829.71V831.71H1547.05L1546.44 829.231L1544.5 829.71ZM1520.35 829.71L1518.45 830.342L1518.91 831.71H1520.35V829.71ZM1521.19 867.51L1523.14 867.96L1523.7 865.51H1521.19V867.51ZM1473.1 867.51H1471.1V869.51H1473.1V867.51ZM1473.1 848.51H1545.76V844.51H1473.1V848.51ZM1543.76 846.51V924H1547.76V846.51H1543.76ZM1545.76 922H1527.91V926H1545.76V922ZM1529.9 923.864L1528.22 899.294L1524.23 899.566L1525.91 924.136L1529.9 923.864ZM1524.52 898.391C1514.82 914.358 1498.47 924.52 1474.78 924.52V928.52C1499.8 928.52 1517.48 917.682 1527.94 900.469L1524.52 898.391ZM1474.78 924.52C1433.25 924.52 1402.86 892.655 1402.86 854.07H1398.86C1398.86 894.865 1431.04 928.52 1474.78 928.52V924.52ZM1402.86 854.07C1402.86 810.898 1435.32 780.68 1475.83 780.68V776.68C1433.18 776.68 1398.86 808.622 1398.86 854.07H1402.86ZM1475.83 780.68C1505.98 780.68 1534.42 797.246 1542.56 830.189L1546.44 829.231C1537.77 794.134 1507.41 776.68 1475.83 776.68V780.68ZM1544.5 827.71H1520.35V831.71H1544.5V827.71ZM1522.25 829.078C1514.54 805.951 1493.6 797.68 1476.25 797.68V801.68C1492.5 801.68 1511.46 809.369 1518.45 830.342L1522.25 829.078ZM1476.25 797.68C1445.08 797.68 1421.75 820.662 1421.75 854.07H1425.75C1425.75 822.798 1447.36 801.68 1476.25 801.68V797.68ZM1421.75 854.07C1421.75 882.597 1443.14 907.31 1474.78 907.31V903.31C1445.52 903.31 1425.75 880.563 1425.75 854.07H1421.75ZM1474.78 907.31C1487.82 907.31 1498.64 903.17 1506.85 896.117C1515.04 889.078 1520.54 879.229 1523.14 867.96L1519.24 867.06C1516.8 877.631 1511.69 886.682 1504.24 893.083C1496.8 899.47 1486.93 903.31 1474.78 903.31V907.31ZM1521.19 865.51H1473.1V869.51H1521.19V865.51ZM1475.1 867.51V846.51H1471.1V867.51H1475.1ZM1685.76 781.2V779.2H1683.76V781.2H1685.76ZM1708.23 781.2H1710.23V779.2H1708.23V781.2ZM1708.23 924V926H1710.23V924H1708.23ZM1690.17 924L1688.64 925.282L1689.24 926H1690.17V924ZM1605.96 823.2L1607.5 821.918L1603.96 817.686V823.2H1605.96ZM1605.96 924V926H1607.96V924H1605.96ZM1583.28 924H1581.28V926H1583.28V924ZM1583.28 781.2V779.2H1581.28V781.2H1583.28ZM1600.71 781.2L1602.25 779.926L1601.65 779.2H1600.71V781.2ZM1685.76 884.1L1684.22 885.374L1687.76 889.659V884.1H1685.76ZM1685.76 783.2H1708.23V779.2H1685.76V783.2ZM1706.23 781.2V924H1710.23V781.2H1706.23ZM1708.23 922H1690.17V926H1708.23V922ZM1691.71 922.718L1607.5 821.918L1604.43 824.482L1688.64 925.282L1691.71 922.718ZM1603.96 823.2V924H1607.96V823.2H1603.96ZM1605.96 922H1583.28V926H1605.96V922ZM1585.28 924V781.2H1581.28V924H1585.28ZM1583.28 783.2H1600.71V779.2H1583.28V783.2ZM1599.17 782.474L1684.22 885.374L1687.3 882.826L1602.25 779.926L1599.17 782.474ZM1687.76 884.1V781.2H1683.76V884.1H1687.76ZM1853.52 924L1851.68 924.789L1852.2 926H1853.52V924ZM1838.82 889.77L1840.65 888.981L1840.13 887.77H1838.82V889.77ZM1769.1 889.77V887.77H1767.78L1767.26 888.981L1769.1 889.77ZM1754.4 924V926H1755.71L1756.23 924.789L1754.4 924ZM1730.25 924L1728.42 923.19L1727.17 926H1730.25V924ZM1793.46 781.2V779.2H1792.15L1791.63 780.39L1793.46 781.2ZM1814.67 781.2L1816.5 780.393L1815.97 779.2H1814.67V781.2ZM1877.67 924V926H1880.73L1879.5 923.193L1877.67 924ZM1777.5 869.61L1775.66 868.82L1774.46 871.61H1777.5V869.61ZM1830.21 869.61V871.61H1833.23L1832.05 868.825L1830.21 869.61ZM1803.96 808.08L1805.8 807.295L1803.96 803L1802.12 807.29L1803.96 808.08ZM1855.35 923.211L1840.65 888.981L1836.98 890.559L1851.68 924.789L1855.35 923.211ZM1838.82 887.77H1769.1V891.77H1838.82V887.77ZM1767.26 888.981L1752.56 923.211L1756.23 924.789L1770.93 890.559L1767.26 888.981ZM1754.4 922H1730.25V926H1754.4V922ZM1732.07 924.81L1795.28 782.01L1791.63 780.39L1728.42 923.19L1732.07 924.81ZM1793.46 783.2H1814.67V779.2H1793.46V783.2ZM1812.84 782.007L1875.84 924.807L1879.5 923.193L1816.5 780.393L1812.84 782.007ZM1877.67 922H1853.52V926H1877.67V922ZM1777.5 871.61H1830.21V867.61H1777.5V871.61ZM1832.05 868.825L1805.8 807.295L1802.12 808.865L1828.37 870.395L1832.05 868.825ZM1802.12 807.29L1775.66 868.82L1779.33 870.4L1805.79 808.87L1802.12 807.29Z" fill="#808080" mask="url(#path-5-outside-3_3118_1744)"/>
</g>
<g opacity="0.8">
<mask id="path-7-outside-4_3118_1744" maskUnits="userSpaceOnUse" x="71" y="212" width="1810" height="153" fill="black">
<rect fill="white" x="71" y="212" width="1810" height="153"/>
<path d="M73.0852 217.2H95.7652V360H73.0852V217.2ZM232.167 217.2H254.637V360H236.577L152.367 259.2V360H129.687V217.2H147.117L232.167 320.1V217.2ZM399.132 217.2V237.99H348.522V360H326.052V237.99H275.442V217.2H399.132ZM522.352 237.99H442.552V278.94H513.952V299.73H442.552V339H522.352V360H419.872V217.2H522.352V237.99ZM613.82 282.51H686.48V360H668.63L666.95 335.43C656.87 352.02 639.86 362.52 615.5 362.52C572.87 362.52 541.58 329.76 541.58 290.07C541.58 245.76 574.97 214.68 616.55 214.68C647.42 214.68 676.82 231.69 685.22 265.71H661.07C653.72 243.66 633.77 235.68 616.97 235.68C586.94 235.68 564.47 257.73 564.47 290.07C564.47 317.58 585.05 341.31 615.5 341.31C640.7 341.31 656.87 325.35 661.91 303.51H613.82V282.51ZM816.613 360L779.653 311.7H746.683V360H724.003V217.2H781.333C813.253 217.2 836.353 235.68 836.353 264.45C836.353 285.66 823.753 301.41 804.433 308.13L844.333 360H816.613ZM746.683 237.99V290.91H780.493C799.603 290.91 814.093 280.83 814.093 264.45C814.093 248.07 799.603 237.99 780.493 237.99H746.683ZM978.448 360L963.748 325.77H894.028L879.328 360H855.178L918.388 217.2H939.598L1002.6 360H978.448ZM902.428 305.61H955.138L928.888 244.08L902.428 305.61ZM1224.08 217.2V360H1201.61V266.97L1159.19 335.85H1145.12L1102.28 266.34L1102.7 360H1080.02V217.2H1096.4L1152.05 307.92L1207.7 217.2H1224.08ZM1369.53 360L1354.83 325.77H1285.11L1270.41 360H1246.26L1309.47 217.2H1330.68L1393.68 360H1369.53ZM1293.51 305.61H1346.22L1319.97 244.08L1293.51 305.61ZM1473.1 282.51H1545.76V360H1527.91L1526.23 335.43C1516.15 352.02 1499.14 362.52 1474.78 362.52C1432.15 362.52 1400.86 329.76 1400.86 290.07C1400.86 245.76 1434.25 214.68 1475.83 214.68C1506.7 214.68 1536.1 231.69 1544.5 265.71H1520.35C1513 243.66 1493.05 235.68 1476.25 235.68C1446.22 235.68 1423.75 257.73 1423.75 290.07C1423.75 317.58 1444.33 341.31 1474.78 341.31C1499.98 341.31 1516.15 325.35 1521.19 303.51H1473.1V282.51ZM1685.76 217.2H1708.23V360H1690.17L1605.96 259.2V360H1583.28V217.2H1600.71L1685.76 320.1V217.2ZM1853.52 360L1838.82 325.77H1769.1L1754.4 360H1730.25L1793.46 217.2H1814.67L1877.67 360H1853.52ZM1777.5 305.61H1830.21L1803.96 244.08L1777.5 305.61Z"/>
</mask>
<path d="M73.0852 217.2V215.2H71.0852V217.2H73.0852ZM95.7652 217.2H97.7652V215.2H95.7652V217.2ZM95.7652 360V362H97.7652V360H95.7652ZM73.0852 360H71.0852V362H73.0852V360ZM73.0852 219.2H95.7652V215.2H73.0852V219.2ZM93.7652 217.2V360H97.7652V217.2H93.7652ZM95.7652 358H73.0852V362H95.7652V358ZM75.0852 360V217.2H71.0852V360H75.0852ZM232.167 217.2V215.2H230.167V217.2H232.167ZM254.637 217.2H256.637V215.2H254.637V217.2ZM254.637 360V362H256.637V360H254.637ZM236.577 360L235.042 361.282L235.642 362H236.577V360ZM152.367 259.2L153.902 257.918L150.367 253.686V259.2H152.367ZM152.367 360V362H154.367V360H152.367ZM129.687 360H127.687V362H129.687V360ZM129.687 217.2V215.2H127.687V217.2H129.687ZM147.117 217.2L148.658 215.926L148.058 215.2H147.117V217.2ZM232.167 320.1L230.625 321.374L234.167 325.659V320.1H232.167ZM232.167 219.2H254.637V215.2H232.167V219.2ZM252.637 217.2V360H256.637V217.2H252.637ZM254.637 358H236.577V362H254.637V358ZM238.112 358.718L153.902 257.918L150.832 260.482L235.042 361.282L238.112 358.718ZM150.367 259.2V360H154.367V259.2H150.367ZM152.367 358H129.687V362H152.367V358ZM131.687 360V217.2H127.687V360H131.687ZM129.687 219.2H147.117V215.2H129.687V219.2ZM145.575 218.474L230.625 321.374L233.708 318.826L148.658 215.926L145.575 218.474ZM234.167 320.1V217.2H230.167V320.1H234.167ZM399.132 217.2H401.132V215.2H399.132V217.2ZM399.132 237.99V239.99H401.132V237.99H399.132ZM348.522 237.99V235.99H346.522V237.99H348.522ZM348.522 360V362H350.522V360H348.522ZM326.052 360H324.052V362H326.052V360ZM326.052 237.99H328.052V235.99H326.052V237.99ZM275.442 237.99H273.442V239.99H275.442V237.99ZM275.442 217.2V215.2H273.442V217.2H275.442ZM397.132 217.2V237.99H401.132V217.2H397.132ZM399.132 235.99H348.522V239.99H399.132V235.99ZM346.522 237.99V360H350.522V237.99H346.522ZM348.522 358H326.052V362H348.522V358ZM328.052 360V237.99H324.052V360H328.052ZM326.052 235.99H275.442V239.99H326.052V235.99ZM277.442 237.99V217.2H273.442V237.99H277.442ZM275.442 219.2H399.132V215.2H275.442V219.2ZM522.352 237.99V239.99H524.352V237.99H522.352ZM442.552 237.99V235.99H440.552V237.99H442.552ZM442.552 278.94H440.552V280.94H442.552V278.94ZM513.952 278.94H515.952V276.94H513.952V278.94ZM513.952 299.73V301.73H515.952V299.73H513.952ZM442.552 299.73V297.73H440.552V299.73H442.552ZM442.552 339H440.552V341H442.552V339ZM522.352 339H524.352V337H522.352V339ZM522.352 360V362H524.352V360H522.352ZM419.872 360H417.872V362H419.872V360ZM419.872 217.2V215.2H417.872V217.2H419.872ZM522.352 217.2H524.352V215.2H522.352V217.2ZM522.352 235.99H442.552V239.99H522.352V235.99ZM440.552 237.99V278.94H444.552V237.99H440.552ZM442.552 280.94H513.952V276.94H442.552V280.94ZM511.952 278.94V299.73H515.952V278.94H511.952ZM513.952 297.73H442.552V301.73H513.952V297.73ZM440.552 299.73V339H444.552V299.73H440.552ZM442.552 341H522.352V337H442.552V341ZM520.352 339V360H524.352V339H520.352ZM522.352 358H419.872V362H522.352V358ZM421.872 360V217.2H417.872V360H421.872ZM419.872 219.2H522.352V215.2H419.872V219.2ZM520.352 217.2V237.99H524.352V217.2H520.352ZM613.82 282.51V280.51H611.82V282.51H613.82ZM686.48 282.51H688.48V280.51H686.48V282.51ZM686.48 360V362H688.48V360H686.48ZM668.63 360L666.635 360.136L666.763 362H668.63V360ZM666.95 335.43L668.946 335.294L668.516 329.002L665.241 334.391L666.95 335.43ZM685.22 265.71V267.71H687.774L687.162 265.231L685.22 265.71ZM661.07 265.71L659.173 266.342L659.629 267.71H661.07V265.71ZM661.91 303.51L663.859 303.96L664.425 301.51H661.91V303.51ZM613.82 303.51H611.82V305.51H613.82V303.51ZM613.82 284.51H686.48V280.51H613.82V284.51ZM684.48 282.51V360H688.48V282.51H684.48ZM686.48 358H668.63V362H686.48V358ZM670.626 359.864L668.946 335.294L664.955 335.566L666.635 360.136L670.626 359.864ZM665.241 334.391C655.54 350.358 639.194 360.52 615.5 360.52V364.52C640.527 364.52 658.201 353.682 668.66 336.469L665.241 334.391ZM615.5 360.52C573.975 360.52 543.58 328.655 543.58 290.07H539.58C539.58 330.865 571.766 364.52 615.5 364.52V360.52ZM543.58 290.07C543.58 246.898 576.042 216.68 616.55 216.68V212.68C573.899 212.68 539.58 244.622 539.58 290.07H543.58ZM616.55 216.68C646.703 216.68 675.144 233.246 683.279 266.189L687.162 265.231C678.496 230.134 648.137 212.68 616.55 212.68V216.68ZM685.22 263.71H661.07V267.71H685.22V263.71ZM662.968 265.078C655.259 241.951 634.321 233.68 616.97 233.68V237.68C633.22 237.68 652.182 245.369 659.173 266.342L662.968 265.078ZM616.97 233.68C585.799 233.68 562.47 256.662 562.47 290.07H566.47C566.47 258.798 588.081 237.68 616.97 237.68V233.68ZM562.47 290.07C562.47 318.597 583.86 343.31 615.5 343.31V339.31C586.24 339.31 566.47 316.563 566.47 290.07H562.47ZM615.5 343.31C628.546 343.31 639.359 339.17 647.569 332.117C655.763 325.078 661.259 315.229 663.859 303.96L659.962 303.06C657.522 313.631 652.413 322.682 644.962 329.083C637.527 335.47 627.655 339.31 615.5 339.31V343.31ZM661.91 301.51H613.82V305.51H661.91V301.51ZM615.82 303.51V282.51H611.82V303.51H615.82ZM816.613 360L815.025 361.215L815.625 362H816.613V360ZM779.653 311.7L781.241 310.485L780.641 309.7H779.653V311.7ZM746.683 311.7V309.7H744.683V311.7H746.683ZM746.683 360V362H748.683V360H746.683ZM724.003 360H722.003V362H724.003V360ZM724.003 217.2V215.2H722.003V217.2H724.003ZM804.433 308.13L803.776 306.241L801.157 307.152L802.848 309.349L804.433 308.13ZM844.333 360V362H848.395L845.918 358.781L844.333 360ZM746.683 237.99V235.99H744.683V237.99H746.683ZM746.683 290.91H744.683V292.91H746.683V290.91ZM818.201 358.785L781.241 310.485L778.065 312.915L815.025 361.215L818.201 358.785ZM779.653 309.7H746.683V313.7H779.653V309.7ZM744.683 311.7V360H748.683V311.7H744.683ZM746.683 358H724.003V362H746.683V358ZM726.003 360V217.2H722.003V360H726.003ZM724.003 219.2H781.333V215.2H724.003V219.2ZM781.333 219.2C796.92 219.2 810.189 223.711 819.526 231.567C828.831 239.396 834.353 250.645 834.353 264.45H838.353C838.353 249.485 832.326 237.109 822.101 228.506C811.907 219.929 797.667 215.2 781.333 215.2V219.2ZM834.353 264.45C834.353 284.729 822.37 299.773 803.776 306.241L805.09 310.019C825.136 303.047 838.353 286.591 838.353 264.45H834.353ZM802.848 309.349L842.748 361.219L845.918 358.781L806.018 306.911L802.848 309.349ZM844.333 358H816.613V362H844.333V358ZM744.683 237.99V290.91H748.683V237.99H744.683ZM746.683 292.91H780.493V288.91H746.683V292.91ZM780.493 292.91C790.377 292.91 799.233 290.305 805.669 285.415C812.152 280.49 816.093 273.298 816.093 264.45H812.093C812.093 271.982 808.79 278.02 803.249 282.23C797.663 286.475 789.719 288.91 780.493 288.91V292.91ZM816.093 264.45C816.093 255.602 812.152 248.41 805.669 243.485C799.233 238.595 790.377 235.99 780.493 235.99V239.99C789.719 239.99 797.663 242.425 803.249 246.67C808.79 250.88 812.093 256.918 812.093 264.45H816.093ZM780.493 235.99H746.683V239.99H780.493V235.99ZM978.448 360L976.61 360.789L977.13 362H978.448V360ZM963.748 325.77L965.585 324.981L965.065 323.77H963.748V325.77ZM894.028 325.77V323.77H892.71L892.19 324.981L894.028 325.77ZM879.328 360V362H880.645L881.165 360.789L879.328 360ZM855.178 360L853.349 359.19L852.105 362H855.178V360ZM918.388 217.2V215.2H917.086L916.559 216.39L918.388 217.2ZM939.598 217.2L941.428 216.393L940.901 215.2H939.598V217.2ZM1002.6 360V362H1005.67L1004.43 359.193L1002.6 360ZM902.428 305.61L900.59 304.82L899.391 307.61H902.428V305.61ZM955.138 305.61V307.61H958.165L956.977 304.825L955.138 305.61ZM928.888 244.08L930.727 243.295L928.895 239L927.05 243.29L928.888 244.08ZM980.285 359.211L965.585 324.981L961.91 326.559L976.61 360.789L980.285 359.211ZM963.748 323.77H894.028V327.77H963.748V323.77ZM892.19 324.981L877.49 359.211L881.165 360.789L895.865 326.559L892.19 324.981ZM879.328 358H855.178V362H879.328V358ZM857.007 360.81L920.217 218.01L916.559 216.39L853.349 359.19L857.007 360.81ZM918.388 219.2H939.598V215.2H918.388V219.2ZM937.768 218.007L1000.77 360.807L1004.43 359.193L941.428 216.393L937.768 218.007ZM1002.6 358H978.448V362H1002.6V358ZM902.428 307.61H955.138V303.61H902.428V307.61ZM956.977 304.825L930.727 243.295L927.048 244.865L953.298 306.395L956.977 304.825ZM927.05 243.29L900.59 304.82L904.265 306.4L930.725 244.87L927.05 243.29ZM1224.08 217.2H1226.08V215.2H1224.08V217.2ZM1224.08 360V362H1226.08V360H1224.08ZM1201.61 360H1199.61V362H1201.61V360ZM1201.61 266.97H1203.61V259.908L1199.91 265.921L1201.61 266.97ZM1159.19 335.85V337.85H1160.31L1160.89 336.899L1159.19 335.85ZM1145.12 335.85L1143.42 336.899L1144 337.85H1145.12V335.85ZM1102.28 266.34L1103.98 265.291L1100.25 259.231L1100.28 266.349L1102.28 266.34ZM1102.7 360V362H1104.71L1104.7 359.991L1102.7 360ZM1080.02 360H1078.02V362H1080.02V360ZM1080.02 217.2V215.2H1078.02V217.2H1080.02ZM1096.4 217.2L1098.1 216.154L1097.52 215.2H1096.4V217.2ZM1152.05 307.92L1150.34 308.966L1152.05 311.745L1153.75 308.966L1152.05 307.92ZM1207.7 217.2V215.2H1206.58L1205.99 216.154L1207.7 217.2ZM1222.08 217.2V360H1226.08V217.2H1222.08ZM1224.08 358H1201.61V362H1224.08V358ZM1203.61 360V266.97H1199.61V360H1203.61ZM1199.91 265.921L1157.49 334.801L1160.89 336.899L1203.31 268.019L1199.91 265.921ZM1159.19 333.85H1145.12V337.85H1159.19V333.85ZM1146.82 334.801L1103.98 265.291L1100.58 267.389L1143.42 336.899L1146.82 334.801ZM1100.28 266.349L1100.7 360.009L1104.7 359.991L1104.28 266.331L1100.28 266.349ZM1102.7 358H1080.02V362H1102.7V358ZM1082.02 360V217.2H1078.02V360H1082.02ZM1080.02 219.2H1096.4V215.2H1080.02V219.2ZM1094.69 218.246L1150.34 308.966L1153.75 306.874L1098.1 216.154L1094.69 218.246ZM1153.75 308.966L1209.4 218.246L1205.99 216.154L1150.34 306.874L1153.75 308.966ZM1207.7 219.2H1224.08V215.2H1207.7V219.2ZM1369.53 360L1367.69 360.789L1368.21 362H1369.53V360ZM1354.83 325.77L1356.67 324.981L1356.15 323.77H1354.83V325.77ZM1285.11 325.77V323.77H1283.79L1283.27 324.981L1285.11 325.77ZM1270.41 360V362H1271.73L1272.25 360.789L1270.41 360ZM1246.26 360L1244.43 359.19L1243.19 362H1246.26V360ZM1309.47 217.2V215.2H1308.17L1307.64 216.39L1309.47 217.2ZM1330.68 217.2L1332.51 216.393L1331.99 215.2H1330.68V217.2ZM1393.68 360V362H1396.75L1395.51 359.193L1393.68 360ZM1293.51 305.61L1291.67 304.82L1290.47 307.61H1293.51V305.61ZM1346.22 305.61V307.61H1349.25L1348.06 304.825L1346.22 305.61ZM1319.97 244.08L1321.81 243.295L1319.98 239L1318.13 243.29L1319.97 244.08ZM1371.37 359.211L1356.67 324.981L1352.99 326.559L1367.69 360.789L1371.37 359.211ZM1354.83 323.77H1285.11V327.77H1354.83V323.77ZM1283.27 324.981L1268.57 359.211L1272.25 360.789L1286.95 326.559L1283.27 324.981ZM1270.41 358H1246.26V362H1270.41V358ZM1248.09 360.81L1311.3 218.01L1307.64 216.39L1244.43 359.19L1248.09 360.81ZM1309.47 219.2H1330.68V215.2H1309.47V219.2ZM1328.85 218.007L1391.85 360.807L1395.51 359.193L1332.51 216.393L1328.85 218.007ZM1393.68 358H1369.53V362H1393.68V358ZM1293.51 307.61H1346.22V303.61H1293.51V307.61ZM1348.06 304.825L1321.81 243.295L1318.13 244.865L1344.38 306.395L1348.06 304.825ZM1318.13 243.29L1291.67 304.82L1295.35 306.4L1321.81 244.87L1318.13 243.29ZM1473.1 282.51V280.51H1471.1V282.51H1473.1ZM1545.76 282.51H1547.76V280.51H1545.76V282.51ZM1545.76 360V362H1547.76V360H1545.76ZM1527.91 360L1525.91 360.136L1526.04 362H1527.91V360ZM1526.23 335.43L1528.22 335.294L1527.79 329.002L1524.52 334.391L1526.23 335.43ZM1544.5 265.71V267.71H1547.05L1546.44 265.231L1544.5 265.71ZM1520.35 265.71L1518.45 266.342L1518.91 267.71H1520.35V265.71ZM1521.19 303.51L1523.14 303.96L1523.7 301.51H1521.19V303.51ZM1473.1 303.51H1471.1V305.51H1473.1V303.51ZM1473.1 284.51H1545.76V280.51H1473.1V284.51ZM1543.76 282.51V360H1547.76V282.51H1543.76ZM1545.76 358H1527.91V362H1545.76V358ZM1529.9 359.864L1528.22 335.294L1524.23 335.566L1525.91 360.136L1529.9 359.864ZM1524.52 334.391C1514.82 350.358 1498.47 360.52 1474.78 360.52V364.52C1499.8 364.52 1517.48 353.682 1527.94 336.469L1524.52 334.391ZM1474.78 360.52C1433.25 360.52 1402.86 328.655 1402.86 290.07H1398.86C1398.86 330.865 1431.04 364.52 1474.78 364.52V360.52ZM1402.86 290.07C1402.86 246.898 1435.32 216.68 1475.83 216.68V212.68C1433.18 212.68 1398.86 244.622 1398.86 290.07H1402.86ZM1475.83 216.68C1505.98 216.68 1534.42 233.246 1542.56 266.189L1546.44 265.231C1537.77 230.134 1507.41 212.68 1475.83 212.68V216.68ZM1544.5 263.71H1520.35V267.71H1544.5V263.71ZM1522.25 265.078C1514.54 241.951 1493.6 233.68 1476.25 233.68V237.68C1492.5 237.68 1511.46 245.369 1518.45 266.342L1522.25 265.078ZM1476.25 233.68C1445.08 233.68 1421.75 256.662 1421.75 290.07H1425.75C1425.75 258.798 1447.36 237.68 1476.25 237.68V233.68ZM1421.75 290.07C1421.75 318.597 1443.14 343.31 1474.78 343.31V339.31C1445.52 339.31 1425.75 316.563 1425.75 290.07H1421.75ZM1474.78 343.31C1487.82 343.31 1498.64 339.17 1506.85 332.117C1515.04 325.078 1520.54 315.229 1523.14 303.96L1519.24 303.06C1516.8 313.631 1511.69 322.682 1504.24 329.083C1496.8 335.47 1486.93 339.31 1474.78 339.31V343.31ZM1521.19 301.51H1473.1V305.51H1521.19V301.51ZM1475.1 303.51V282.51H1471.1V303.51H1475.1ZM1685.76 217.2V215.2H1683.76V217.2H1685.76ZM1708.23 217.2H1710.23V215.2H1708.23V217.2ZM1708.23 360V362H1710.23V360H1708.23ZM1690.17 360L1688.64 361.282L1689.24 362H1690.17V360ZM1605.96 259.2L1607.5 257.918L1603.96 253.686V259.2H1605.96ZM1605.96 360V362H1607.96V360H1605.96ZM1583.28 360H1581.28V362H1583.28V360ZM1583.28 217.2V215.2H1581.28V217.2H1583.28ZM1600.71 217.2L1602.25 215.926L1601.65 215.2H1600.71V217.2ZM1685.76 320.1L1684.22 321.374L1687.76 325.659V320.1H1685.76ZM1685.76 219.2H1708.23V215.2H1685.76V219.2ZM1706.23 217.2V360H1710.23V217.2H1706.23ZM1708.23 358H1690.17V362H1708.23V358ZM1691.71 358.718L1607.5 257.918L1604.43 260.482L1688.64 361.282L1691.71 358.718ZM1603.96 259.2V360H1607.96V259.2H1603.96ZM1605.96 358H1583.28V362H1605.96V358ZM1585.28 360V217.2H1581.28V360H1585.28ZM1583.28 219.2H1600.71V215.2H1583.28V219.2ZM1599.17 218.474L1684.22 321.374L1687.3 318.826L1602.25 215.926L1599.17 218.474ZM1687.76 320.1V217.2H1683.76V320.1H1687.76ZM1853.52 360L1851.68 360.789L1852.2 362H1853.52V360ZM1838.82 325.77L1840.65 324.981L1840.13 323.77H1838.82V325.77ZM1769.1 325.77V323.77H1767.78L1767.26 324.981L1769.1 325.77ZM1754.4 360V362H1755.71L1756.23 360.789L1754.4 360ZM1730.25 360L1728.42 359.19L1727.17 362H1730.25V360ZM1793.46 217.2V215.2H1792.15L1791.63 216.39L1793.46 217.2ZM1814.67 217.2L1816.5 216.393L1815.97 215.2H1814.67V217.2ZM1877.67 360V362H1880.73L1879.5 359.193L1877.67 360ZM1777.5 305.61L1775.66 304.82L1774.46 307.61H1777.5V305.61ZM1830.21 305.61V307.61H1833.23L1832.05 304.825L1830.21 305.61ZM1803.96 244.08L1805.8 243.295L1803.96 239L1802.12 243.29L1803.96 244.08ZM1855.35 359.211L1840.65 324.981L1836.98 326.559L1851.68 360.789L1855.35 359.211ZM1838.82 323.77H1769.1V327.77H1838.82V323.77ZM1767.26 324.981L1752.56 359.211L1756.23 360.789L1770.93 326.559L1767.26 324.981ZM1754.4 358H1730.25V362H1754.4V358ZM1732.07 360.81L1795.28 218.01L1791.63 216.39L1728.42 359.19L1732.07 360.81ZM1793.46 219.2H1814.67V215.2H1793.46V219.2ZM1812.84 218.007L1875.84 360.807L1879.5 359.193L1816.5 216.393L1812.84 218.007ZM1877.67 358H1853.52V362H1877.67V358ZM1777.5 307.61H1830.21V303.61H1777.5V307.61ZM1832.05 304.825L1805.8 243.295L1802.12 244.865L1828.37 306.395L1832.05 304.825ZM1802.12 243.29L1775.66 304.82L1779.33 306.4L1805.79 244.87L1802.12 243.29Z" fill="#808080" mask="url(#path-7-outside-4_3118_1744)"/>
</g>
<mask id="path-9-outside-5_3118_1744" maskUnits="userSpaceOnUse" x="71" y="24" width="1810" height="153" fill="black">
<rect fill="white" x="71" y="24" width="1810" height="153"/>
<path d="M73.0852 29.2H95.7652V172H73.0852V29.2ZM232.167 29.2H254.637V172H236.577L152.367 71.2V172H129.687V29.2H147.117L232.167 132.1V29.2ZM399.132 29.2V49.99H348.522V172H326.052V49.99H275.442V29.2H399.132ZM522.352 49.99H442.552V90.94H513.952V111.73H442.552V151H522.352V172H419.872V29.2H522.352V49.99ZM613.82 94.51H686.48V172H668.63L666.95 147.43C656.87 164.02 639.86 174.52 615.5 174.52C572.87 174.52 541.58 141.76 541.58 102.07C541.58 57.76 574.97 26.68 616.55 26.68C647.42 26.68 676.82 43.69 685.22 77.71H661.07C653.72 55.66 633.77 47.68 616.97 47.68C586.94 47.68 564.47 69.73 564.47 102.07C564.47 129.58 585.05 153.31 615.5 153.31C640.7 153.31 656.87 137.35 661.91 115.51H613.82V94.51ZM816.613 172L779.653 123.7H746.683V172H724.003V29.2H781.333C813.253 29.2 836.353 47.68 836.353 76.45C836.353 97.66 823.753 113.41 804.433 120.13L844.333 172H816.613ZM746.683 49.99V102.91H780.493C799.603 102.91 814.093 92.83 814.093 76.45C814.093 60.07 799.603 49.99 780.493 49.99H746.683ZM978.448 172L963.748 137.77H894.028L879.328 172H855.178L918.388 29.2H939.598L1002.6 172H978.448ZM902.428 117.61H955.138L928.888 56.08L902.428 117.61ZM1224.08 29.2V172H1201.61V78.97L1159.19 147.85H1145.12L1102.28 78.34L1102.7 172H1080.02V29.2H1096.4L1152.05 119.92L1207.7 29.2H1224.08ZM1369.53 172L1354.83 137.77H1285.11L1270.41 172H1246.26L1309.47 29.2H1330.68L1393.68 172H1369.53ZM1293.51 117.61H1346.22L1319.97 56.08L1293.51 117.61ZM1473.1 94.51H1545.76V172H1527.91L1526.23 147.43C1516.15 164.02 1499.14 174.52 1474.78 174.52C1432.15 174.52 1400.86 141.76 1400.86 102.07C1400.86 57.76 1434.25 26.68 1475.83 26.68C1506.7 26.68 1536.1 43.69 1544.5 77.71H1520.35C1513 55.66 1493.05 47.68 1476.25 47.68C1446.22 47.68 1423.75 69.73 1423.75 102.07C1423.75 129.58 1444.33 153.31 1474.78 153.31C1499.98 153.31 1516.15 137.35 1521.19 115.51H1473.1V94.51ZM1685.76 29.2H1708.23V172H1690.17L1605.96 71.2V172H1583.28V29.2H1600.71L1685.76 132.1V29.2ZM1853.52 172L1838.82 137.77H1769.1L1754.4 172H1730.25L1793.46 29.2H1814.67L1877.67 172H1853.52ZM1777.5 117.61H1830.21L1803.96 56.08L1777.5 117.61Z"/>
</mask>
<path d="M73.0852 29.2V27.2H71.0852V29.2H73.0852ZM95.7652 29.2H97.7652V27.2H95.7652V29.2ZM95.7652 172V174H97.7652V172H95.7652ZM73.0852 172H71.0852V174H73.0852V172ZM73.0852 31.2H95.7652V27.2H73.0852V31.2ZM93.7652 29.2V172H97.7652V29.2H93.7652ZM95.7652 170H73.0852V174H95.7652V170ZM75.0852 172V29.2H71.0852V172H75.0852ZM232.167 29.2V27.2H230.167V29.2H232.167ZM254.637 29.2H256.637V27.2H254.637V29.2ZM254.637 172V174H256.637V172H254.637ZM236.577 172L235.042 173.282L235.642 174H236.577V172ZM152.367 71.2L153.902 69.9177L150.367 65.6865V71.2H152.367ZM152.367 172V174H154.367V172H152.367ZM129.687 172H127.687V174H129.687V172ZM129.687 29.2V27.2H127.687V29.2H129.687ZM147.117 29.2L148.658 27.9258L148.058 27.2H147.117V29.2ZM232.167 132.1L230.625 133.374L234.167 137.659V132.1H232.167ZM232.167 31.2H254.637V27.2H232.167V31.2ZM252.637 29.2V172H256.637V29.2H252.637ZM254.637 170H236.577V174H254.637V170ZM238.112 170.718L153.902 69.9177L150.832 72.4823L235.042 173.282L238.112 170.718ZM150.367 71.2V172H154.367V71.2H150.367ZM152.367 170H129.687V174H152.367V170ZM131.687 172V29.2H127.687V172H131.687ZM129.687 31.2H147.117V27.2H129.687V31.2ZM145.575 30.4742L230.625 133.374L233.708 130.826L148.658 27.9258L145.575 30.4742ZM234.167 132.1V29.2H230.167V132.1H234.167ZM399.132 29.2H401.132V27.2H399.132V29.2ZM399.132 49.99V51.99H401.132V49.99H399.132ZM348.522 49.99V47.99H346.522V49.99H348.522ZM348.522 172V174H350.522V172H348.522ZM326.052 172H324.052V174H326.052V172ZM326.052 49.99H328.052V47.99H326.052V49.99ZM275.442 49.99H273.442V51.99H275.442V49.99ZM275.442 29.2V27.2H273.442V29.2H275.442ZM397.132 29.2V49.99H401.132V29.2H397.132ZM399.132 47.99H348.522V51.99H399.132V47.99ZM346.522 49.99V172H350.522V49.99H346.522ZM348.522 170H326.052V174H348.522V170ZM328.052 172V49.99H324.052V172H328.052ZM326.052 47.99H275.442V51.99H326.052V47.99ZM277.442 49.99V29.2H273.442V49.99H277.442ZM275.442 31.2H399.132V27.2H275.442V31.2ZM522.352 49.99V51.99H524.352V49.99H522.352ZM442.552 49.99V47.99H440.552V49.99H442.552ZM442.552 90.94H440.552V92.94H442.552V90.94ZM513.952 90.94H515.952V88.94H513.952V90.94ZM513.952 111.73V113.73H515.952V111.73H513.952ZM442.552 111.73V109.73H440.552V111.73H442.552ZM442.552 151H440.552V153H442.552V151ZM522.352 151H524.352V149H522.352V151ZM522.352 172V174H524.352V172H522.352ZM419.872 172H417.872V174H419.872V172ZM419.872 29.2V27.2H417.872V29.2H419.872ZM522.352 29.2H524.352V27.2H522.352V29.2ZM522.352 47.99H442.552V51.99H522.352V47.99ZM440.552 49.99V90.94H444.552V49.99H440.552ZM442.552 92.94H513.952V88.94H442.552V92.94ZM511.952 90.94V111.73H515.952V90.94H511.952ZM513.952 109.73H442.552V113.73H513.952V109.73ZM440.552 111.73V151H444.552V111.73H440.552ZM442.552 153H522.352V149H442.552V153ZM520.352 151V172H524.352V151H520.352ZM522.352 170H419.872V174H522.352V170ZM421.872 172V29.2H417.872V172H421.872ZM419.872 31.2H522.352V27.2H419.872V31.2ZM520.352 29.2V49.99H524.352V29.2H520.352ZM613.82 94.51V92.51H611.82V94.51H613.82ZM686.48 94.51H688.48V92.51H686.48V94.51ZM686.48 172V174H688.48V172H686.48ZM668.63 172L666.635 172.136L666.763 174H668.63V172ZM666.95 147.43L668.946 147.294L668.516 141.002L665.241 146.391L666.95 147.43ZM685.22 77.71V79.71H687.774L687.162 77.2306L685.22 77.71ZM661.07 77.71L659.173 78.3424L659.629 79.71H661.07V77.71ZM661.91 115.51L663.859 115.96L664.425 113.51H661.91V115.51ZM613.82 115.51H611.82V117.51H613.82V115.51ZM613.82 96.51H686.48V92.51H613.82V96.51ZM684.48 94.51V172H688.48V94.51H684.48ZM686.48 170H668.63V174H686.48V170ZM670.626 171.864L668.946 147.294L664.955 147.566L666.635 172.136L670.626 171.864ZM665.241 146.391C655.54 162.358 639.194 172.52 615.5 172.52V176.52C640.527 176.52 658.201 165.682 668.66 148.469L665.241 146.391ZM615.5 172.52C573.975 172.52 543.58 140.655 543.58 102.07H539.58C539.58 142.865 571.766 176.52 615.5 176.52V172.52ZM543.58 102.07C543.58 58.8976 576.042 28.68 616.55 28.68V24.68C573.899 24.68 539.58 56.6224 539.58 102.07H543.58ZM616.55 28.68C646.703 28.68 675.144 45.2455 683.279 78.1894L687.162 77.2306C678.496 42.1345 648.137 24.68 616.55 24.68V28.68ZM685.22 75.71H661.07V79.71H685.22V75.71ZM662.968 77.0775C655.259 53.951 634.321 45.68 616.97 45.68V49.68C633.22 49.68 652.182 57.369 659.173 78.3424L662.968 77.0775ZM616.97 45.68C585.799 45.68 562.47 68.6622 562.47 102.07H566.47C566.47 70.7978 588.081 49.68 616.97 49.68V45.68ZM562.47 102.07C562.47 130.597 583.86 155.31 615.5 155.31V151.31C586.24 151.31 566.47 128.563 566.47 102.07H562.47ZM615.5 155.31C628.546 155.31 639.359 151.17 647.569 144.117C655.763 137.078 661.259 127.229 663.859 115.96L659.962 115.06C657.522 125.631 652.413 134.682 644.962 141.083C637.527 147.47 627.655 151.31 615.5 151.31V155.31ZM661.91 113.51H613.82V117.51H661.91V113.51ZM615.82 115.51V94.51H611.82V115.51H615.82ZM816.613 172L815.025 173.215L815.625 174H816.613V172ZM779.653 123.7L781.241 122.485L780.641 121.7H779.653V123.7ZM746.683 123.7V121.7H744.683V123.7H746.683ZM746.683 172V174H748.683V172H746.683ZM724.003 172H722.003V174H724.003V172ZM724.003 29.2V27.2H722.003V29.2H724.003ZM804.433 120.13L803.776 118.241L801.157 119.152L802.848 121.349L804.433 120.13ZM844.333 172V174H848.395L845.918 170.781L844.333 172ZM746.683 49.99V47.99H744.683V49.99H746.683ZM746.683 102.91H744.683V104.91H746.683V102.91ZM818.201 170.785L781.241 122.485L778.065 124.915L815.025 173.215L818.201 170.785ZM779.653 121.7H746.683V125.7H779.653V121.7ZM744.683 123.7V172H748.683V123.7H744.683ZM746.683 170H724.003V174H746.683V170ZM726.003 172V29.2H722.003V172H726.003ZM724.003 31.2H781.333V27.2H724.003V31.2ZM781.333 31.2C796.92 31.2 810.189 35.711 819.526 43.5666C828.831 51.396 834.353 62.6446 834.353 76.45H838.353C838.353 61.4854 832.326 49.109 822.101 40.5059C811.907 31.929 797.667 27.2 781.333 27.2V31.2ZM834.353 76.45C834.353 96.7286 822.37 111.773 803.776 118.241L805.09 122.019C825.136 115.047 838.353 98.5914 838.353 76.45H834.353ZM802.848 121.349L842.748 173.219L845.918 170.781L806.018 118.911L802.848 121.349ZM844.333 170H816.613V174H844.333V170ZM744.683 49.99V102.91H748.683V49.99H744.683ZM746.683 104.91H780.493V100.91H746.683V104.91ZM780.493 104.91C790.377 104.91 799.233 102.305 805.669 97.415C812.152 92.4896 816.093 85.298 816.093 76.45H812.093C812.093 83.982 808.79 90.0204 803.249 94.23C797.663 98.4746 789.719 100.91 780.493 100.91V104.91ZM816.093 76.45C816.093 67.602 812.152 60.4104 805.669 55.485C799.233 50.5946 790.377 47.99 780.493 47.99V51.99C789.719 51.99 797.663 54.4253 803.249 58.67C808.79 62.8796 812.093 68.918 812.093 76.45H816.093ZM780.493 47.99H746.683V51.99H780.493V47.99ZM978.448 172L976.61 172.789L977.13 174H978.448V172ZM963.748 137.77L965.585 136.981L965.065 135.77H963.748V137.77ZM894.028 137.77V135.77H892.71L892.19 136.981L894.028 137.77ZM879.328 172V174H880.645L881.165 172.789L879.328 172ZM855.178 172L853.349 171.19L852.105 174H855.178V172ZM918.388 29.2V27.2H917.086L916.559 28.3905L918.388 29.2ZM939.598 29.2L941.428 28.3927L940.901 27.2H939.598V29.2ZM1002.6 172V174H1005.67L1004.43 171.193L1002.6 172ZM902.428 117.61L900.59 116.82L899.391 119.61H902.428V117.61ZM955.138 117.61V119.61H958.165L956.977 116.825L955.138 117.61ZM928.888 56.08L930.727 55.2952L928.895 51.0004L927.05 55.2899L928.888 56.08ZM980.285 171.211L965.585 136.981L961.91 138.559L976.61 172.789L980.285 171.211ZM963.748 135.77H894.028V139.77H963.748V135.77ZM892.19 136.981L877.49 171.211L881.165 172.789L895.865 138.559L892.19 136.981ZM879.328 170H855.178V174H879.328V170ZM857.007 172.81L920.217 30.0095L916.559 28.3905L853.349 171.19L857.007 172.81ZM918.388 31.2H939.598V27.2H918.388V31.2ZM937.768 30.0073L1000.77 172.807L1004.43 171.193L941.428 28.3927L937.768 30.0073ZM1002.6 170H978.448V174H1002.6V170ZM902.428 119.61H955.138V115.61H902.428V119.61ZM956.977 116.825L930.727 55.2952L927.048 56.8648L953.298 118.395L956.977 116.825ZM927.05 55.2899L900.59 116.82L904.265 118.4L930.725 56.8701L927.05 55.2899ZM1224.08 29.2H1226.08V27.2H1224.08V29.2ZM1224.08 172V174H1226.08V172H1224.08ZM1201.61 172H1199.61V174H1201.61V172ZM1201.61 78.97H1203.61V71.9085L1199.91 77.9212L1201.61 78.97ZM1159.19 147.85V149.85H1160.31L1160.89 148.899L1159.19 147.85ZM1145.12 147.85L1143.42 148.899L1144 149.85H1145.12V147.85ZM1102.28 78.34L1103.98 77.2907L1100.25 71.2312L1100.28 78.349L1102.28 78.34ZM1102.7 172V174H1104.71L1104.7 171.991L1102.7 172ZM1080.02 172H1078.02V174H1080.02V172ZM1080.02 29.2V27.2H1078.02V29.2H1080.02ZM1096.4 29.2L1098.1 28.1542L1097.52 27.2H1096.4V29.2ZM1152.05 119.92L1150.34 120.966L1152.05 123.745L1153.75 120.966L1152.05 119.92ZM1207.7 29.2V27.2H1206.58L1205.99 28.1542L1207.7 29.2ZM1222.08 29.2V172H1226.08V29.2H1222.08ZM1224.08 170H1201.61V174H1224.08V170ZM1203.61 172V78.97H1199.61V172H1203.61ZM1199.91 77.9212L1157.49 146.801L1160.89 148.899L1203.31 80.0188L1199.91 77.9212ZM1159.19 145.85H1145.12V149.85H1159.19V145.85ZM1146.82 146.801L1103.98 77.2907L1100.58 79.3893L1143.42 148.899L1146.82 146.801ZM1100.28 78.349L1100.7 172.009L1104.7 171.991L1104.28 78.331L1100.28 78.349ZM1102.7 170H1080.02V174H1102.7V170ZM1082.02 172V29.2H1078.02V172H1082.02ZM1080.02 31.2H1096.4V27.2H1080.02V31.2ZM1094.69 30.2458L1150.34 120.966L1153.75 118.874L1098.1 28.1542L1094.69 30.2458ZM1153.75 120.966L1209.4 30.2458L1205.99 28.1542L1150.34 118.874L1153.75 120.966ZM1207.7 31.2H1224.08V27.2H1207.7V31.2ZM1369.53 172L1367.69 172.789L1368.21 174H1369.53V172ZM1354.83 137.77L1356.67 136.981L1356.15 135.77H1354.83V137.77ZM1285.11 137.77V135.77H1283.79L1283.27 136.981L1285.11 137.77ZM1270.41 172V174H1271.73L1272.25 172.789L1270.41 172ZM1246.26 172L1244.43 171.19L1243.19 174H1246.26V172ZM1309.47 29.2V27.2H1308.17L1307.64 28.3905L1309.47 29.2ZM1330.68 29.2L1332.51 28.3927L1331.99 27.2H1330.68V29.2ZM1393.68 172V174H1396.75L1395.51 171.193L1393.68 172ZM1293.51 117.61L1291.67 116.82L1290.47 119.61H1293.51V117.61ZM1346.22 117.61V119.61H1349.25L1348.06 116.825L1346.22 117.61ZM1319.97 56.08L1321.81 55.2952L1319.98 51.0004L1318.13 55.2899L1319.97 56.08ZM1371.37 171.211L1356.67 136.981L1352.99 138.559L1367.69 172.789L1371.37 171.211ZM1354.83 135.77H1285.11V139.77H1354.83V135.77ZM1283.27 136.981L1268.57 171.211L1272.25 172.789L1286.95 138.559L1283.27 136.981ZM1270.41 170H1246.26V174H1270.41V170ZM1248.09 172.81L1311.3 30.0095L1307.64 28.3905L1244.43 171.19L1248.09 172.81ZM1309.47 31.2H1330.68V27.2H1309.47V31.2ZM1328.85 30.0073L1391.85 172.807L1395.51 171.193L1332.51 28.3927L1328.85 30.0073ZM1393.68 170H1369.53V174H1393.68V170ZM1293.51 119.61H1346.22V115.61H1293.51V119.61ZM1348.06 116.825L1321.81 55.2952L1318.13 56.8648L1344.38 118.395L1348.06 116.825ZM1318.13 55.2899L1291.67 116.82L1295.35 118.4L1321.81 56.8701L1318.13 55.2899ZM1473.1 94.51V92.51H1471.1V94.51H1473.1ZM1545.76 94.51H1547.76V92.51H1545.76V94.51ZM1545.76 172V174H1547.76V172H1545.76ZM1527.91 172L1525.91 172.136L1526.04 174H1527.91V172ZM1526.23 147.43L1528.22 147.294L1527.79 141.002L1524.52 146.391L1526.23 147.43ZM1544.5 77.71V79.71H1547.05L1546.44 77.2306L1544.5 77.71ZM1520.35 77.71L1518.45 78.3424L1518.91 79.71H1520.35V77.71ZM1521.19 115.51L1523.14 115.96L1523.7 113.51H1521.19V115.51ZM1473.1 115.51H1471.1V117.51H1473.1V115.51ZM1473.1 96.51H1545.76V92.51H1473.1V96.51ZM1543.76 94.51V172H1547.76V94.51H1543.76ZM1545.76 170H1527.91V174H1545.76V170ZM1529.9 171.864L1528.22 147.294L1524.23 147.566L1525.91 172.136L1529.9 171.864ZM1524.52 146.391C1514.82 162.358 1498.47 172.52 1474.78 172.52V176.52C1499.8 176.52 1517.48 165.682 1527.94 148.469L1524.52 146.391ZM1474.78 172.52C1433.25 172.52 1402.86 140.655 1402.86 102.07H1398.86C1398.86 142.865 1431.04 176.52 1474.78 176.52V172.52ZM1402.86 102.07C1402.86 58.8976 1435.32 28.68 1475.83 28.68V24.68C1433.18 24.68 1398.86 56.6224 1398.86 102.07H1402.86ZM1475.83 28.68C1505.98 28.68 1534.42 45.2455 1542.56 78.1894L1546.44 77.2306C1537.77 42.1345 1507.41 24.68 1475.83 24.68V28.68ZM1544.5 75.71H1520.35V79.71H1544.5V75.71ZM1522.25 77.0775C1514.54 53.951 1493.6 45.68 1476.25 45.68V49.68C1492.5 49.68 1511.46 57.369 1518.45 78.3424L1522.25 77.0775ZM1476.25 45.68C1445.08 45.68 1421.75 68.6622 1421.75 102.07H1425.75C1425.75 70.7978 1447.36 49.68 1476.25 49.68V45.68ZM1421.75 102.07C1421.75 130.597 1443.14 155.31 1474.78 155.31V151.31C1445.52 151.31 1425.75 128.563 1425.75 102.07H1421.75ZM1474.78 155.31C1487.82 155.31 1498.64 151.17 1506.85 144.117C1515.04 137.078 1520.54 127.229 1523.14 115.96L1519.24 115.06C1516.8 125.631 1511.69 134.682 1504.24 141.083C1496.8 147.47 1486.93 151.31 1474.78 151.31V155.31ZM1521.19 113.51H1473.1V117.51H1521.19V113.51ZM1475.1 115.51V94.51H1471.1V115.51H1475.1ZM1685.76 29.2V27.2H1683.76V29.2H1685.76ZM1708.23 29.2H1710.23V27.2H1708.23V29.2ZM1708.23 172V174H1710.23V172H1708.23ZM1690.17 172L1688.64 173.282L1689.24 174H1690.17V172ZM1605.96 71.2L1607.5 69.9177L1603.96 65.6865V71.2H1605.96ZM1605.96 172V174H1607.96V172H1605.96ZM1583.28 172H1581.28V174H1583.28V172ZM1583.28 29.2V27.2H1581.28V29.2H1583.28ZM1600.71 29.2L1602.25 27.9258L1601.65 27.2H1600.71V29.2ZM1685.76 132.1L1684.22 133.374L1687.76 137.659V132.1H1685.76ZM1685.76 31.2H1708.23V27.2H1685.76V31.2ZM1706.23 29.2V172H1710.23V29.2H1706.23ZM1708.23 170H1690.17V174H1708.23V170ZM1691.71 170.718L1607.5 69.9177L1604.43 72.4823L1688.64 173.282L1691.71 170.718ZM1603.96 71.2V172H1607.96V71.2H1603.96ZM1605.96 170H1583.28V174H1605.96V170ZM1585.28 172V29.2H1581.28V172H1585.28ZM1583.28 31.2H1600.71V27.2H1583.28V31.2ZM1599.17 30.4742L1684.22 133.374L1687.3 130.826L1602.25 27.9258L1599.17 30.4742ZM1687.76 132.1V29.2H1683.76V132.1H1687.76ZM1853.52 172L1851.68 172.789L1852.2 174H1853.52V172ZM1838.82 137.77L1840.65 136.981L1840.13 135.77H1838.82V137.77ZM1769.1 137.77V135.77H1767.78L1767.26 136.981L1769.1 137.77ZM1754.4 172V174H1755.71L1756.23 172.789L1754.4 172ZM1730.25 172L1728.42 171.19L1727.17 174H1730.25V172ZM1793.46 29.2V27.2H1792.15L1791.63 28.3905L1793.46 29.2ZM1814.67 29.2L1816.5 28.3927L1815.97 27.2H1814.67V29.2ZM1877.67 172V174H1880.73L1879.5 171.193L1877.67 172ZM1777.5 117.61L1775.66 116.82L1774.46 119.61H1777.5V117.61ZM1830.21 117.61V119.61H1833.23L1832.05 116.825L1830.21 117.61ZM1803.96 56.08L1805.8 55.2952L1803.96 51.0004L1802.12 55.2899L1803.96 56.08ZM1855.35 171.211L1840.65 136.981L1836.98 138.559L1851.68 172.789L1855.35 171.211ZM1838.82 135.77H1769.1V139.77H1838.82V135.77ZM1767.26 136.981L1752.56 171.211L1756.23 172.789L1770.93 138.559L1767.26 136.981ZM1754.4 170H1730.25V174H1754.4V170ZM1732.07 172.81L1795.28 30.0095L1791.63 28.3905L1728.42 171.19L1732.07 172.81ZM1793.46 31.2H1814.67V27.2H1793.46V31.2ZM1812.84 30.0073L1875.84 172.807L1879.5 171.193L1816.5 28.3927L1812.84 30.0073ZM1877.67 170H1853.52V174H1877.67V170ZM1777.5 119.61H1830.21V115.61H1777.5V119.61ZM1832.05 116.825L1805.8 55.2952L1802.12 56.8648L1828.37 118.395L1832.05 116.825ZM1802.12 55.2899L1775.66 116.82L1779.33 118.4L1805.79 56.8701L1802.12 55.2899Z" fill="#808080" mask="url(#path-9-outside-5_3118_1744)"/>
</svg>
