<svg width="370" height="848" viewBox="0 0 370 848" fill="none" xmlns="http://www.w3.org/2000/svg">
<g opacity="0.8">
<mask id="path-1-outside-1_3118_1765" maskUnits="userSpaceOnUse" x="5" y="174" width="358" height="139" fill="black">
<rect fill="white" x="5" y="174" width="358" height="139"/>
<path d="M6.48 176.6H15.12V231H6.48V176.6ZM67.0825 176.6H75.6425V231H68.7625L36.6825 192.6V231H28.0425V176.6H34.6825L67.0825 215.8V176.6ZM130.688 176.6V184.52H111.408V231H102.848V184.52H83.5681V176.6H130.688ZM177.629 184.52H147.229V200.12H174.429V208.04H147.229V223H177.629V231H138.589V176.6H177.629V184.52ZM212.474 201.48H240.154V231H233.354L232.714 221.64C228.874 227.96 222.394 231.96 213.114 231.96C196.874 231.96 184.954 219.48 184.954 204.36C184.954 187.48 197.674 175.64 213.514 175.64C225.274 175.64 236.474 182.12 239.674 195.08H230.474C227.674 186.68 220.074 183.64 213.674 183.64C202.234 183.64 193.674 192.04 193.674 204.36C193.674 214.84 201.514 223.88 213.114 223.88C222.714 223.88 228.874 217.8 230.794 209.48H212.474V201.48ZM289.729 231L275.649 212.6H263.089V231H254.449V176.6H276.289C288.449 176.6 297.249 183.64 297.249 194.6C297.249 202.68 292.449 208.68 285.089 211.24L300.289 231H289.729ZM263.089 184.52V204.68H275.969C283.249 204.68 288.769 200.84 288.769 194.6C288.769 188.36 283.249 184.52 275.969 184.52H263.089ZM351.38 231L345.78 217.96H319.22L313.62 231H304.42L328.5 176.6H336.58L360.58 231H351.38ZM322.42 210.28H342.5L332.5 186.84L322.42 210.28ZM61.36 256.6V311H52.8V275.56L36.64 301.8H31.28L14.96 275.32L15.12 311H6.48V256.6H12.72L33.92 291.16L55.12 256.6H61.36ZM116.771 311L111.171 297.96H84.6106L79.0106 311H69.8106L93.8906 256.6H101.971L125.971 311H116.771ZM87.8106 290.28H107.891L97.8906 266.84L87.8106 290.28ZM156.224 281.48H183.904V311H177.104L176.464 301.64C172.624 307.96 166.144 311.96 156.864 311.96C140.624 311.96 128.704 299.48 128.704 284.36C128.704 267.48 141.424 255.64 157.264 255.64C169.024 255.64 180.224 262.12 183.424 275.08H174.224C171.424 266.68 163.824 263.64 157.424 263.64C145.984 263.64 137.424 272.04 137.424 284.36C137.424 294.84 145.264 303.88 156.864 303.88C166.464 303.88 172.624 297.8 174.544 289.48H156.224V281.48ZM237.239 256.6H245.799V311H238.919L206.839 272.6V311H198.199V256.6H204.839L237.239 295.8V256.6ZM301.146 311L295.546 297.96H268.986L263.386 311H254.186L278.266 256.6H286.346L310.346 311H301.146ZM272.186 290.28H292.266L282.266 266.84L272.186 290.28Z"/>
</mask>
<path d="M6.48 176.6V175.6H5.48V176.6H6.48ZM15.12 176.6H16.12V175.6H15.12V176.6ZM15.12 231V232H16.12V231H15.12ZM6.48 231H5.48V232H6.48V231ZM6.48 177.6H15.12V175.6H6.48V177.6ZM14.12 176.6V231H16.12V176.6H14.12ZM15.12 230H6.48V232H15.12V230ZM7.48 231V176.6H5.48V231H7.48ZM67.0825 176.6V175.6H66.0825V176.6H67.0825ZM75.6425 176.6H76.6425V175.6H75.6425V176.6ZM75.6425 231V232H76.6425V231H75.6425ZM68.7625 231L67.9951 231.641L68.2949 232H68.7625V231ZM36.6825 192.6L37.4499 191.959L35.6825 189.843V192.6H36.6825ZM36.6825 231V232H37.6825V231H36.6825ZM28.0425 231H27.0425V232H28.0425V231ZM28.0425 176.6V175.6H27.0425V176.6H28.0425ZM34.6825 176.6L35.4533 175.963L35.1533 175.6H34.6825V176.6ZM67.0825 215.8L66.3117 216.437L68.0825 218.58V215.8H67.0825ZM67.0825 177.6H75.6425V175.6H67.0825V177.6ZM74.6425 176.6V231H76.6425V176.6H74.6425ZM75.6425 230H68.7625V232H75.6425V230ZM69.5299 230.359L37.4499 191.959L35.9151 193.241L67.9951 231.641L69.5299 230.359ZM35.6825 192.6V231H37.6825V192.6H35.6825ZM36.6825 230H28.0425V232H36.6825V230ZM29.0425 231V176.6H27.0425V231H29.0425ZM28.0425 177.6H34.6825V175.6H28.0425V177.6ZM33.9117 177.237L66.3117 216.437L67.8533 215.163L35.4533 175.963L33.9117 177.237ZM68.0825 215.8V176.6H66.0825V215.8H68.0825ZM130.688 176.6H131.688V175.6H130.688V176.6ZM130.688 184.52V185.52H131.688V184.52H130.688ZM111.408 184.52V183.52H110.408V184.52H111.408ZM111.408 231V232H112.408V231H111.408ZM102.848 231H101.848V232H102.848V231ZM102.848 184.52H103.848V183.52H102.848V184.52ZM83.5681 184.52H82.5681V185.52H83.5681V184.52ZM83.5681 176.6V175.6H82.5681V176.6H83.5681ZM129.688 176.6V184.52H131.688V176.6H129.688ZM130.688 183.52H111.408V185.52H130.688V183.52ZM110.408 184.52V231H112.408V184.52H110.408ZM111.408 230H102.848V232H111.408V230ZM103.848 231V184.52H101.848V231H103.848ZM102.848 183.52H83.5681V185.52H102.848V183.52ZM84.5681 184.52V176.6H82.5681V184.52H84.5681ZM83.5681 177.6H130.688V175.6H83.5681V177.6ZM177.629 184.52V185.52H178.629V184.52H177.629ZM147.229 184.52V183.52H146.229V184.52H147.229ZM147.229 200.12H146.229V201.12H147.229V200.12ZM174.429 200.12H175.429V199.12H174.429V200.12ZM174.429 208.04V209.04H175.429V208.04H174.429ZM147.229 208.04V207.04H146.229V208.04H147.229ZM147.229 223H146.229V224H147.229V223ZM177.629 223H178.629V222H177.629V223ZM177.629 231V232H178.629V231H177.629ZM138.589 231H137.589V232H138.589V231ZM138.589 176.6V175.6H137.589V176.6H138.589ZM177.629 176.6H178.629V175.6H177.629V176.6ZM177.629 183.52H147.229V185.52H177.629V183.52ZM146.229 184.52V200.12H148.229V184.52H146.229ZM147.229 201.12H174.429V199.12H147.229V201.12ZM173.429 200.12V208.04H175.429V200.12H173.429ZM174.429 207.04H147.229V209.04H174.429V207.04ZM146.229 208.04V223H148.229V208.04H146.229ZM147.229 224H177.629V222H147.229V224ZM176.629 223V231H178.629V223H176.629ZM177.629 230H138.589V232H177.629V230ZM139.589 231V176.6H137.589V231H139.589ZM138.589 177.6H177.629V175.6H138.589V177.6ZM176.629 176.6V184.52H178.629V176.6H176.629ZM212.474 201.48V200.48H211.474V201.48H212.474ZM240.154 201.48H241.154V200.48H240.154V201.48ZM240.154 231V232H241.154V231H240.154ZM233.354 231L232.357 231.068L232.42 232H233.354V231ZM232.714 221.64L233.712 221.572L233.497 218.426L231.86 221.121L232.714 221.64ZM239.674 195.08V196.08H240.951L240.645 194.84L239.674 195.08ZM230.474 195.08L229.526 195.396L229.754 196.08H230.474V195.08ZM230.794 209.48L231.769 209.705L232.051 208.48H230.794V209.48ZM212.474 209.48H211.474V210.48H212.474V209.48ZM212.474 202.48H240.154V200.48H212.474V202.48ZM239.154 201.48V231H241.154V201.48H239.154ZM240.154 230H233.354V232H240.154V230ZM234.352 230.932L233.712 221.572L231.717 221.708L232.357 231.068L234.352 230.932ZM231.86 221.121C228.209 227.129 222.061 230.96 213.114 230.96V232.96C222.728 232.96 229.54 228.791 233.569 222.159L231.86 221.121ZM213.114 230.96C197.427 230.96 185.954 218.928 185.954 204.36H183.954C183.954 220.032 196.322 232.96 213.114 232.96V230.96ZM185.954 204.36C185.954 188.049 198.21 176.64 213.514 176.64V174.64C197.139 174.64 183.954 186.911 183.954 204.36H185.954ZM213.514 176.64C224.916 176.64 235.636 182.898 238.704 195.32L240.645 194.84C237.312 181.342 225.633 174.64 213.514 174.64V176.64ZM239.674 194.08H230.474V196.08H239.674V194.08ZM231.423 194.764C228.444 185.825 220.35 182.64 213.674 182.64V184.64C219.799 184.64 226.905 187.535 229.526 195.396L231.423 194.764ZM213.674 182.64C201.664 182.64 192.674 191.506 192.674 204.36H194.674C194.674 192.574 202.805 184.64 213.674 184.64V182.64ZM192.674 204.36C192.674 215.349 200.919 224.88 213.114 224.88V222.88C202.109 222.88 194.674 214.331 194.674 204.36H192.674ZM213.114 224.88C218.137 224.88 222.313 223.285 225.486 220.559C228.652 217.839 230.768 214.039 231.769 209.705L229.82 209.255C228.9 213.241 226.977 216.641 224.183 219.041C221.396 221.435 217.692 222.88 213.114 222.88V224.88ZM230.794 208.48H212.474V210.48H230.794V208.48ZM213.474 209.48V201.48H211.474V209.48H213.474ZM289.729 231L288.935 231.608L289.235 232H289.729V231ZM275.649 212.6L276.443 211.992L276.143 211.6H275.649V212.6ZM263.089 212.6V211.6H262.089V212.6H263.089ZM263.089 231V232H264.089V231H263.089ZM254.449 231H253.449V232H254.449V231ZM254.449 176.6V175.6H253.449V176.6H254.449ZM285.089 211.24L284.76 210.296L283.451 210.751L284.296 211.85L285.089 211.24ZM300.289 231V232H302.32L301.081 230.39L300.289 231ZM263.089 184.52V183.52H262.089V184.52H263.089ZM263.089 204.68H262.089V205.68H263.089V204.68ZM290.523 230.392L276.443 211.992L274.855 213.208L288.935 231.608L290.523 230.392ZM275.649 211.6H263.089V213.6H275.649V211.6ZM262.089 212.6V231H264.089V212.6H262.089ZM263.089 230H254.449V232H263.089V230ZM255.449 231V176.6H253.449V231H255.449ZM254.449 177.6H276.289V175.6H254.449V177.6ZM276.289 177.6C282.182 177.6 287.179 179.306 290.685 182.255C294.175 185.192 296.249 189.41 296.249 194.6H298.249C298.249 188.83 295.922 184.048 291.973 180.725C288.038 177.414 282.556 175.6 276.289 175.6V177.6ZM296.249 194.6C296.249 202.214 291.757 207.862 284.76 210.296L285.417 212.184C293.14 209.498 298.249 203.146 298.249 194.6H296.249ZM284.296 211.85L299.496 231.61L301.081 230.39L285.881 210.63L284.296 211.85ZM300.289 230H289.729V232H300.289V230ZM262.089 184.52V204.68H264.089V184.52H262.089ZM263.089 205.68H275.969V203.68H263.089V205.68ZM275.969 205.68C279.773 205.68 283.201 204.678 285.704 202.776C288.229 200.857 289.769 198.049 289.769 194.6H287.769C287.769 197.391 286.548 199.623 284.494 201.184C282.416 202.762 279.444 203.68 275.969 203.68V205.68ZM289.769 194.6C289.769 191.151 288.229 188.343 285.704 186.424C283.201 184.522 279.773 183.52 275.969 183.52V185.52C279.444 185.52 282.416 186.438 284.494 188.016C286.548 189.577 287.769 191.809 287.769 194.6H289.769ZM275.969 183.52H263.089V185.52H275.969V183.52ZM351.38 231L350.461 231.395L350.721 232H351.38V231ZM345.78 217.96L346.699 217.565L346.439 216.96H345.78V217.96ZM319.22 217.96V216.96H318.561L318.301 217.565L319.22 217.96ZM313.62 231V232H314.279L314.539 231.395L313.62 231ZM304.42 231L303.506 230.595L302.884 232H304.42V231ZM328.5 176.6V175.6H327.849L327.586 176.195L328.5 176.6ZM336.58 176.6L337.495 176.196L337.232 175.6H336.58V176.6ZM360.58 231V232H362.114L361.495 230.596L360.58 231ZM322.42 210.28L321.501 209.885L320.901 211.28H322.42V210.28ZM342.5 210.28V211.28H344.014L343.42 209.888L342.5 210.28ZM332.5 186.84L333.42 186.448L332.504 184.3L331.581 186.445L332.5 186.84ZM352.299 230.605L346.699 217.565L344.861 218.355L350.461 231.395L352.299 230.605ZM345.78 216.96H319.22V218.96H345.78V216.96ZM318.301 217.565L312.701 230.605L314.539 231.395L320.139 218.355L318.301 217.565ZM313.62 230H304.42V232H313.62V230ZM305.334 231.405L329.414 177.005L327.586 176.195L303.506 230.595L305.334 231.405ZM328.5 177.6H336.58V175.6H328.5V177.6ZM335.665 177.004L359.665 231.404L361.495 230.596L337.495 176.196L335.665 177.004ZM360.58 230H351.38V232H360.58V230ZM322.42 211.28H342.5V209.28H322.42V211.28ZM343.42 209.888L333.42 186.448L331.58 187.232L341.58 210.672L343.42 209.888ZM331.581 186.445L321.501 209.885L323.339 210.675L333.419 187.235L331.581 186.445ZM61.36 256.6H62.36V255.6H61.36V256.6ZM61.36 311V312H62.36V311H61.36ZM52.8 311H51.8V312H52.8V311ZM52.8 275.56H53.8V272.029L51.9485 275.036L52.8 275.56ZM36.64 301.8V302.8H37.1986L37.4915 302.324L36.64 301.8ZM31.28 301.8L30.4287 302.325L30.7216 302.8H31.28V301.8ZM14.96 275.32L15.8113 274.795L13.9441 271.766L13.96 275.324L14.96 275.32ZM15.12 311V312H16.1245L16.12 310.996L15.12 311ZM6.48 311H5.48V312H6.48V311ZM6.48 256.6V255.6H5.48V256.6H6.48ZM12.72 256.6L13.5724 256.077L13.2797 255.6H12.72V256.6ZM33.92 291.16L33.0676 291.683L33.92 293.072L34.7724 291.683L33.92 291.16ZM55.12 256.6V255.6H54.5603L54.2676 256.077L55.12 256.6ZM60.36 256.6V311H62.36V256.6H60.36ZM61.36 310H52.8V312H61.36V310ZM53.8 311V275.56H51.8V311H53.8ZM51.9485 275.036L35.7885 301.276L37.4915 302.324L53.6515 276.084L51.9485 275.036ZM36.64 300.8H31.28V302.8H36.64V300.8ZM32.1313 301.275L15.8113 274.795L14.1087 275.845L30.4287 302.325L32.1313 301.275ZM13.96 275.324L14.12 311.004L16.12 310.996L15.96 275.316L13.96 275.324ZM15.12 310H6.48V312H15.12V310ZM7.48 311V256.6H5.48V311H7.48ZM6.48 257.6H12.72V255.6H6.48V257.6ZM11.8676 257.123L33.0676 291.683L34.7724 290.637L13.5724 256.077L11.8676 257.123ZM34.7724 291.683L55.9724 257.123L54.2676 256.077L33.0676 290.637L34.7724 291.683ZM55.12 257.6H61.36V255.6H55.12V257.6ZM116.771 311L115.852 311.395L116.112 312H116.771V311ZM111.171 297.96L112.089 297.565L111.829 296.96H111.171V297.96ZM84.6106 297.96V296.96H83.9518L83.6918 297.565L84.6106 297.96ZM79.0106 311V312H79.6695L79.9295 311.395L79.0106 311ZM69.8106 311L68.8962 310.595L68.2744 312H69.8106V311ZM93.8906 256.6V255.6H93.2397L92.9762 256.195L93.8906 256.6ZM101.971 256.6L102.886 256.196L102.622 255.6H101.971V256.6ZM125.971 311V312H127.505L126.886 310.596L125.971 311ZM87.8106 290.28L86.892 289.885L86.292 291.28H87.8106V290.28ZM107.891 290.28V291.28H109.404L108.81 289.888L107.891 290.28ZM97.8906 266.84L98.8104 266.448L97.8943 264.3L96.972 266.445L97.8906 266.84ZM117.689 310.605L112.089 297.565L110.252 298.355L115.852 311.395L117.689 310.605ZM111.171 296.96H84.6106V298.96H111.171V296.96ZM83.6918 297.565L78.0918 310.605L79.9295 311.395L85.5295 298.355L83.6918 297.565ZM79.0106 310H69.8106V312H79.0106V310ZM70.725 311.405L94.805 257.005L92.9762 256.195L68.8962 310.595L70.725 311.405ZM93.8906 257.6H101.971V255.6H93.8906V257.6ZM101.056 257.004L125.056 311.404L126.886 310.596L102.886 256.196L101.056 257.004ZM125.971 310H116.771V312H125.971V310ZM87.8106 291.28H107.891V289.28H87.8106V291.28ZM108.81 289.888L98.8104 266.448L96.9708 267.232L106.971 290.672L108.81 289.888ZM96.972 266.445L86.892 289.885L88.7293 290.675L98.8093 267.235L96.972 266.445ZM156.224 281.48V280.48H155.224V281.48H156.224ZM183.904 281.48H184.904V280.48H183.904V281.48ZM183.904 311V312H184.904V311H183.904ZM177.104 311L176.107 311.068L176.17 312H177.104V311ZM176.464 301.64L177.462 301.572L177.247 298.426L175.61 301.121L176.464 301.64ZM183.424 275.08V276.08H184.701L184.395 274.84L183.424 275.08ZM174.224 275.08L173.276 275.396L173.504 276.08H174.224V275.08ZM174.544 289.48L175.519 289.705L175.801 288.48H174.544V289.48ZM156.224 289.48H155.224V290.48H156.224V289.48ZM156.224 282.48H183.904V280.48H156.224V282.48ZM182.904 281.48V311H184.904V281.48H182.904ZM183.904 310H177.104V312H183.904V310ZM178.102 310.932L177.462 301.572L175.467 301.708L176.107 311.068L178.102 310.932ZM175.61 301.121C171.959 307.129 165.811 310.96 156.864 310.96V312.96C166.478 312.96 173.29 308.791 177.319 302.159L175.61 301.121ZM156.864 310.96C141.177 310.96 129.704 298.928 129.704 284.36H127.704C127.704 300.032 140.072 312.96 156.864 312.96V310.96ZM129.704 284.36C129.704 268.049 141.96 256.64 157.264 256.64V254.64C140.889 254.64 127.704 266.911 127.704 284.36H129.704ZM157.264 256.64C168.666 256.64 179.386 262.898 182.454 275.32L184.395 274.84C181.062 261.342 169.383 254.64 157.264 254.64V256.64ZM183.424 274.08H174.224V276.08H183.424V274.08ZM175.173 274.764C172.194 265.825 164.1 262.64 157.424 262.64V264.64C163.549 264.64 170.655 267.535 173.276 275.396L175.173 274.764ZM157.424 262.64C145.414 262.64 136.424 271.506 136.424 284.36H138.424C138.424 272.574 146.555 264.64 157.424 264.64V262.64ZM136.424 284.36C136.424 295.349 144.669 304.88 156.864 304.88V302.88C145.859 302.88 138.424 294.331 138.424 284.36H136.424ZM156.864 304.88C161.887 304.88 166.063 303.285 169.236 300.559C172.402 297.839 174.518 294.039 175.519 289.705L173.57 289.255C172.65 293.241 170.727 296.641 167.933 299.041C165.146 301.435 161.442 302.88 156.864 302.88V304.88ZM174.544 288.48H156.224V290.48H174.544V288.48ZM157.224 289.48V281.48H155.224V289.48H157.224ZM237.239 256.6V255.6H236.239V256.6H237.239ZM245.799 256.6H246.799V255.6H245.799V256.6ZM245.799 311V312H246.799V311H245.799ZM238.919 311L238.151 311.641L238.451 312H238.919V311ZM206.839 272.6L207.606 271.959L205.839 269.843V272.6H206.839ZM206.839 311V312H207.839V311H206.839ZM198.199 311H197.199V312H198.199V311ZM198.199 256.6V255.6H197.199V256.6H198.199ZM204.839 256.6L205.61 255.963L205.31 255.6H204.839V256.6ZM237.239 295.8L236.468 296.437L238.239 298.58V295.8H237.239ZM237.239 257.6H245.799V255.6H237.239V257.6ZM244.799 256.6V311H246.799V256.6H244.799ZM245.799 310H238.919V312H245.799V310ZM239.686 310.359L207.606 271.959L206.071 273.241L238.151 311.641L239.686 310.359ZM205.839 272.6V311H207.839V272.6H205.839ZM206.839 310H198.199V312H206.839V310ZM199.199 311V256.6H197.199V311H199.199ZM198.199 257.6H204.839V255.6H198.199V257.6ZM204.068 257.237L236.468 296.437L238.01 295.163L205.61 255.963L204.068 257.237ZM238.239 295.8V256.6H236.239V295.8H238.239ZM301.146 311L300.227 311.395L300.487 312H301.146V311ZM295.546 297.96L296.464 297.565L296.204 296.96H295.546V297.96ZM268.986 297.96V296.96H268.327L268.067 297.565L268.986 297.96ZM263.386 311V312H264.044L264.304 311.395L263.386 311ZM254.186 311L253.271 310.595L252.649 312H254.186V311ZM278.266 256.6V255.6H277.615L277.351 256.195L278.266 256.6ZM286.346 256.6L287.261 256.196L286.997 255.6H286.346V256.6ZM310.346 311V312H311.88L311.261 310.596L310.346 311ZM272.186 290.28L271.267 289.885L270.667 291.28H272.186V290.28ZM292.266 290.28V291.28H293.779L293.185 289.888L292.266 290.28ZM282.266 266.84L283.185 266.448L282.269 264.3L281.347 266.445L282.266 266.84ZM302.064 310.605L296.464 297.565L294.627 298.355L300.227 311.395L302.064 310.605ZM295.546 296.96H268.986V298.96H295.546V296.96ZM268.067 297.565L262.467 310.605L264.304 311.395L269.904 298.355L268.067 297.565ZM263.386 310H254.186V312H263.386V310ZM255.1 311.405L279.18 257.005L277.351 256.195L253.271 310.595L255.1 311.405ZM278.266 257.6H286.346V255.6H278.266V257.6ZM285.431 257.004L309.431 311.404L311.261 310.596L287.261 256.196L285.431 257.004ZM310.346 310H301.146V312H310.346V310ZM272.186 291.28H292.266V289.28H272.186V291.28ZM293.185 289.888L283.185 266.448L281.346 267.232L291.346 290.672L293.185 289.888ZM281.347 266.445L271.267 289.885L273.104 290.675L283.184 267.235L281.347 266.445Z" fill="#808080" mask="url(#path-1-outside-1_3118_1765)"/>
</g>
<mask id="path-3-outside-2_3118_1765" maskUnits="userSpaceOnUse" x="5" y="2" width="358" height="139" fill="black">
<rect fill="white" x="5" y="2" width="358" height="139"/>
<path d="M6.48 4.6H15.12V59H6.48V4.6ZM67.0825 4.6H75.6425V59H68.7625L36.6825 20.6V59H28.0425V4.6H34.6825L67.0825 43.8V4.6ZM130.688 4.6V12.52H111.408V59H102.848V12.52H83.5681V4.6H130.688ZM177.629 12.52H147.229V28.12H174.429V36.04H147.229V51H177.629V59H138.589V4.6H177.629V12.52ZM212.474 29.48H240.154V59H233.354L232.714 49.64C228.874 55.96 222.394 59.96 213.114 59.96C196.874 59.96 184.954 47.48 184.954 32.36C184.954 15.48 197.674 3.64 213.514 3.64C225.274 3.64 236.474 10.12 239.674 23.08H230.474C227.674 14.68 220.074 11.64 213.674 11.64C202.234 11.64 193.674 20.04 193.674 32.36C193.674 42.84 201.514 51.88 213.114 51.88C222.714 51.88 228.874 45.8 230.794 37.48H212.474V29.48ZM289.729 59L275.649 40.6H263.089V59H254.449V4.6H276.289C288.449 4.6 297.249 11.64 297.249 22.6C297.249 30.68 292.449 36.68 285.089 39.24L300.289 59H289.729ZM263.089 12.52V32.68H275.969C283.249 32.68 288.769 28.84 288.769 22.6C288.769 16.36 283.249 12.52 275.969 12.52H263.089ZM351.38 59L345.78 45.96H319.22L313.62 59H304.42L328.5 4.6H336.58L360.58 59H351.38ZM322.42 38.28H342.5L332.5 14.84L322.42 38.28ZM61.36 84.6V139H52.8V103.56L36.64 129.8H31.28L14.96 103.32L15.12 139H6.48V84.6H12.72L33.92 119.16L55.12 84.6H61.36ZM116.771 139L111.171 125.96H84.6106L79.0106 139H69.8106L93.8906 84.6H101.971L125.971 139H116.771ZM87.8106 118.28H107.891L97.8906 94.84L87.8106 118.28ZM156.224 109.48H183.904V139H177.104L176.464 129.64C172.624 135.96 166.144 139.96 156.864 139.96C140.624 139.96 128.704 127.48 128.704 112.36C128.704 95.48 141.424 83.64 157.264 83.64C169.024 83.64 180.224 90.12 183.424 103.08H174.224C171.424 94.68 163.824 91.64 157.424 91.64C145.984 91.64 137.424 100.04 137.424 112.36C137.424 122.84 145.264 131.88 156.864 131.88C166.464 131.88 172.624 125.8 174.544 117.48H156.224V109.48ZM237.239 84.6H245.799V139H238.919L206.839 100.6V139H198.199V84.6H204.839L237.239 123.8V84.6ZM301.146 139L295.546 125.96H268.986L263.386 139H254.186L278.266 84.6H286.346L310.346 139H301.146ZM272.186 118.28H292.266L282.266 94.84L272.186 118.28Z"/>
</mask>
<path d="M6.48 4.6V3.6H5.48V4.6H6.48ZM15.12 4.6H16.12V3.6H15.12V4.6ZM15.12 59V60H16.12V59H15.12ZM6.48 59H5.48V60H6.48V59ZM6.48 5.6H15.12V3.6H6.48V5.6ZM14.12 4.6V59H16.12V4.6H14.12ZM15.12 58H6.48V60H15.12V58ZM7.48 59V4.6H5.48V59H7.48ZM67.0825 4.6V3.6H66.0825V4.6H67.0825ZM75.6425 4.6H76.6425V3.6H75.6425V4.6ZM75.6425 59V60H76.6425V59H75.6425ZM68.7625 59L67.9951 59.6411L68.2949 60H68.7625V59ZM36.6825 20.6L37.4499 19.9589L35.6825 17.8432V20.6H36.6825ZM36.6825 59V60H37.6825V59H36.6825ZM28.0425 59H27.0425V60H28.0425V59ZM28.0425 4.6V3.6H27.0425V4.6H28.0425ZM34.6825 4.6L35.4533 3.96291L35.1533 3.6H34.6825V4.6ZM67.0825 43.8L66.3117 44.4371L68.0825 46.5795V43.8H67.0825ZM67.0825 5.6H75.6425V3.6H67.0825V5.6ZM74.6425 4.6V59H76.6425V4.6H74.6425ZM75.6425 58H68.7625V60H75.6425V58ZM69.5299 58.3589L37.4499 19.9589L35.9151 21.2411L67.9951 59.6411L69.5299 58.3589ZM35.6825 20.6V59H37.6825V20.6H35.6825ZM36.6825 58H28.0425V60H36.6825V58ZM29.0425 59V4.6H27.0425V59H29.0425ZM28.0425 5.6H34.6825V3.6H28.0425V5.6ZM33.9117 5.23708L66.3117 44.4371L67.8533 43.1629L35.4533 3.96291L33.9117 5.23708ZM68.0825 43.8V4.6H66.0825V43.8H68.0825ZM130.688 4.6H131.688V3.6H130.688V4.6ZM130.688 12.52V13.52H131.688V12.52H130.688ZM111.408 12.52V11.52H110.408V12.52H111.408ZM111.408 59V60H112.408V59H111.408ZM102.848 59H101.848V60H102.848V59ZM102.848 12.52H103.848V11.52H102.848V12.52ZM83.5681 12.52H82.5681V13.52H83.5681V12.52ZM83.5681 4.6V3.6H82.5681V4.6H83.5681ZM129.688 4.6V12.52H131.688V4.6H129.688ZM130.688 11.52H111.408V13.52H130.688V11.52ZM110.408 12.52V59H112.408V12.52H110.408ZM111.408 58H102.848V60H111.408V58ZM103.848 59V12.52H101.848V59H103.848ZM102.848 11.52H83.5681V13.52H102.848V11.52ZM84.5681 12.52V4.6H82.5681V12.52H84.5681ZM83.5681 5.6H130.688V3.6H83.5681V5.6ZM177.629 12.52V13.52H178.629V12.52H177.629ZM147.229 12.52V11.52H146.229V12.52H147.229ZM147.229 28.12H146.229V29.12H147.229V28.12ZM174.429 28.12H175.429V27.12H174.429V28.12ZM174.429 36.04V37.04H175.429V36.04H174.429ZM147.229 36.04V35.04H146.229V36.04H147.229ZM147.229 51H146.229V52H147.229V51ZM177.629 51H178.629V50H177.629V51ZM177.629 59V60H178.629V59H177.629ZM138.589 59H137.589V60H138.589V59ZM138.589 4.6V3.6H137.589V4.6H138.589ZM177.629 4.6H178.629V3.6H177.629V4.6ZM177.629 11.52H147.229V13.52H177.629V11.52ZM146.229 12.52V28.12H148.229V12.52H146.229ZM147.229 29.12H174.429V27.12H147.229V29.12ZM173.429 28.12V36.04H175.429V28.12H173.429ZM174.429 35.04H147.229V37.04H174.429V35.04ZM146.229 36.04V51H148.229V36.04H146.229ZM147.229 52H177.629V50H147.229V52ZM176.629 51V59H178.629V51H176.629ZM177.629 58H138.589V60H177.629V58ZM139.589 59V4.6H137.589V59H139.589ZM138.589 5.6H177.629V3.6H138.589V5.6ZM176.629 4.6V12.52H178.629V4.6H176.629ZM212.474 29.48V28.48H211.474V29.48H212.474ZM240.154 29.48H241.154V28.48H240.154V29.48ZM240.154 59V60H241.154V59H240.154ZM233.354 59L232.357 59.0682L232.42 60H233.354V59ZM232.714 49.64L233.712 49.5718L233.497 46.4262L231.86 49.1207L232.714 49.64ZM239.674 23.08V24.08H240.951L240.645 22.8403L239.674 23.08ZM230.474 23.08L229.526 23.3962L229.754 24.08H230.474V23.08ZM230.794 37.48L231.769 37.7049L232.051 36.48H230.794V37.48ZM212.474 37.48H211.474V38.48H212.474V37.48ZM212.474 30.48H240.154V28.48H212.474V30.48ZM239.154 29.48V59H241.154V29.48H239.154ZM240.154 58H233.354V60H240.154V58ZM234.352 58.9318L233.712 49.5718L231.717 49.7082L232.357 59.0682L234.352 58.9318ZM231.86 49.1207C228.209 55.1289 222.061 58.96 213.114 58.96V60.96C222.728 60.96 229.54 56.7911 233.569 50.1593L231.86 49.1207ZM213.114 58.96C197.427 58.96 185.954 46.9277 185.954 32.36H183.954C183.954 48.0323 196.322 60.96 213.114 60.96V58.96ZM185.954 32.36C185.954 16.0488 198.21 4.64 213.514 4.64V2.64C197.139 2.64 183.954 14.9112 183.954 32.36H185.954ZM213.514 4.64C224.916 4.64 235.636 10.8978 238.704 23.3197L240.645 22.8403C237.312 9.34225 225.633 2.64 213.514 2.64V4.64ZM239.674 22.08H230.474V24.08H239.674V22.08ZM231.423 22.7638C228.444 13.8255 220.35 10.64 213.674 10.64V12.64C219.799 12.64 226.905 15.5345 229.526 23.3962L231.423 22.7638ZM213.674 10.64C201.664 10.64 192.674 19.5061 192.674 32.36H194.674C194.674 20.5739 202.805 12.64 213.674 12.64V10.64ZM192.674 32.36C192.674 43.3486 200.919 52.88 213.114 52.88V50.88C202.109 50.88 194.674 42.3314 194.674 32.36H192.674ZM213.114 52.88C218.137 52.88 222.313 51.2848 225.486 48.5585C228.652 45.839 230.768 42.0395 231.769 37.7049L229.82 37.2551C228.9 41.2405 226.977 44.641 224.183 47.0415C221.396 49.4352 217.692 50.88 213.114 50.88V52.88ZM230.794 36.48H212.474V38.48H230.794V36.48ZM213.474 37.48V29.48H211.474V37.48H213.474ZM289.729 59L288.935 59.6077L289.235 60H289.729V59ZM275.649 40.6L276.443 39.9923L276.143 39.6H275.649V40.6ZM263.089 40.6V39.6H262.089V40.6H263.089ZM263.089 59V60H264.089V59H263.089ZM254.449 59H253.449V60H254.449V59ZM254.449 4.6V3.6H253.449V4.6H254.449ZM285.089 39.24L284.76 38.2955L283.451 38.7509L284.296 39.8497L285.089 39.24ZM300.289 59V60H302.32L301.081 58.3903L300.289 59ZM263.089 12.52V11.52H262.089V12.52H263.089ZM263.089 32.68H262.089V33.68H263.089V32.68ZM290.523 58.3923L276.443 39.9923L274.855 41.2077L288.935 59.6077L290.523 58.3923ZM275.649 39.6H263.089V41.6H275.649V39.6ZM262.089 40.6V59H264.089V40.6H262.089ZM263.089 58H254.449V60H263.089V58ZM255.449 59V4.6H253.449V59H255.449ZM254.449 5.6H276.289V3.6H254.449V5.6ZM276.289 5.6C282.182 5.6 287.179 7.30552 290.685 10.2552C294.175 13.1918 296.249 17.4098 296.249 22.6H298.249C298.249 16.8302 295.922 12.0482 291.973 8.72482C288.038 5.41448 282.556 3.6 276.289 3.6V5.6ZM296.249 22.6C296.249 30.2143 291.757 35.8617 284.76 38.2955L285.417 40.1845C293.14 37.4983 298.249 31.1457 298.249 22.6H296.249ZM284.296 39.8497L299.496 59.6097L301.081 58.3903L285.881 38.6303L284.296 39.8497ZM300.289 58H289.729V60H300.289V58ZM262.089 12.52V32.68H264.089V12.52H262.089ZM263.089 33.68H275.969V31.68H263.089V33.68ZM275.969 33.68C279.773 33.68 283.201 32.6777 285.704 30.7762C288.229 28.8573 289.769 26.049 289.769 22.6H287.769C287.769 25.391 286.548 27.6227 284.494 29.1838C282.416 30.7623 279.444 31.68 275.969 31.68V33.68ZM289.769 22.6C289.769 19.151 288.229 16.3427 285.704 14.4238C283.201 12.5223 279.773 11.52 275.969 11.52V13.52C279.444 13.52 282.416 14.4377 284.494 16.0162C286.548 17.5773 287.769 19.809 287.769 22.6H289.769ZM275.969 11.52H263.089V13.52H275.969V11.52ZM351.38 59L350.461 59.3946L350.721 60H351.38V59ZM345.78 45.96L346.699 45.5654L346.439 44.96H345.78V45.96ZM319.22 45.96V44.96H318.561L318.301 45.5654L319.22 45.96ZM313.62 59V60H314.279L314.539 59.3946L313.62 59ZM304.42 59L303.506 58.5952L302.884 60H304.42V59ZM328.5 4.6V3.6H327.849L327.586 4.19523L328.5 4.6ZM336.58 4.6L337.495 4.19636L337.232 3.6H336.58V4.6ZM360.58 59V60H362.114L361.495 58.5964L360.58 59ZM322.42 38.28L321.501 37.8849L320.901 39.28H322.42V38.28ZM342.5 38.28V39.28H344.014L343.42 37.8876L342.5 38.28ZM332.5 14.84L333.42 14.4476L332.504 12.3002L331.581 14.4449L332.5 14.84ZM352.299 58.6054L346.699 45.5654L344.861 46.3546L350.461 59.3946L352.299 58.6054ZM345.78 44.96H319.22V46.96H345.78V44.96ZM318.301 45.5654L312.701 58.6054L314.539 59.3946L320.139 46.3546L318.301 45.5654ZM313.62 58H304.42V60H313.62V58ZM305.334 59.4048L329.414 5.00476L327.586 4.19523L303.506 58.5952L305.334 59.4048ZM328.5 5.6H336.58V3.6H328.5V5.6ZM335.665 5.00364L359.665 59.4036L361.495 58.5964L337.495 4.19636L335.665 5.00364ZM360.58 58H351.38V60H360.58V58ZM322.42 39.28H342.5V37.28H322.42V39.28ZM343.42 37.8876L333.42 14.4476L331.58 15.2324L341.58 38.6724L343.42 37.8876ZM331.581 14.4449L321.501 37.8849L323.339 38.6751L333.419 15.2351L331.581 14.4449ZM61.36 84.6H62.36V83.6H61.36V84.6ZM61.36 139V140H62.36V139H61.36ZM52.8 139H51.8V140H52.8V139ZM52.8 103.56H53.8V100.029L51.9485 103.036L52.8 103.56ZM36.64 129.8V130.8H37.1986L37.4915 130.324L36.64 129.8ZM31.28 129.8L30.4287 130.325L30.7216 130.8H31.28V129.8ZM14.96 103.32L15.8113 102.795L13.9441 99.7656L13.96 103.324L14.96 103.32ZM15.12 139V140H16.1245L16.12 138.996L15.12 139ZM6.48 139H5.48V140H6.48V139ZM6.48 84.6V83.6H5.48V84.6H6.48ZM12.72 84.6L13.5724 84.0771L13.2797 83.6H12.72V84.6ZM33.92 119.16L33.0676 119.683L33.92 121.072L34.7724 119.683L33.92 119.16ZM55.12 84.6V83.6H54.5603L54.2676 84.0771L55.12 84.6ZM60.36 84.6V139H62.36V84.6H60.36ZM61.36 138H52.8V140H61.36V138ZM53.8 139V103.56H51.8V139H53.8ZM51.9485 103.036L35.7885 129.276L37.4915 130.324L53.6515 104.084L51.9485 103.036ZM36.64 128.8H31.28V130.8H36.64V128.8ZM32.1313 129.275L15.8113 102.795L14.1087 103.845L30.4287 130.325L32.1313 129.275ZM13.96 103.324L14.12 139.004L16.12 138.996L15.96 103.316L13.96 103.324ZM15.12 138H6.48V140H15.12V138ZM7.48 139V84.6H5.48V139H7.48ZM6.48 85.6H12.72V83.6H6.48V85.6ZM11.8676 85.1229L33.0676 119.683L34.7724 118.637L13.5724 84.0771L11.8676 85.1229ZM34.7724 119.683L55.9724 85.1229L54.2676 84.0771L33.0676 118.637L34.7724 119.683ZM55.12 85.6H61.36V83.6H55.12V85.6ZM116.771 139L115.852 139.395L116.112 140H116.771V139ZM111.171 125.96L112.089 125.565L111.829 124.96H111.171V125.96ZM84.6106 125.96V124.96H83.9518L83.6918 125.565L84.6106 125.96ZM79.0106 139V140H79.6695L79.9295 139.395L79.0106 139ZM69.8106 139L68.8962 138.595L68.2744 140H69.8106V139ZM93.8906 84.6V83.6H93.2397L92.9762 84.1952L93.8906 84.6ZM101.971 84.6L102.886 84.1964L102.622 83.6H101.971V84.6ZM125.971 139V140H127.505L126.886 138.596L125.971 139ZM87.8106 118.28L86.892 117.885L86.292 119.28H87.8106V118.28ZM107.891 118.28V119.28H109.404L108.81 117.888L107.891 118.28ZM97.8906 94.84L98.8104 94.4476L97.8943 92.3002L96.972 94.4449L97.8906 94.84ZM117.689 138.605L112.089 125.565L110.252 126.355L115.852 139.395L117.689 138.605ZM111.171 124.96H84.6106V126.96H111.171V124.96ZM83.6918 125.565L78.0918 138.605L79.9295 139.395L85.5295 126.355L83.6918 125.565ZM79.0106 138H69.8106V140H79.0106V138ZM70.725 139.405L94.805 85.0048L92.9762 84.1952L68.8962 138.595L70.725 139.405ZM93.8906 85.6H101.971V83.6H93.8906V85.6ZM101.056 85.0036L125.056 139.404L126.886 138.596L102.886 84.1964L101.056 85.0036ZM125.971 138H116.771V140H125.971V138ZM87.8106 119.28H107.891V117.28H87.8106V119.28ZM108.81 117.888L98.8104 94.4476L96.9708 95.2324L106.971 118.672L108.81 117.888ZM96.972 94.4449L86.892 117.885L88.7293 118.675L98.8093 95.2351L96.972 94.4449ZM156.224 109.48V108.48H155.224V109.48H156.224ZM183.904 109.48H184.904V108.48H183.904V109.48ZM183.904 139V140H184.904V139H183.904ZM177.104 139L176.107 139.068L176.17 140H177.104V139ZM176.464 129.64L177.462 129.572L177.247 126.426L175.61 129.121L176.464 129.64ZM183.424 103.08V104.08H184.701L184.395 102.84L183.424 103.08ZM174.224 103.08L173.276 103.396L173.504 104.08H174.224V103.08ZM174.544 117.48L175.519 117.705L175.801 116.48H174.544V117.48ZM156.224 117.48H155.224V118.48H156.224V117.48ZM156.224 110.48H183.904V108.48H156.224V110.48ZM182.904 109.48V139H184.904V109.48H182.904ZM183.904 138H177.104V140H183.904V138ZM178.102 138.932L177.462 129.572L175.467 129.708L176.107 139.068L178.102 138.932ZM175.61 129.121C171.959 135.129 165.811 138.96 156.864 138.96V140.96C166.478 140.96 173.29 136.791 177.319 130.159L175.61 129.121ZM156.864 138.96C141.177 138.96 129.704 126.928 129.704 112.36H127.704C127.704 128.032 140.072 140.96 156.864 140.96V138.96ZM129.704 112.36C129.704 96.0488 141.96 84.64 157.264 84.64V82.64C140.889 82.64 127.704 94.9112 127.704 112.36H129.704ZM157.264 84.64C168.666 84.64 179.386 90.8978 182.454 103.32L184.395 102.84C181.062 89.3422 169.383 82.64 157.264 82.64V84.64ZM183.424 102.08H174.224V104.08H183.424V102.08ZM175.173 102.764C172.194 93.8255 164.1 90.64 157.424 90.64V92.64C163.549 92.64 170.655 95.5345 173.276 103.396L175.173 102.764ZM157.424 90.64C145.414 90.64 136.424 99.5061 136.424 112.36H138.424C138.424 100.574 146.555 92.64 157.424 92.64V90.64ZM136.424 112.36C136.424 123.349 144.669 132.88 156.864 132.88V130.88C145.859 130.88 138.424 122.331 138.424 112.36H136.424ZM156.864 132.88C161.887 132.88 166.063 131.285 169.236 128.559C172.402 125.839 174.518 122.039 175.519 117.705L173.57 117.255C172.65 121.241 170.727 124.641 167.933 127.041C165.146 129.435 161.442 130.88 156.864 130.88V132.88ZM174.544 116.48H156.224V118.48H174.544V116.48ZM157.224 117.48V109.48H155.224V117.48H157.224ZM237.239 84.6V83.6H236.239V84.6H237.239ZM245.799 84.6H246.799V83.6H245.799V84.6ZM245.799 139V140H246.799V139H245.799ZM238.919 139L238.151 139.641L238.451 140H238.919V139ZM206.839 100.6L207.606 99.9589L205.839 97.8432V100.6H206.839ZM206.839 139V140H207.839V139H206.839ZM198.199 139H197.199V140H198.199V139ZM198.199 84.6V83.6H197.199V84.6H198.199ZM204.839 84.6L205.61 83.9629L205.31 83.6H204.839V84.6ZM237.239 123.8L236.468 124.437L238.239 126.58V123.8H237.239ZM237.239 85.6H245.799V83.6H237.239V85.6ZM244.799 84.6V139H246.799V84.6H244.799ZM245.799 138H238.919V140H245.799V138ZM239.686 138.359L207.606 99.9589L206.071 101.241L238.151 139.641L239.686 138.359ZM205.839 100.6V139H207.839V100.6H205.839ZM206.839 138H198.199V140H206.839V138ZM199.199 139V84.6H197.199V139H199.199ZM198.199 85.6H204.839V83.6H198.199V85.6ZM204.068 85.2371L236.468 124.437L238.01 123.163L205.61 83.9629L204.068 85.2371ZM238.239 123.8V84.6H236.239V123.8H238.239ZM301.146 139L300.227 139.395L300.487 140H301.146V139ZM295.546 125.96L296.464 125.565L296.204 124.96H295.546V125.96ZM268.986 125.96V124.96H268.327L268.067 125.565L268.986 125.96ZM263.386 139V140H264.044L264.304 139.395L263.386 139ZM254.186 139L253.271 138.595L252.649 140H254.186V139ZM278.266 84.6V83.6H277.615L277.351 84.1952L278.266 84.6ZM286.346 84.6L287.261 84.1964L286.997 83.6H286.346V84.6ZM310.346 139V140H311.88L311.261 138.596L310.346 139ZM272.186 118.28L271.267 117.885L270.667 119.28H272.186V118.28ZM292.266 118.28V119.28H293.779L293.185 117.888L292.266 118.28ZM282.266 94.84L283.185 94.4476L282.269 92.3002L281.347 94.4449L282.266 94.84ZM302.064 138.605L296.464 125.565L294.627 126.355L300.227 139.395L302.064 138.605ZM295.546 124.96H268.986V126.96H295.546V124.96ZM268.067 125.565L262.467 138.605L264.304 139.395L269.904 126.355L268.067 125.565ZM263.386 138H254.186V140H263.386V138ZM255.1 139.405L279.18 85.0048L277.351 84.1952L253.271 138.595L255.1 139.405ZM278.266 85.6H286.346V83.6H278.266V85.6ZM285.431 85.0036L309.431 139.404L311.261 138.596L287.261 84.1964L285.431 85.0036ZM310.346 138H301.146V140H310.346V138ZM272.186 119.28H292.266V117.28H272.186V119.28ZM293.185 117.888L283.185 94.4476L281.346 95.2324L291.346 118.672L293.185 117.888ZM281.347 94.4449L271.267 117.885L273.104 118.675L283.184 95.2351L281.347 94.4449Z" fill="#808080" mask="url(#path-3-outside-2_3118_1765)"/>
<g opacity="0.6">
<mask id="path-5-outside-3_3118_1765" maskUnits="userSpaceOnUse" x="5" y="346" width="358" height="139" fill="black">
<rect fill="white" x="5" y="346" width="358" height="139"/>
<path d="M6.48 348.6H15.12V403H6.48V348.6ZM67.0825 348.6H75.6425V403H68.7625L36.6825 364.6V403H28.0425V348.6H34.6825L67.0825 387.8V348.6ZM130.688 348.6V356.52H111.408V403H102.848V356.52H83.5681V348.6H130.688ZM177.629 356.52H147.229V372.12H174.429V380.04H147.229V395H177.629V403H138.589V348.6H177.629V356.52ZM212.474 373.48H240.154V403H233.354L232.714 393.64C228.874 399.96 222.394 403.96 213.114 403.96C196.874 403.96 184.954 391.48 184.954 376.36C184.954 359.48 197.674 347.64 213.514 347.64C225.274 347.64 236.474 354.12 239.674 367.08H230.474C227.674 358.68 220.074 355.64 213.674 355.64C202.234 355.64 193.674 364.04 193.674 376.36C193.674 386.84 201.514 395.88 213.114 395.88C222.714 395.88 228.874 389.8 230.794 381.48H212.474V373.48ZM289.729 403L275.649 384.6H263.089V403H254.449V348.6H276.289C288.449 348.6 297.249 355.64 297.249 366.6C297.249 374.68 292.449 380.68 285.089 383.24L300.289 403H289.729ZM263.089 356.52V376.68H275.969C283.249 376.68 288.769 372.84 288.769 366.6C288.769 360.36 283.249 356.52 275.969 356.52H263.089ZM351.38 403L345.78 389.96H319.22L313.62 403H304.42L328.5 348.6H336.58L360.58 403H351.38ZM322.42 382.28H342.5L332.5 358.84L322.42 382.28ZM61.36 428.6V483H52.8V447.56L36.64 473.8H31.28L14.96 447.32L15.12 483H6.48V428.6H12.72L33.92 463.16L55.12 428.6H61.36ZM116.771 483L111.171 469.96H84.6106L79.0106 483H69.8106L93.8906 428.6H101.971L125.971 483H116.771ZM87.8106 462.28H107.891L97.8906 438.84L87.8106 462.28ZM156.224 453.48H183.904V483H177.104L176.464 473.64C172.624 479.96 166.144 483.96 156.864 483.96C140.624 483.96 128.704 471.48 128.704 456.36C128.704 439.48 141.424 427.64 157.264 427.64C169.024 427.64 180.224 434.12 183.424 447.08H174.224C171.424 438.68 163.824 435.64 157.424 435.64C145.984 435.64 137.424 444.04 137.424 456.36C137.424 466.84 145.264 475.88 156.864 475.88C166.464 475.88 172.624 469.8 174.544 461.48H156.224V453.48ZM237.239 428.6H245.799V483H238.919L206.839 444.6V483H198.199V428.6H204.839L237.239 467.8V428.6ZM301.146 483L295.546 469.96H268.986L263.386 483H254.186L278.266 428.6H286.346L310.346 483H301.146ZM272.186 462.28H292.266L282.266 438.84L272.186 462.28Z"/>
</mask>
<path d="M6.48 348.6V347.6H5.48V348.6H6.48ZM15.12 348.6H16.12V347.6H15.12V348.6ZM15.12 403V404H16.12V403H15.12ZM6.48 403H5.48V404H6.48V403ZM6.48 349.6H15.12V347.6H6.48V349.6ZM14.12 348.6V403H16.12V348.6H14.12ZM15.12 402H6.48V404H15.12V402ZM7.48 403V348.6H5.48V403H7.48ZM67.0825 348.6V347.6H66.0825V348.6H67.0825ZM75.6425 348.6H76.6425V347.6H75.6425V348.6ZM75.6425 403V404H76.6425V403H75.6425ZM68.7625 403L67.9951 403.641L68.2949 404H68.7625V403ZM36.6825 364.6L37.4499 363.959L35.6825 361.843V364.6H36.6825ZM36.6825 403V404H37.6825V403H36.6825ZM28.0425 403H27.0425V404H28.0425V403ZM28.0425 348.6V347.6H27.0425V348.6H28.0425ZM34.6825 348.6L35.4533 347.963L35.1533 347.6H34.6825V348.6ZM67.0825 387.8L66.3117 388.437L68.0825 390.58V387.8H67.0825ZM67.0825 349.6H75.6425V347.6H67.0825V349.6ZM74.6425 348.6V403H76.6425V348.6H74.6425ZM75.6425 402H68.7625V404H75.6425V402ZM69.5299 402.359L37.4499 363.959L35.9151 365.241L67.9951 403.641L69.5299 402.359ZM35.6825 364.6V403H37.6825V364.6H35.6825ZM36.6825 402H28.0425V404H36.6825V402ZM29.0425 403V348.6H27.0425V403H29.0425ZM28.0425 349.6H34.6825V347.6H28.0425V349.6ZM33.9117 349.237L66.3117 388.437L67.8533 387.163L35.4533 347.963L33.9117 349.237ZM68.0825 387.8V348.6H66.0825V387.8H68.0825ZM130.688 348.6H131.688V347.6H130.688V348.6ZM130.688 356.52V357.52H131.688V356.52H130.688ZM111.408 356.52V355.52H110.408V356.52H111.408ZM111.408 403V404H112.408V403H111.408ZM102.848 403H101.848V404H102.848V403ZM102.848 356.52H103.848V355.52H102.848V356.52ZM83.5681 356.52H82.5681V357.52H83.5681V356.52ZM83.5681 348.6V347.6H82.5681V348.6H83.5681ZM129.688 348.6V356.52H131.688V348.6H129.688ZM130.688 355.52H111.408V357.52H130.688V355.52ZM110.408 356.52V403H112.408V356.52H110.408ZM111.408 402H102.848V404H111.408V402ZM103.848 403V356.52H101.848V403H103.848ZM102.848 355.52H83.5681V357.52H102.848V355.52ZM84.5681 356.52V348.6H82.5681V356.52H84.5681ZM83.5681 349.6H130.688V347.6H83.5681V349.6ZM177.629 356.52V357.52H178.629V356.52H177.629ZM147.229 356.52V355.52H146.229V356.52H147.229ZM147.229 372.12H146.229V373.12H147.229V372.12ZM174.429 372.12H175.429V371.12H174.429V372.12ZM174.429 380.04V381.04H175.429V380.04H174.429ZM147.229 380.04V379.04H146.229V380.04H147.229ZM147.229 395H146.229V396H147.229V395ZM177.629 395H178.629V394H177.629V395ZM177.629 403V404H178.629V403H177.629ZM138.589 403H137.589V404H138.589V403ZM138.589 348.6V347.6H137.589V348.6H138.589ZM177.629 348.6H178.629V347.6H177.629V348.6ZM177.629 355.52H147.229V357.52H177.629V355.52ZM146.229 356.52V372.12H148.229V356.52H146.229ZM147.229 373.12H174.429V371.12H147.229V373.12ZM173.429 372.12V380.04H175.429V372.12H173.429ZM174.429 379.04H147.229V381.04H174.429V379.04ZM146.229 380.04V395H148.229V380.04H146.229ZM147.229 396H177.629V394H147.229V396ZM176.629 395V403H178.629V395H176.629ZM177.629 402H138.589V404H177.629V402ZM139.589 403V348.6H137.589V403H139.589ZM138.589 349.6H177.629V347.6H138.589V349.6ZM176.629 348.6V356.52H178.629V348.6H176.629ZM212.474 373.48V372.48H211.474V373.48H212.474ZM240.154 373.48H241.154V372.48H240.154V373.48ZM240.154 403V404H241.154V403H240.154ZM233.354 403L232.357 403.068L232.42 404H233.354V403ZM232.714 393.64L233.712 393.572L233.497 390.426L231.86 393.121L232.714 393.64ZM239.674 367.08V368.08H240.951L240.645 366.84L239.674 367.08ZM230.474 367.08L229.526 367.396L229.754 368.08H230.474V367.08ZM230.794 381.48L231.769 381.705L232.051 380.48H230.794V381.48ZM212.474 381.48H211.474V382.48H212.474V381.48ZM212.474 374.48H240.154V372.48H212.474V374.48ZM239.154 373.48V403H241.154V373.48H239.154ZM240.154 402H233.354V404H240.154V402ZM234.352 402.932L233.712 393.572L231.717 393.708L232.357 403.068L234.352 402.932ZM231.86 393.121C228.209 399.129 222.061 402.96 213.114 402.96V404.96C222.728 404.96 229.54 400.791 233.569 394.159L231.86 393.121ZM213.114 402.96C197.427 402.96 185.954 390.928 185.954 376.36H183.954C183.954 392.032 196.322 404.96 213.114 404.96V402.96ZM185.954 376.36C185.954 360.049 198.21 348.64 213.514 348.64V346.64C197.139 346.64 183.954 358.911 183.954 376.36H185.954ZM213.514 348.64C224.916 348.64 235.636 354.898 238.704 367.32L240.645 366.84C237.312 353.342 225.633 346.64 213.514 346.64V348.64ZM239.674 366.08H230.474V368.08H239.674V366.08ZM231.423 366.764C228.444 357.825 220.35 354.64 213.674 354.64V356.64C219.799 356.64 226.905 359.535 229.526 367.396L231.423 366.764ZM213.674 354.64C201.664 354.64 192.674 363.506 192.674 376.36H194.674C194.674 364.574 202.805 356.64 213.674 356.64V354.64ZM192.674 376.36C192.674 387.349 200.919 396.88 213.114 396.88V394.88C202.109 394.88 194.674 386.331 194.674 376.36H192.674ZM213.114 396.88C218.137 396.88 222.313 395.285 225.486 392.559C228.652 389.839 230.768 386.039 231.769 381.705L229.82 381.255C228.9 385.241 226.977 388.641 224.183 391.041C221.396 393.435 217.692 394.88 213.114 394.88V396.88ZM230.794 380.48H212.474V382.48H230.794V380.48ZM213.474 381.48V373.48H211.474V381.48H213.474ZM289.729 403L288.935 403.608L289.235 404H289.729V403ZM275.649 384.6L276.443 383.992L276.143 383.6H275.649V384.6ZM263.089 384.6V383.6H262.089V384.6H263.089ZM263.089 403V404H264.089V403H263.089ZM254.449 403H253.449V404H254.449V403ZM254.449 348.6V347.6H253.449V348.6H254.449ZM285.089 383.24L284.76 382.296L283.451 382.751L284.296 383.85L285.089 383.24ZM300.289 403V404H302.32L301.081 402.39L300.289 403ZM263.089 356.52V355.52H262.089V356.52H263.089ZM263.089 376.68H262.089V377.68H263.089V376.68ZM290.523 402.392L276.443 383.992L274.855 385.208L288.935 403.608L290.523 402.392ZM275.649 383.6H263.089V385.6H275.649V383.6ZM262.089 384.6V403H264.089V384.6H262.089ZM263.089 402H254.449V404H263.089V402ZM255.449 403V348.6H253.449V403H255.449ZM254.449 349.6H276.289V347.6H254.449V349.6ZM276.289 349.6C282.182 349.6 287.179 351.306 290.685 354.255C294.175 357.192 296.249 361.41 296.249 366.6H298.249C298.249 360.83 295.922 356.048 291.973 352.725C288.038 349.414 282.556 347.6 276.289 347.6V349.6ZM296.249 366.6C296.249 374.214 291.757 379.862 284.76 382.296L285.417 384.184C293.14 381.498 298.249 375.146 298.249 366.6H296.249ZM284.296 383.85L299.496 403.61L301.081 402.39L285.881 382.63L284.296 383.85ZM300.289 402H289.729V404H300.289V402ZM262.089 356.52V376.68H264.089V356.52H262.089ZM263.089 377.68H275.969V375.68H263.089V377.68ZM275.969 377.68C279.773 377.68 283.201 376.678 285.704 374.776C288.229 372.857 289.769 370.049 289.769 366.6H287.769C287.769 369.391 286.548 371.623 284.494 373.184C282.416 374.762 279.444 375.68 275.969 375.68V377.68ZM289.769 366.6C289.769 363.151 288.229 360.343 285.704 358.424C283.201 356.522 279.773 355.52 275.969 355.52V357.52C279.444 357.52 282.416 358.438 284.494 360.016C286.548 361.577 287.769 363.809 287.769 366.6H289.769ZM275.969 355.52H263.089V357.52H275.969V355.52ZM351.38 403L350.461 403.395L350.721 404H351.38V403ZM345.78 389.96L346.699 389.565L346.439 388.96H345.78V389.96ZM319.22 389.96V388.96H318.561L318.301 389.565L319.22 389.96ZM313.62 403V404H314.279L314.539 403.395L313.62 403ZM304.42 403L303.506 402.595L302.884 404H304.42V403ZM328.5 348.6V347.6H327.849L327.586 348.195L328.5 348.6ZM336.58 348.6L337.495 348.196L337.232 347.6H336.58V348.6ZM360.58 403V404H362.114L361.495 402.596L360.58 403ZM322.42 382.28L321.501 381.885L320.901 383.28H322.42V382.28ZM342.5 382.28V383.28H344.014L343.42 381.888L342.5 382.28ZM332.5 358.84L333.42 358.448L332.504 356.3L331.581 358.445L332.5 358.84ZM352.299 402.605L346.699 389.565L344.861 390.355L350.461 403.395L352.299 402.605ZM345.78 388.96H319.22V390.96H345.78V388.96ZM318.301 389.565L312.701 402.605L314.539 403.395L320.139 390.355L318.301 389.565ZM313.62 402H304.42V404H313.62V402ZM305.334 403.405L329.414 349.005L327.586 348.195L303.506 402.595L305.334 403.405ZM328.5 349.6H336.58V347.6H328.5V349.6ZM335.665 349.004L359.665 403.404L361.495 402.596L337.495 348.196L335.665 349.004ZM360.58 402H351.38V404H360.58V402ZM322.42 383.28H342.5V381.28H322.42V383.28ZM343.42 381.888L333.42 358.448L331.58 359.232L341.58 382.672L343.42 381.888ZM331.581 358.445L321.501 381.885L323.339 382.675L333.419 359.235L331.581 358.445ZM61.36 428.6H62.36V427.6H61.36V428.6ZM61.36 483V484H62.36V483H61.36ZM52.8 483H51.8V484H52.8V483ZM52.8 447.56H53.8V444.029L51.9485 447.036L52.8 447.56ZM36.64 473.8V474.8H37.1986L37.4915 474.324L36.64 473.8ZM31.28 473.8L30.4287 474.325L30.7216 474.8H31.28V473.8ZM14.96 447.32L15.8113 446.795L13.9441 443.766L13.96 447.324L14.96 447.32ZM15.12 483V484H16.1245L16.12 482.996L15.12 483ZM6.48 483H5.48V484H6.48V483ZM6.48 428.6V427.6H5.48V428.6H6.48ZM12.72 428.6L13.5724 428.077L13.2797 427.6H12.72V428.6ZM33.92 463.16L33.0676 463.683L33.92 465.072L34.7724 463.683L33.92 463.16ZM55.12 428.6V427.6H54.5603L54.2676 428.077L55.12 428.6ZM60.36 428.6V483H62.36V428.6H60.36ZM61.36 482H52.8V484H61.36V482ZM53.8 483V447.56H51.8V483H53.8ZM51.9485 447.036L35.7885 473.276L37.4915 474.324L53.6515 448.084L51.9485 447.036ZM36.64 472.8H31.28V474.8H36.64V472.8ZM32.1313 473.275L15.8113 446.795L14.1087 447.845L30.4287 474.325L32.1313 473.275ZM13.96 447.324L14.12 483.004L16.12 482.996L15.96 447.316L13.96 447.324ZM15.12 482H6.48V484H15.12V482ZM7.48 483V428.6H5.48V483H7.48ZM6.48 429.6H12.72V427.6H6.48V429.6ZM11.8676 429.123L33.0676 463.683L34.7724 462.637L13.5724 428.077L11.8676 429.123ZM34.7724 463.683L55.9724 429.123L54.2676 428.077L33.0676 462.637L34.7724 463.683ZM55.12 429.6H61.36V427.6H55.12V429.6ZM116.771 483L115.852 483.395L116.112 484H116.771V483ZM111.171 469.96L112.089 469.565L111.829 468.96H111.171V469.96ZM84.6106 469.96V468.96H83.9518L83.6918 469.565L84.6106 469.96ZM79.0106 483V484H79.6695L79.9295 483.395L79.0106 483ZM69.8106 483L68.8962 482.595L68.2744 484H69.8106V483ZM93.8906 428.6V427.6H93.2397L92.9762 428.195L93.8906 428.6ZM101.971 428.6L102.886 428.196L102.622 427.6H101.971V428.6ZM125.971 483V484H127.505L126.886 482.596L125.971 483ZM87.8106 462.28L86.892 461.885L86.292 463.28H87.8106V462.28ZM107.891 462.28V463.28H109.404L108.81 461.888L107.891 462.28ZM97.8906 438.84L98.8104 438.448L97.8943 436.3L96.972 438.445L97.8906 438.84ZM117.689 482.605L112.089 469.565L110.252 470.355L115.852 483.395L117.689 482.605ZM111.171 468.96H84.6106V470.96H111.171V468.96ZM83.6918 469.565L78.0918 482.605L79.9295 483.395L85.5295 470.355L83.6918 469.565ZM79.0106 482H69.8106V484H79.0106V482ZM70.725 483.405L94.805 429.005L92.9762 428.195L68.8962 482.595L70.725 483.405ZM93.8906 429.6H101.971V427.6H93.8906V429.6ZM101.056 429.004L125.056 483.404L126.886 482.596L102.886 428.196L101.056 429.004ZM125.971 482H116.771V484H125.971V482ZM87.8106 463.28H107.891V461.28H87.8106V463.28ZM108.81 461.888L98.8104 438.448L96.9708 439.232L106.971 462.672L108.81 461.888ZM96.972 438.445L86.892 461.885L88.7293 462.675L98.8093 439.235L96.972 438.445ZM156.224 453.48V452.48H155.224V453.48H156.224ZM183.904 453.48H184.904V452.48H183.904V453.48ZM183.904 483V484H184.904V483H183.904ZM177.104 483L176.107 483.068L176.17 484H177.104V483ZM176.464 473.64L177.462 473.572L177.247 470.426L175.61 473.121L176.464 473.64ZM183.424 447.08V448.08H184.701L184.395 446.84L183.424 447.08ZM174.224 447.08L173.276 447.396L173.504 448.08H174.224V447.08ZM174.544 461.48L175.519 461.705L175.801 460.48H174.544V461.48ZM156.224 461.48H155.224V462.48H156.224V461.48ZM156.224 454.48H183.904V452.48H156.224V454.48ZM182.904 453.48V483H184.904V453.48H182.904ZM183.904 482H177.104V484H183.904V482ZM178.102 482.932L177.462 473.572L175.467 473.708L176.107 483.068L178.102 482.932ZM175.61 473.121C171.959 479.129 165.811 482.96 156.864 482.96V484.96C166.478 484.96 173.29 480.791 177.319 474.159L175.61 473.121ZM156.864 482.96C141.177 482.96 129.704 470.928 129.704 456.36H127.704C127.704 472.032 140.072 484.96 156.864 484.96V482.96ZM129.704 456.36C129.704 440.049 141.96 428.64 157.264 428.64V426.64C140.889 426.64 127.704 438.911 127.704 456.36H129.704ZM157.264 428.64C168.666 428.64 179.386 434.898 182.454 447.32L184.395 446.84C181.062 433.342 169.383 426.64 157.264 426.64V428.64ZM183.424 446.08H174.224V448.08H183.424V446.08ZM175.173 446.764C172.194 437.825 164.1 434.64 157.424 434.64V436.64C163.549 436.64 170.655 439.535 173.276 447.396L175.173 446.764ZM157.424 434.64C145.414 434.64 136.424 443.506 136.424 456.36H138.424C138.424 444.574 146.555 436.64 157.424 436.64V434.64ZM136.424 456.36C136.424 467.349 144.669 476.88 156.864 476.88V474.88C145.859 474.88 138.424 466.331 138.424 456.36H136.424ZM156.864 476.88C161.887 476.88 166.063 475.285 169.236 472.559C172.402 469.839 174.518 466.039 175.519 461.705L173.57 461.255C172.65 465.241 170.727 468.641 167.933 471.041C165.146 473.435 161.442 474.88 156.864 474.88V476.88ZM174.544 460.48H156.224V462.48H174.544V460.48ZM157.224 461.48V453.48H155.224V461.48H157.224ZM237.239 428.6V427.6H236.239V428.6H237.239ZM245.799 428.6H246.799V427.6H245.799V428.6ZM245.799 483V484H246.799V483H245.799ZM238.919 483L238.151 483.641L238.451 484H238.919V483ZM206.839 444.6L207.606 443.959L205.839 441.843V444.6H206.839ZM206.839 483V484H207.839V483H206.839ZM198.199 483H197.199V484H198.199V483ZM198.199 428.6V427.6H197.199V428.6H198.199ZM204.839 428.6L205.61 427.963L205.31 427.6H204.839V428.6ZM237.239 467.8L236.468 468.437L238.239 470.58V467.8H237.239ZM237.239 429.6H245.799V427.6H237.239V429.6ZM244.799 428.6V483H246.799V428.6H244.799ZM245.799 482H238.919V484H245.799V482ZM239.686 482.359L207.606 443.959L206.071 445.241L238.151 483.641L239.686 482.359ZM205.839 444.6V483H207.839V444.6H205.839ZM206.839 482H198.199V484H206.839V482ZM199.199 483V428.6H197.199V483H199.199ZM198.199 429.6H204.839V427.6H198.199V429.6ZM204.068 429.237L236.468 468.437L238.01 467.163L205.61 427.963L204.068 429.237ZM238.239 467.8V428.6H236.239V467.8H238.239ZM301.146 483L300.227 483.395L300.487 484H301.146V483ZM295.546 469.96L296.464 469.565L296.204 468.96H295.546V469.96ZM268.986 469.96V468.96H268.327L268.067 469.565L268.986 469.96ZM263.386 483V484H264.044L264.304 483.395L263.386 483ZM254.186 483L253.271 482.595L252.649 484H254.186V483ZM278.266 428.6V427.6H277.615L277.351 428.195L278.266 428.6ZM286.346 428.6L287.261 428.196L286.997 427.6H286.346V428.6ZM310.346 483V484H311.88L311.261 482.596L310.346 483ZM272.186 462.28L271.267 461.885L270.667 463.28H272.186V462.28ZM292.266 462.28V463.28H293.779L293.185 461.888L292.266 462.28ZM282.266 438.84L283.185 438.448L282.269 436.3L281.347 438.445L282.266 438.84ZM302.064 482.605L296.464 469.565L294.627 470.355L300.227 483.395L302.064 482.605ZM295.546 468.96H268.986V470.96H295.546V468.96ZM268.067 469.565L262.467 482.605L264.304 483.395L269.904 470.355L268.067 469.565ZM263.386 482H254.186V484H263.386V482ZM255.1 483.405L279.18 429.005L277.351 428.195L253.271 482.595L255.1 483.405ZM278.266 429.6H286.346V427.6H278.266V429.6ZM285.431 429.004L309.431 483.404L311.261 482.596L287.261 428.196L285.431 429.004ZM310.346 482H301.146V484H310.346V482ZM272.186 463.28H292.266V461.28H272.186V463.28ZM293.185 461.888L283.185 438.448L281.346 439.232L291.346 462.672L293.185 461.888ZM281.347 438.445L271.267 461.885L273.104 462.675L283.184 439.235L281.347 438.445Z" fill="#808080" mask="url(#path-5-outside-3_3118_1765)"/>
</g>
<g opacity="0.4">
<mask id="path-7-outside-4_3118_1765" maskUnits="userSpaceOnUse" x="5" y="518" width="358" height="139" fill="black">
<rect fill="white" x="5" y="518" width="358" height="139"/>
<path d="M6.48 520.6H15.12V575H6.48V520.6ZM67.0825 520.6H75.6425V575H68.7625L36.6825 536.6V575H28.0425V520.6H34.6825L67.0825 559.8V520.6ZM130.688 520.6V528.52H111.408V575H102.848V528.52H83.5681V520.6H130.688ZM177.629 528.52H147.229V544.12H174.429V552.04H147.229V567H177.629V575H138.589V520.6H177.629V528.52ZM212.474 545.48H240.154V575H233.354L232.714 565.64C228.874 571.96 222.394 575.96 213.114 575.96C196.874 575.96 184.954 563.48 184.954 548.36C184.954 531.48 197.674 519.64 213.514 519.64C225.274 519.64 236.474 526.12 239.674 539.08H230.474C227.674 530.68 220.074 527.64 213.674 527.64C202.234 527.64 193.674 536.04 193.674 548.36C193.674 558.84 201.514 567.88 213.114 567.88C222.714 567.88 228.874 561.8 230.794 553.48H212.474V545.48ZM289.729 575L275.649 556.6H263.089V575H254.449V520.6H276.289C288.449 520.6 297.249 527.64 297.249 538.6C297.249 546.68 292.449 552.68 285.089 555.24L300.289 575H289.729ZM263.089 528.52V548.68H275.969C283.249 548.68 288.769 544.84 288.769 538.6C288.769 532.36 283.249 528.52 275.969 528.52H263.089ZM351.38 575L345.78 561.96H319.22L313.62 575H304.42L328.5 520.6H336.58L360.58 575H351.38ZM322.42 554.28H342.5L332.5 530.84L322.42 554.28ZM61.36 600.6V655H52.8V619.56L36.64 645.8H31.28L14.96 619.32L15.12 655H6.48V600.6H12.72L33.92 635.16L55.12 600.6H61.36ZM116.771 655L111.171 641.96H84.6106L79.0106 655H69.8106L93.8906 600.6H101.971L125.971 655H116.771ZM87.8106 634.28H107.891L97.8906 610.84L87.8106 634.28ZM156.224 625.48H183.904V655H177.104L176.464 645.64C172.624 651.96 166.144 655.96 156.864 655.96C140.624 655.96 128.704 643.48 128.704 628.36C128.704 611.48 141.424 599.64 157.264 599.64C169.024 599.64 180.224 606.12 183.424 619.08H174.224C171.424 610.68 163.824 607.64 157.424 607.64C145.984 607.64 137.424 616.04 137.424 628.36C137.424 638.84 145.264 647.88 156.864 647.88C166.464 647.88 172.624 641.8 174.544 633.48H156.224V625.48ZM237.239 600.6H245.799V655H238.919L206.839 616.6V655H198.199V600.6H204.839L237.239 639.8V600.6ZM301.146 655L295.546 641.96H268.986L263.386 655H254.186L278.266 600.6H286.346L310.346 655H301.146ZM272.186 634.28H292.266L282.266 610.84L272.186 634.28Z"/>
</mask>
<path d="M6.48 520.6V519.6H5.48V520.6H6.48ZM15.12 520.6H16.12V519.6H15.12V520.6ZM15.12 575V576H16.12V575H15.12ZM6.48 575H5.48V576H6.48V575ZM6.48 521.6H15.12V519.6H6.48V521.6ZM14.12 520.6V575H16.12V520.6H14.12ZM15.12 574H6.48V576H15.12V574ZM7.48 575V520.6H5.48V575H7.48ZM67.0825 520.6V519.6H66.0825V520.6H67.0825ZM75.6425 520.6H76.6425V519.6H75.6425V520.6ZM75.6425 575V576H76.6425V575H75.6425ZM68.7625 575L67.9951 575.641L68.2949 576H68.7625V575ZM36.6825 536.6L37.4499 535.959L35.6825 533.843V536.6H36.6825ZM36.6825 575V576H37.6825V575H36.6825ZM28.0425 575H27.0425V576H28.0425V575ZM28.0425 520.6V519.6H27.0425V520.6H28.0425ZM34.6825 520.6L35.4533 519.963L35.1533 519.6H34.6825V520.6ZM67.0825 559.8L66.3117 560.437L68.0825 562.58V559.8H67.0825ZM67.0825 521.6H75.6425V519.6H67.0825V521.6ZM74.6425 520.6V575H76.6425V520.6H74.6425ZM75.6425 574H68.7625V576H75.6425V574ZM69.5299 574.359L37.4499 535.959L35.9151 537.241L67.9951 575.641L69.5299 574.359ZM35.6825 536.6V575H37.6825V536.6H35.6825ZM36.6825 574H28.0425V576H36.6825V574ZM29.0425 575V520.6H27.0425V575H29.0425ZM28.0425 521.6H34.6825V519.6H28.0425V521.6ZM33.9117 521.237L66.3117 560.437L67.8533 559.163L35.4533 519.963L33.9117 521.237ZM68.0825 559.8V520.6H66.0825V559.8H68.0825ZM130.688 520.6H131.688V519.6H130.688V520.6ZM130.688 528.52V529.52H131.688V528.52H130.688ZM111.408 528.52V527.52H110.408V528.52H111.408ZM111.408 575V576H112.408V575H111.408ZM102.848 575H101.848V576H102.848V575ZM102.848 528.52H103.848V527.52H102.848V528.52ZM83.5681 528.52H82.5681V529.52H83.5681V528.52ZM83.5681 520.6V519.6H82.5681V520.6H83.5681ZM129.688 520.6V528.52H131.688V520.6H129.688ZM130.688 527.52H111.408V529.52H130.688V527.52ZM110.408 528.52V575H112.408V528.52H110.408ZM111.408 574H102.848V576H111.408V574ZM103.848 575V528.52H101.848V575H103.848ZM102.848 527.52H83.5681V529.52H102.848V527.52ZM84.5681 528.52V520.6H82.5681V528.52H84.5681ZM83.5681 521.6H130.688V519.6H83.5681V521.6ZM177.629 528.52V529.52H178.629V528.52H177.629ZM147.229 528.52V527.52H146.229V528.52H147.229ZM147.229 544.12H146.229V545.12H147.229V544.12ZM174.429 544.12H175.429V543.12H174.429V544.12ZM174.429 552.04V553.04H175.429V552.04H174.429ZM147.229 552.04V551.04H146.229V552.04H147.229ZM147.229 567H146.229V568H147.229V567ZM177.629 567H178.629V566H177.629V567ZM177.629 575V576H178.629V575H177.629ZM138.589 575H137.589V576H138.589V575ZM138.589 520.6V519.6H137.589V520.6H138.589ZM177.629 520.6H178.629V519.6H177.629V520.6ZM177.629 527.52H147.229V529.52H177.629V527.52ZM146.229 528.52V544.12H148.229V528.52H146.229ZM147.229 545.12H174.429V543.12H147.229V545.12ZM173.429 544.12V552.04H175.429V544.12H173.429ZM174.429 551.04H147.229V553.04H174.429V551.04ZM146.229 552.04V567H148.229V552.04H146.229ZM147.229 568H177.629V566H147.229V568ZM176.629 567V575H178.629V567H176.629ZM177.629 574H138.589V576H177.629V574ZM139.589 575V520.6H137.589V575H139.589ZM138.589 521.6H177.629V519.6H138.589V521.6ZM176.629 520.6V528.52H178.629V520.6H176.629ZM212.474 545.48V544.48H211.474V545.48H212.474ZM240.154 545.48H241.154V544.48H240.154V545.48ZM240.154 575V576H241.154V575H240.154ZM233.354 575L232.357 575.068L232.42 576H233.354V575ZM232.714 565.64L233.712 565.572L233.497 562.426L231.86 565.121L232.714 565.64ZM239.674 539.08V540.08H240.951L240.645 538.84L239.674 539.08ZM230.474 539.08L229.526 539.396L229.754 540.08H230.474V539.08ZM230.794 553.48L231.769 553.705L232.051 552.48H230.794V553.48ZM212.474 553.48H211.474V554.48H212.474V553.48ZM212.474 546.48H240.154V544.48H212.474V546.48ZM239.154 545.48V575H241.154V545.48H239.154ZM240.154 574H233.354V576H240.154V574ZM234.352 574.932L233.712 565.572L231.717 565.708L232.357 575.068L234.352 574.932ZM231.86 565.121C228.209 571.129 222.061 574.96 213.114 574.96V576.96C222.728 576.96 229.54 572.791 233.569 566.159L231.86 565.121ZM213.114 574.96C197.427 574.96 185.954 562.928 185.954 548.36H183.954C183.954 564.032 196.322 576.96 213.114 576.96V574.96ZM185.954 548.36C185.954 532.049 198.21 520.64 213.514 520.64V518.64C197.139 518.64 183.954 530.911 183.954 548.36H185.954ZM213.514 520.64C224.916 520.64 235.636 526.898 238.704 539.32L240.645 538.84C237.312 525.342 225.633 518.64 213.514 518.64V520.64ZM239.674 538.08H230.474V540.08H239.674V538.08ZM231.423 538.764C228.444 529.825 220.35 526.64 213.674 526.64V528.64C219.799 528.64 226.905 531.535 229.526 539.396L231.423 538.764ZM213.674 526.64C201.664 526.64 192.674 535.506 192.674 548.36H194.674C194.674 536.574 202.805 528.64 213.674 528.64V526.64ZM192.674 548.36C192.674 559.349 200.919 568.88 213.114 568.88V566.88C202.109 566.88 194.674 558.331 194.674 548.36H192.674ZM213.114 568.88C218.137 568.88 222.313 567.285 225.486 564.559C228.652 561.839 230.768 558.039 231.769 553.705L229.82 553.255C228.9 557.241 226.977 560.641 224.183 563.041C221.396 565.435 217.692 566.88 213.114 566.88V568.88ZM230.794 552.48H212.474V554.48H230.794V552.48ZM213.474 553.48V545.48H211.474V553.48H213.474ZM289.729 575L288.935 575.608L289.235 576H289.729V575ZM275.649 556.6L276.443 555.992L276.143 555.6H275.649V556.6ZM263.089 556.6V555.6H262.089V556.6H263.089ZM263.089 575V576H264.089V575H263.089ZM254.449 575H253.449V576H254.449V575ZM254.449 520.6V519.6H253.449V520.6H254.449ZM285.089 555.24L284.76 554.296L283.451 554.751L284.296 555.85L285.089 555.24ZM300.289 575V576H302.32L301.081 574.39L300.289 575ZM263.089 528.52V527.52H262.089V528.52H263.089ZM263.089 548.68H262.089V549.68H263.089V548.68ZM290.523 574.392L276.443 555.992L274.855 557.208L288.935 575.608L290.523 574.392ZM275.649 555.6H263.089V557.6H275.649V555.6ZM262.089 556.6V575H264.089V556.6H262.089ZM263.089 574H254.449V576H263.089V574ZM255.449 575V520.6H253.449V575H255.449ZM254.449 521.6H276.289V519.6H254.449V521.6ZM276.289 521.6C282.182 521.6 287.179 523.306 290.685 526.255C294.175 529.192 296.249 533.41 296.249 538.6H298.249C298.249 532.83 295.922 528.048 291.973 524.725C288.038 521.414 282.556 519.6 276.289 519.6V521.6ZM296.249 538.6C296.249 546.214 291.757 551.862 284.76 554.296L285.417 556.184C293.14 553.498 298.249 547.146 298.249 538.6H296.249ZM284.296 555.85L299.496 575.61L301.081 574.39L285.881 554.63L284.296 555.85ZM300.289 574H289.729V576H300.289V574ZM262.089 528.52V548.68H264.089V528.52H262.089ZM263.089 549.68H275.969V547.68H263.089V549.68ZM275.969 549.68C279.773 549.68 283.201 548.678 285.704 546.776C288.229 544.857 289.769 542.049 289.769 538.6H287.769C287.769 541.391 286.548 543.623 284.494 545.184C282.416 546.762 279.444 547.68 275.969 547.68V549.68ZM289.769 538.6C289.769 535.151 288.229 532.343 285.704 530.424C283.201 528.522 279.773 527.52 275.969 527.52V529.52C279.444 529.52 282.416 530.438 284.494 532.016C286.548 533.577 287.769 535.809 287.769 538.6H289.769ZM275.969 527.52H263.089V529.52H275.969V527.52ZM351.38 575L350.461 575.395L350.721 576H351.38V575ZM345.78 561.96L346.699 561.565L346.439 560.96H345.78V561.96ZM319.22 561.96V560.96H318.561L318.301 561.565L319.22 561.96ZM313.62 575V576H314.279L314.539 575.395L313.62 575ZM304.42 575L303.506 574.595L302.884 576H304.42V575ZM328.5 520.6V519.6H327.849L327.586 520.195L328.5 520.6ZM336.58 520.6L337.495 520.196L337.232 519.6H336.58V520.6ZM360.58 575V576H362.114L361.495 574.596L360.58 575ZM322.42 554.28L321.501 553.885L320.901 555.28H322.42V554.28ZM342.5 554.28V555.28H344.014L343.42 553.888L342.5 554.28ZM332.5 530.84L333.42 530.448L332.504 528.3L331.581 530.445L332.5 530.84ZM352.299 574.605L346.699 561.565L344.861 562.355L350.461 575.395L352.299 574.605ZM345.78 560.96H319.22V562.96H345.78V560.96ZM318.301 561.565L312.701 574.605L314.539 575.395L320.139 562.355L318.301 561.565ZM313.62 574H304.42V576H313.62V574ZM305.334 575.405L329.414 521.005L327.586 520.195L303.506 574.595L305.334 575.405ZM328.5 521.6H336.58V519.6H328.5V521.6ZM335.665 521.004L359.665 575.404L361.495 574.596L337.495 520.196L335.665 521.004ZM360.58 574H351.38V576H360.58V574ZM322.42 555.28H342.5V553.28H322.42V555.28ZM343.42 553.888L333.42 530.448L331.58 531.232L341.58 554.672L343.42 553.888ZM331.581 530.445L321.501 553.885L323.339 554.675L333.419 531.235L331.581 530.445ZM61.36 600.6H62.36V599.6H61.36V600.6ZM61.36 655V656H62.36V655H61.36ZM52.8 655H51.8V656H52.8V655ZM52.8 619.56H53.8V616.029L51.9485 619.036L52.8 619.56ZM36.64 645.8V646.8H37.1986L37.4915 646.324L36.64 645.8ZM31.28 645.8L30.4287 646.325L30.7216 646.8H31.28V645.8ZM14.96 619.32L15.8113 618.795L13.9441 615.766L13.96 619.324L14.96 619.32ZM15.12 655V656H16.1245L16.12 654.996L15.12 655ZM6.48 655H5.48V656H6.48V655ZM6.48 600.6V599.6H5.48V600.6H6.48ZM12.72 600.6L13.5724 600.077L13.2797 599.6H12.72V600.6ZM33.92 635.16L33.0676 635.683L33.92 637.072L34.7724 635.683L33.92 635.16ZM55.12 600.6V599.6H54.5603L54.2676 600.077L55.12 600.6ZM60.36 600.6V655H62.36V600.6H60.36ZM61.36 654H52.8V656H61.36V654ZM53.8 655V619.56H51.8V655H53.8ZM51.9485 619.036L35.7885 645.276L37.4915 646.324L53.6515 620.084L51.9485 619.036ZM36.64 644.8H31.28V646.8H36.64V644.8ZM32.1313 645.275L15.8113 618.795L14.1087 619.845L30.4287 646.325L32.1313 645.275ZM13.96 619.324L14.12 655.004L16.12 654.996L15.96 619.316L13.96 619.324ZM15.12 654H6.48V656H15.12V654ZM7.48 655V600.6H5.48V655H7.48ZM6.48 601.6H12.72V599.6H6.48V601.6ZM11.8676 601.123L33.0676 635.683L34.7724 634.637L13.5724 600.077L11.8676 601.123ZM34.7724 635.683L55.9724 601.123L54.2676 600.077L33.0676 634.637L34.7724 635.683ZM55.12 601.6H61.36V599.6H55.12V601.6ZM116.771 655L115.852 655.395L116.112 656H116.771V655ZM111.171 641.96L112.089 641.565L111.829 640.96H111.171V641.96ZM84.6106 641.96V640.96H83.9518L83.6918 641.565L84.6106 641.96ZM79.0106 655V656H79.6695L79.9295 655.395L79.0106 655ZM69.8106 655L68.8962 654.595L68.2744 656H69.8106V655ZM93.8906 600.6V599.6H93.2397L92.9762 600.195L93.8906 600.6ZM101.971 600.6L102.886 600.196L102.622 599.6H101.971V600.6ZM125.971 655V656H127.505L126.886 654.596L125.971 655ZM87.8106 634.28L86.892 633.885L86.292 635.28H87.8106V634.28ZM107.891 634.28V635.28H109.404L108.81 633.888L107.891 634.28ZM97.8906 610.84L98.8104 610.448L97.8943 608.3L96.972 610.445L97.8906 610.84ZM117.689 654.605L112.089 641.565L110.252 642.355L115.852 655.395L117.689 654.605ZM111.171 640.96H84.6106V642.96H111.171V640.96ZM83.6918 641.565L78.0918 654.605L79.9295 655.395L85.5295 642.355L83.6918 641.565ZM79.0106 654H69.8106V656H79.0106V654ZM70.725 655.405L94.805 601.005L92.9762 600.195L68.8962 654.595L70.725 655.405ZM93.8906 601.6H101.971V599.6H93.8906V601.6ZM101.056 601.004L125.056 655.404L126.886 654.596L102.886 600.196L101.056 601.004ZM125.971 654H116.771V656H125.971V654ZM87.8106 635.28H107.891V633.28H87.8106V635.28ZM108.81 633.888L98.8104 610.448L96.9708 611.232L106.971 634.672L108.81 633.888ZM96.972 610.445L86.892 633.885L88.7293 634.675L98.8093 611.235L96.972 610.445ZM156.224 625.48V624.48H155.224V625.48H156.224ZM183.904 625.48H184.904V624.48H183.904V625.48ZM183.904 655V656H184.904V655H183.904ZM177.104 655L176.107 655.068L176.17 656H177.104V655ZM176.464 645.64L177.462 645.572L177.247 642.426L175.61 645.121L176.464 645.64ZM183.424 619.08V620.08H184.701L184.395 618.84L183.424 619.08ZM174.224 619.08L173.276 619.396L173.504 620.08H174.224V619.08ZM174.544 633.48L175.519 633.705L175.801 632.48H174.544V633.48ZM156.224 633.48H155.224V634.48H156.224V633.48ZM156.224 626.48H183.904V624.48H156.224V626.48ZM182.904 625.48V655H184.904V625.48H182.904ZM183.904 654H177.104V656H183.904V654ZM178.102 654.932L177.462 645.572L175.467 645.708L176.107 655.068L178.102 654.932ZM175.61 645.121C171.959 651.129 165.811 654.96 156.864 654.96V656.96C166.478 656.96 173.29 652.791 177.319 646.159L175.61 645.121ZM156.864 654.96C141.177 654.96 129.704 642.928 129.704 628.36H127.704C127.704 644.032 140.072 656.96 156.864 656.96V654.96ZM129.704 628.36C129.704 612.049 141.96 600.64 157.264 600.64V598.64C140.889 598.64 127.704 610.911 127.704 628.36H129.704ZM157.264 600.64C168.666 600.64 179.386 606.898 182.454 619.32L184.395 618.84C181.062 605.342 169.383 598.64 157.264 598.64V600.64ZM183.424 618.08H174.224V620.08H183.424V618.08ZM175.173 618.764C172.194 609.825 164.1 606.64 157.424 606.64V608.64C163.549 608.64 170.655 611.535 173.276 619.396L175.173 618.764ZM157.424 606.64C145.414 606.64 136.424 615.506 136.424 628.36H138.424C138.424 616.574 146.555 608.64 157.424 608.64V606.64ZM136.424 628.36C136.424 639.349 144.669 648.88 156.864 648.88V646.88C145.859 646.88 138.424 638.331 138.424 628.36H136.424ZM156.864 648.88C161.887 648.88 166.063 647.285 169.236 644.559C172.402 641.839 174.518 638.039 175.519 633.705L173.57 633.255C172.65 637.241 170.727 640.641 167.933 643.041C165.146 645.435 161.442 646.88 156.864 646.88V648.88ZM174.544 632.48H156.224V634.48H174.544V632.48ZM157.224 633.48V625.48H155.224V633.48H157.224ZM237.239 600.6V599.6H236.239V600.6H237.239ZM245.799 600.6H246.799V599.6H245.799V600.6ZM245.799 655V656H246.799V655H245.799ZM238.919 655L238.151 655.641L238.451 656H238.919V655ZM206.839 616.6L207.606 615.959L205.839 613.843V616.6H206.839ZM206.839 655V656H207.839V655H206.839ZM198.199 655H197.199V656H198.199V655ZM198.199 600.6V599.6H197.199V600.6H198.199ZM204.839 600.6L205.61 599.963L205.31 599.6H204.839V600.6ZM237.239 639.8L236.468 640.437L238.239 642.58V639.8H237.239ZM237.239 601.6H245.799V599.6H237.239V601.6ZM244.799 600.6V655H246.799V600.6H244.799ZM245.799 654H238.919V656H245.799V654ZM239.686 654.359L207.606 615.959L206.071 617.241L238.151 655.641L239.686 654.359ZM205.839 616.6V655H207.839V616.6H205.839ZM206.839 654H198.199V656H206.839V654ZM199.199 655V600.6H197.199V655H199.199ZM198.199 601.6H204.839V599.6H198.199V601.6ZM204.068 601.237L236.468 640.437L238.01 639.163L205.61 599.963L204.068 601.237ZM238.239 639.8V600.6H236.239V639.8H238.239ZM301.146 655L300.227 655.395L300.487 656H301.146V655ZM295.546 641.96L296.464 641.565L296.204 640.96H295.546V641.96ZM268.986 641.96V640.96H268.327L268.067 641.565L268.986 641.96ZM263.386 655V656H264.044L264.304 655.395L263.386 655ZM254.186 655L253.271 654.595L252.649 656H254.186V655ZM278.266 600.6V599.6H277.615L277.351 600.195L278.266 600.6ZM286.346 600.6L287.261 600.196L286.997 599.6H286.346V600.6ZM310.346 655V656H311.88L311.261 654.596L310.346 655ZM272.186 634.28L271.267 633.885L270.667 635.28H272.186V634.28ZM292.266 634.28V635.28H293.779L293.185 633.888L292.266 634.28ZM282.266 610.84L283.185 610.448L282.269 608.3L281.347 610.445L282.266 610.84ZM302.064 654.605L296.464 641.565L294.627 642.355L300.227 655.395L302.064 654.605ZM295.546 640.96H268.986V642.96H295.546V640.96ZM268.067 641.565L262.467 654.605L264.304 655.395L269.904 642.355L268.067 641.565ZM263.386 654H254.186V656H263.386V654ZM255.1 655.405L279.18 601.005L277.351 600.195L253.271 654.595L255.1 655.405ZM278.266 601.6H286.346V599.6H278.266V601.6ZM285.431 601.004L309.431 655.404L311.261 654.596L287.261 600.196L285.431 601.004ZM310.346 654H301.146V656H310.346V654ZM272.186 635.28H292.266V633.28H272.186V635.28ZM293.185 633.888L283.185 610.448L281.346 611.232L291.346 634.672L293.185 633.888ZM281.347 610.445L271.267 633.885L273.104 634.675L283.184 611.235L281.347 610.445Z" fill="#808080" mask="url(#path-7-outside-4_3118_1765)"/>
</g>
<g opacity="0.2">
<mask id="path-9-outside-5_3118_1765" maskUnits="userSpaceOnUse" x="5" y="690" width="358" height="139" fill="black">
<rect fill="white" x="5" y="690" width="358" height="139"/>
<path d="M6.48 692.6H15.12V747H6.48V692.6ZM67.0825 692.6H75.6425V747H68.7625L36.6825 708.6V747H28.0425V692.6H34.6825L67.0825 731.8V692.6ZM130.688 692.6V700.52H111.408V747H102.848V700.52H83.5681V692.6H130.688ZM177.629 700.52H147.229V716.12H174.429V724.04H147.229V739H177.629V747H138.589V692.6H177.629V700.52ZM212.474 717.48H240.154V747H233.354L232.714 737.64C228.874 743.96 222.394 747.96 213.114 747.96C196.874 747.96 184.954 735.48 184.954 720.36C184.954 703.48 197.674 691.64 213.514 691.64C225.274 691.64 236.474 698.12 239.674 711.08H230.474C227.674 702.68 220.074 699.64 213.674 699.64C202.234 699.64 193.674 708.04 193.674 720.36C193.674 730.84 201.514 739.88 213.114 739.88C222.714 739.88 228.874 733.8 230.794 725.48H212.474V717.48ZM289.729 747L275.649 728.6H263.089V747H254.449V692.6H276.289C288.449 692.6 297.249 699.64 297.249 710.6C297.249 718.68 292.449 724.68 285.089 727.24L300.289 747H289.729ZM263.089 700.52V720.68H275.969C283.249 720.68 288.769 716.84 288.769 710.6C288.769 704.36 283.249 700.52 275.969 700.52H263.089ZM351.38 747L345.78 733.96H319.22L313.62 747H304.42L328.5 692.6H336.58L360.58 747H351.38ZM322.42 726.28H342.5L332.5 702.84L322.42 726.28ZM61.36 772.6V827H52.8V791.56L36.64 817.8H31.28L14.96 791.32L15.12 827H6.48V772.6H12.72L33.92 807.16L55.12 772.6H61.36ZM116.771 827L111.171 813.96H84.6106L79.0106 827H69.8106L93.8906 772.6H101.971L125.971 827H116.771ZM87.8106 806.28H107.891L97.8906 782.84L87.8106 806.28ZM156.224 797.48H183.904V827H177.104L176.464 817.64C172.624 823.96 166.144 827.96 156.864 827.96C140.624 827.96 128.704 815.48 128.704 800.36C128.704 783.48 141.424 771.64 157.264 771.64C169.024 771.64 180.224 778.12 183.424 791.08H174.224C171.424 782.68 163.824 779.64 157.424 779.64C145.984 779.64 137.424 788.04 137.424 800.36C137.424 810.84 145.264 819.88 156.864 819.88C166.464 819.88 172.624 813.8 174.544 805.48H156.224V797.48ZM237.239 772.6H245.799V827H238.919L206.839 788.6V827H198.199V772.6H204.839L237.239 811.8V772.6ZM301.146 827L295.546 813.96H268.986L263.386 827H254.186L278.266 772.6H286.346L310.346 827H301.146ZM272.186 806.28H292.266L282.266 782.84L272.186 806.28Z"/>
</mask>
<path d="M6.48 692.6V691.6H5.48V692.6H6.48ZM15.12 692.6H16.12V691.6H15.12V692.6ZM15.12 747V748H16.12V747H15.12ZM6.48 747H5.48V748H6.48V747ZM6.48 693.6H15.12V691.6H6.48V693.6ZM14.12 692.6V747H16.12V692.6H14.12ZM15.12 746H6.48V748H15.12V746ZM7.48 747V692.6H5.48V747H7.48ZM67.0825 692.6V691.6H66.0825V692.6H67.0825ZM75.6425 692.6H76.6425V691.6H75.6425V692.6ZM75.6425 747V748H76.6425V747H75.6425ZM68.7625 747L67.9951 747.641L68.2949 748H68.7625V747ZM36.6825 708.6L37.4499 707.959L35.6825 705.843V708.6H36.6825ZM36.6825 747V748H37.6825V747H36.6825ZM28.0425 747H27.0425V748H28.0425V747ZM28.0425 692.6V691.6H27.0425V692.6H28.0425ZM34.6825 692.6L35.4533 691.963L35.1533 691.6H34.6825V692.6ZM67.0825 731.8L66.3117 732.437L68.0825 734.58V731.8H67.0825ZM67.0825 693.6H75.6425V691.6H67.0825V693.6ZM74.6425 692.6V747H76.6425V692.6H74.6425ZM75.6425 746H68.7625V748H75.6425V746ZM69.5299 746.359L37.4499 707.959L35.9151 709.241L67.9951 747.641L69.5299 746.359ZM35.6825 708.6V747H37.6825V708.6H35.6825ZM36.6825 746H28.0425V748H36.6825V746ZM29.0425 747V692.6H27.0425V747H29.0425ZM28.0425 693.6H34.6825V691.6H28.0425V693.6ZM33.9117 693.237L66.3117 732.437L67.8533 731.163L35.4533 691.963L33.9117 693.237ZM68.0825 731.8V692.6H66.0825V731.8H68.0825ZM130.688 692.6H131.688V691.6H130.688V692.6ZM130.688 700.52V701.52H131.688V700.52H130.688ZM111.408 700.52V699.52H110.408V700.52H111.408ZM111.408 747V748H112.408V747H111.408ZM102.848 747H101.848V748H102.848V747ZM102.848 700.52H103.848V699.52H102.848V700.52ZM83.5681 700.52H82.5681V701.52H83.5681V700.52ZM83.5681 692.6V691.6H82.5681V692.6H83.5681ZM129.688 692.6V700.52H131.688V692.6H129.688ZM130.688 699.52H111.408V701.52H130.688V699.52ZM110.408 700.52V747H112.408V700.52H110.408ZM111.408 746H102.848V748H111.408V746ZM103.848 747V700.52H101.848V747H103.848ZM102.848 699.52H83.5681V701.52H102.848V699.52ZM84.5681 700.52V692.6H82.5681V700.52H84.5681ZM83.5681 693.6H130.688V691.6H83.5681V693.6ZM177.629 700.52V701.52H178.629V700.52H177.629ZM147.229 700.52V699.52H146.229V700.52H147.229ZM147.229 716.12H146.229V717.12H147.229V716.12ZM174.429 716.12H175.429V715.12H174.429V716.12ZM174.429 724.04V725.04H175.429V724.04H174.429ZM147.229 724.04V723.04H146.229V724.04H147.229ZM147.229 739H146.229V740H147.229V739ZM177.629 739H178.629V738H177.629V739ZM177.629 747V748H178.629V747H177.629ZM138.589 747H137.589V748H138.589V747ZM138.589 692.6V691.6H137.589V692.6H138.589ZM177.629 692.6H178.629V691.6H177.629V692.6ZM177.629 699.52H147.229V701.52H177.629V699.52ZM146.229 700.52V716.12H148.229V700.52H146.229ZM147.229 717.12H174.429V715.12H147.229V717.12ZM173.429 716.12V724.04H175.429V716.12H173.429ZM174.429 723.04H147.229V725.04H174.429V723.04ZM146.229 724.04V739H148.229V724.04H146.229ZM147.229 740H177.629V738H147.229V740ZM176.629 739V747H178.629V739H176.629ZM177.629 746H138.589V748H177.629V746ZM139.589 747V692.6H137.589V747H139.589ZM138.589 693.6H177.629V691.6H138.589V693.6ZM176.629 692.6V700.52H178.629V692.6H176.629ZM212.474 717.48V716.48H211.474V717.48H212.474ZM240.154 717.48H241.154V716.48H240.154V717.48ZM240.154 747V748H241.154V747H240.154ZM233.354 747L232.357 747.068L232.42 748H233.354V747ZM232.714 737.64L233.712 737.572L233.497 734.426L231.86 737.121L232.714 737.64ZM239.674 711.08V712.08H240.951L240.645 710.84L239.674 711.08ZM230.474 711.08L229.526 711.396L229.754 712.08H230.474V711.08ZM230.794 725.48L231.769 725.705L232.051 724.48H230.794V725.48ZM212.474 725.48H211.474V726.48H212.474V725.48ZM212.474 718.48H240.154V716.48H212.474V718.48ZM239.154 717.48V747H241.154V717.48H239.154ZM240.154 746H233.354V748H240.154V746ZM234.352 746.932L233.712 737.572L231.717 737.708L232.357 747.068L234.352 746.932ZM231.86 737.121C228.209 743.129 222.061 746.96 213.114 746.96V748.96C222.728 748.96 229.54 744.791 233.569 738.159L231.86 737.121ZM213.114 746.96C197.427 746.96 185.954 734.928 185.954 720.36H183.954C183.954 736.032 196.322 748.96 213.114 748.96V746.96ZM185.954 720.36C185.954 704.049 198.21 692.64 213.514 692.64V690.64C197.139 690.64 183.954 702.911 183.954 720.36H185.954ZM213.514 692.64C224.916 692.64 235.636 698.898 238.704 711.32L240.645 710.84C237.312 697.342 225.633 690.64 213.514 690.64V692.64ZM239.674 710.08H230.474V712.08H239.674V710.08ZM231.423 710.764C228.444 701.825 220.35 698.64 213.674 698.64V700.64C219.799 700.64 226.905 703.535 229.526 711.396L231.423 710.764ZM213.674 698.64C201.664 698.64 192.674 707.506 192.674 720.36H194.674C194.674 708.574 202.805 700.64 213.674 700.64V698.64ZM192.674 720.36C192.674 731.349 200.919 740.88 213.114 740.88V738.88C202.109 738.88 194.674 730.331 194.674 720.36H192.674ZM213.114 740.88C218.137 740.88 222.313 739.285 225.486 736.559C228.652 733.839 230.768 730.039 231.769 725.705L229.82 725.255C228.9 729.241 226.977 732.641 224.183 735.041C221.396 737.435 217.692 738.88 213.114 738.88V740.88ZM230.794 724.48H212.474V726.48H230.794V724.48ZM213.474 725.48V717.48H211.474V725.48H213.474ZM289.729 747L288.935 747.608L289.235 748H289.729V747ZM275.649 728.6L276.443 727.992L276.143 727.6H275.649V728.6ZM263.089 728.6V727.6H262.089V728.6H263.089ZM263.089 747V748H264.089V747H263.089ZM254.449 747H253.449V748H254.449V747ZM254.449 692.6V691.6H253.449V692.6H254.449ZM285.089 727.24L284.76 726.296L283.451 726.751L284.296 727.85L285.089 727.24ZM300.289 747V748H302.32L301.081 746.39L300.289 747ZM263.089 700.52V699.52H262.089V700.52H263.089ZM263.089 720.68H262.089V721.68H263.089V720.68ZM290.523 746.392L276.443 727.992L274.855 729.208L288.935 747.608L290.523 746.392ZM275.649 727.6H263.089V729.6H275.649V727.6ZM262.089 728.6V747H264.089V728.6H262.089ZM263.089 746H254.449V748H263.089V746ZM255.449 747V692.6H253.449V747H255.449ZM254.449 693.6H276.289V691.6H254.449V693.6ZM276.289 693.6C282.182 693.6 287.179 695.306 290.685 698.255C294.175 701.192 296.249 705.41 296.249 710.6H298.249C298.249 704.83 295.922 700.048 291.973 696.725C288.038 693.414 282.556 691.6 276.289 691.6V693.6ZM296.249 710.6C296.249 718.214 291.757 723.862 284.76 726.296L285.417 728.184C293.14 725.498 298.249 719.146 298.249 710.6H296.249ZM284.296 727.85L299.496 747.61L301.081 746.39L285.881 726.63L284.296 727.85ZM300.289 746H289.729V748H300.289V746ZM262.089 700.52V720.68H264.089V700.52H262.089ZM263.089 721.68H275.969V719.68H263.089V721.68ZM275.969 721.68C279.773 721.68 283.201 720.678 285.704 718.776C288.229 716.857 289.769 714.049 289.769 710.6H287.769C287.769 713.391 286.548 715.623 284.494 717.184C282.416 718.762 279.444 719.68 275.969 719.68V721.68ZM289.769 710.6C289.769 707.151 288.229 704.343 285.704 702.424C283.201 700.522 279.773 699.52 275.969 699.52V701.52C279.444 701.52 282.416 702.438 284.494 704.016C286.548 705.577 287.769 707.809 287.769 710.6H289.769ZM275.969 699.52H263.089V701.52H275.969V699.52ZM351.38 747L350.461 747.395L350.721 748H351.38V747ZM345.78 733.96L346.699 733.565L346.439 732.96H345.78V733.96ZM319.22 733.96V732.96H318.561L318.301 733.565L319.22 733.96ZM313.62 747V748H314.279L314.539 747.395L313.62 747ZM304.42 747L303.506 746.595L302.884 748H304.42V747ZM328.5 692.6V691.6H327.849L327.586 692.195L328.5 692.6ZM336.58 692.6L337.495 692.196L337.232 691.6H336.58V692.6ZM360.58 747V748H362.114L361.495 746.596L360.58 747ZM322.42 726.28L321.501 725.885L320.901 727.28H322.42V726.28ZM342.5 726.28V727.28H344.014L343.42 725.888L342.5 726.28ZM332.5 702.84L333.42 702.448L332.504 700.3L331.581 702.445L332.5 702.84ZM352.299 746.605L346.699 733.565L344.861 734.355L350.461 747.395L352.299 746.605ZM345.78 732.96H319.22V734.96H345.78V732.96ZM318.301 733.565L312.701 746.605L314.539 747.395L320.139 734.355L318.301 733.565ZM313.62 746H304.42V748H313.62V746ZM305.334 747.405L329.414 693.005L327.586 692.195L303.506 746.595L305.334 747.405ZM328.5 693.6H336.58V691.6H328.5V693.6ZM335.665 693.004L359.665 747.404L361.495 746.596L337.495 692.196L335.665 693.004ZM360.58 746H351.38V748H360.58V746ZM322.42 727.28H342.5V725.28H322.42V727.28ZM343.42 725.888L333.42 702.448L331.58 703.232L341.58 726.672L343.42 725.888ZM331.581 702.445L321.501 725.885L323.339 726.675L333.419 703.235L331.581 702.445ZM61.36 772.6H62.36V771.6H61.36V772.6ZM61.36 827V828H62.36V827H61.36ZM52.8 827H51.8V828H52.8V827ZM52.8 791.56H53.8V788.029L51.9485 791.036L52.8 791.56ZM36.64 817.8V818.8H37.1986L37.4915 818.324L36.64 817.8ZM31.28 817.8L30.4287 818.325L30.7216 818.8H31.28V817.8ZM14.96 791.32L15.8113 790.795L13.9441 787.766L13.96 791.324L14.96 791.32ZM15.12 827V828H16.1245L16.12 826.996L15.12 827ZM6.48 827H5.48V828H6.48V827ZM6.48 772.6V771.6H5.48V772.6H6.48ZM12.72 772.6L13.5724 772.077L13.2797 771.6H12.72V772.6ZM33.92 807.16L33.0676 807.683L33.92 809.072L34.7724 807.683L33.92 807.16ZM55.12 772.6V771.6H54.5603L54.2676 772.077L55.12 772.6ZM60.36 772.6V827H62.36V772.6H60.36ZM61.36 826H52.8V828H61.36V826ZM53.8 827V791.56H51.8V827H53.8ZM51.9485 791.036L35.7885 817.276L37.4915 818.324L53.6515 792.084L51.9485 791.036ZM36.64 816.8H31.28V818.8H36.64V816.8ZM32.1313 817.275L15.8113 790.795L14.1087 791.845L30.4287 818.325L32.1313 817.275ZM13.96 791.324L14.12 827.004L16.12 826.996L15.96 791.316L13.96 791.324ZM15.12 826H6.48V828H15.12V826ZM7.48 827V772.6H5.48V827H7.48ZM6.48 773.6H12.72V771.6H6.48V773.6ZM11.8676 773.123L33.0676 807.683L34.7724 806.637L13.5724 772.077L11.8676 773.123ZM34.7724 807.683L55.9724 773.123L54.2676 772.077L33.0676 806.637L34.7724 807.683ZM55.12 773.6H61.36V771.6H55.12V773.6ZM116.771 827L115.852 827.395L116.112 828H116.771V827ZM111.171 813.96L112.089 813.565L111.829 812.96H111.171V813.96ZM84.6106 813.96V812.96H83.9518L83.6918 813.565L84.6106 813.96ZM79.0106 827V828H79.6695L79.9295 827.395L79.0106 827ZM69.8106 827L68.8962 826.595L68.2744 828H69.8106V827ZM93.8906 772.6V771.6H93.2397L92.9762 772.195L93.8906 772.6ZM101.971 772.6L102.886 772.196L102.622 771.6H101.971V772.6ZM125.971 827V828H127.505L126.886 826.596L125.971 827ZM87.8106 806.28L86.892 805.885L86.292 807.28H87.8106V806.28ZM107.891 806.28V807.28H109.404L108.81 805.888L107.891 806.28ZM97.8906 782.84L98.8104 782.448L97.8943 780.3L96.972 782.445L97.8906 782.84ZM117.689 826.605L112.089 813.565L110.252 814.355L115.852 827.395L117.689 826.605ZM111.171 812.96H84.6106V814.96H111.171V812.96ZM83.6918 813.565L78.0918 826.605L79.9295 827.395L85.5295 814.355L83.6918 813.565ZM79.0106 826H69.8106V828H79.0106V826ZM70.725 827.405L94.805 773.005L92.9762 772.195L68.8962 826.595L70.725 827.405ZM93.8906 773.6H101.971V771.6H93.8906V773.6ZM101.056 773.004L125.056 827.404L126.886 826.596L102.886 772.196L101.056 773.004ZM125.971 826H116.771V828H125.971V826ZM87.8106 807.28H107.891V805.28H87.8106V807.28ZM108.81 805.888L98.8104 782.448L96.9708 783.232L106.971 806.672L108.81 805.888ZM96.972 782.445L86.892 805.885L88.7293 806.675L98.8093 783.235L96.972 782.445ZM156.224 797.48V796.48H155.224V797.48H156.224ZM183.904 797.48H184.904V796.48H183.904V797.48ZM183.904 827V828H184.904V827H183.904ZM177.104 827L176.107 827.068L176.17 828H177.104V827ZM176.464 817.64L177.462 817.572L177.247 814.426L175.61 817.121L176.464 817.64ZM183.424 791.08V792.08H184.701L184.395 790.84L183.424 791.08ZM174.224 791.08L173.276 791.396L173.504 792.08H174.224V791.08ZM174.544 805.48L175.519 805.705L175.801 804.48H174.544V805.48ZM156.224 805.48H155.224V806.48H156.224V805.48ZM156.224 798.48H183.904V796.48H156.224V798.48ZM182.904 797.48V827H184.904V797.48H182.904ZM183.904 826H177.104V828H183.904V826ZM178.102 826.932L177.462 817.572L175.467 817.708L176.107 827.068L178.102 826.932ZM175.61 817.121C171.959 823.129 165.811 826.96 156.864 826.96V828.96C166.478 828.96 173.29 824.791 177.319 818.159L175.61 817.121ZM156.864 826.96C141.177 826.96 129.704 814.928 129.704 800.36H127.704C127.704 816.032 140.072 828.96 156.864 828.96V826.96ZM129.704 800.36C129.704 784.049 141.96 772.64 157.264 772.64V770.64C140.889 770.64 127.704 782.911 127.704 800.36H129.704ZM157.264 772.64C168.666 772.64 179.386 778.898 182.454 791.32L184.395 790.84C181.062 777.342 169.383 770.64 157.264 770.64V772.64ZM183.424 790.08H174.224V792.08H183.424V790.08ZM175.173 790.764C172.194 781.825 164.1 778.64 157.424 778.64V780.64C163.549 780.64 170.655 783.535 173.276 791.396L175.173 790.764ZM157.424 778.64C145.414 778.64 136.424 787.506 136.424 800.36H138.424C138.424 788.574 146.555 780.64 157.424 780.64V778.64ZM136.424 800.36C136.424 811.349 144.669 820.88 156.864 820.88V818.88C145.859 818.88 138.424 810.331 138.424 800.36H136.424ZM156.864 820.88C161.887 820.88 166.063 819.285 169.236 816.559C172.402 813.839 174.518 810.039 175.519 805.705L173.57 805.255C172.65 809.241 170.727 812.641 167.933 815.041C165.146 817.435 161.442 818.88 156.864 818.88V820.88ZM174.544 804.48H156.224V806.48H174.544V804.48ZM157.224 805.48V797.48H155.224V805.48H157.224ZM237.239 772.6V771.6H236.239V772.6H237.239ZM245.799 772.6H246.799V771.6H245.799V772.6ZM245.799 827V828H246.799V827H245.799ZM238.919 827L238.151 827.641L238.451 828H238.919V827ZM206.839 788.6L207.606 787.959L205.839 785.843V788.6H206.839ZM206.839 827V828H207.839V827H206.839ZM198.199 827H197.199V828H198.199V827ZM198.199 772.6V771.6H197.199V772.6H198.199ZM204.839 772.6L205.61 771.963L205.31 771.6H204.839V772.6ZM237.239 811.8L236.468 812.437L238.239 814.58V811.8H237.239ZM237.239 773.6H245.799V771.6H237.239V773.6ZM244.799 772.6V827H246.799V772.6H244.799ZM245.799 826H238.919V828H245.799V826ZM239.686 826.359L207.606 787.959L206.071 789.241L238.151 827.641L239.686 826.359ZM205.839 788.6V827H207.839V788.6H205.839ZM206.839 826H198.199V828H206.839V826ZM199.199 827V772.6H197.199V827H199.199ZM198.199 773.6H204.839V771.6H198.199V773.6ZM204.068 773.237L236.468 812.437L238.01 811.163L205.61 771.963L204.068 773.237ZM238.239 811.8V772.6H236.239V811.8H238.239ZM301.146 827L300.227 827.395L300.487 828H301.146V827ZM295.546 813.96L296.464 813.565L296.204 812.96H295.546V813.96ZM268.986 813.96V812.96H268.327L268.067 813.565L268.986 813.96ZM263.386 827V828H264.044L264.304 827.395L263.386 827ZM254.186 827L253.271 826.595L252.649 828H254.186V827ZM278.266 772.6V771.6H277.615L277.351 772.195L278.266 772.6ZM286.346 772.6L287.261 772.196L286.997 771.6H286.346V772.6ZM310.346 827V828H311.88L311.261 826.596L310.346 827ZM272.186 806.28L271.267 805.885L270.667 807.28H272.186V806.28ZM292.266 806.28V807.28H293.779L293.185 805.888L292.266 806.28ZM282.266 782.84L283.185 782.448L282.269 780.3L281.347 782.445L282.266 782.84ZM302.064 826.605L296.464 813.565L294.627 814.355L300.227 827.395L302.064 826.605ZM295.546 812.96H268.986V814.96H295.546V812.96ZM268.067 813.565L262.467 826.605L264.304 827.395L269.904 814.355L268.067 813.565ZM263.386 826H254.186V828H263.386V826ZM255.1 827.405L279.18 773.005L277.351 772.195L253.271 826.595L255.1 827.405ZM278.266 773.6H286.346V771.6H278.266V773.6ZM285.431 773.004L309.431 827.404L311.261 826.596L287.261 772.196L285.431 773.004ZM310.346 826H301.146V828H310.346V826ZM272.186 807.28H292.266V805.28H272.186V807.28ZM293.185 805.888L283.185 782.448L281.346 783.232L291.346 806.672L293.185 805.888ZM281.347 782.445L271.267 805.885L273.104 806.675L283.184 783.235L281.347 782.445Z" fill="#808080" mask="url(#path-9-outside-5_3118_1765)"/>
</g>
</svg>
