<?xml version="1.0" encoding="UTF-8"?>
<svg id="Layer_1" data-name="Layer 1" xmlns="http://www.w3.org/2000/svg" version="1.1" viewBox="0 0 550 550">
  <defs>
    <style>
      .cls-1 {
        fill: gray;
        stroke-width: 0px;
      }
    </style>
  </defs>
  <path class="cls-1" d="M6.2,123.3l286.9,155.7L6.2,430.9V123.3M1.2,114.9v324.3l302.5-160.1L1.2,114.9h0Z"/>
  <path class="cls-1" d="M431.7,162.3c29.9,0,58,11.7,79.2,32.8s32.8,49.3,32.8,79.2-11.7,58-32.8,79.2c-21.2,21.2-49.3,32.8-79.2,32.8s-58-11.7-79.2-32.8c-21.2-21.2-32.8-49.3-32.8-79.2s11.7-58,32.8-79.2,49.3-32.8,79.2-32.8M431.7,157.3c-64.6,0-117,52.4-117,117s52.4,117,117,117,117-52.4,117-117-52.4-117-117-117h0Z"/>
  <path class="cls-1" d="M464.4,115.8v318.5H144.5V115.8h319.9M469.4,110.8H139.5v328.5h329.9V110.8h0Z"/>
</svg>