<?xml version="1.0" encoding="UTF-8"?>
<svg id="Layer_1" data-name="Layer 1" xmlns="http://www.w3.org/2000/svg" version="1.1" viewBox="0 0 550 550">
  <defs>
    <style>
      .cls-1 {
        fill: gray;
        stroke-width: 0px;
      }
    </style>
  </defs>
  <path class="cls-1" d="M158.7,23.8c40.7,0,79,15.9,107.8,44.6,28.8,28.8,44.6,67.1,44.6,107.8s-15.9,79-44.6,107.8c-28.8,28.8-67.1,44.6-107.8,44.6s-79-15.9-107.8-44.6C22.2,255.2,6.3,216.9,6.3,176.2s15.9-79,44.6-107.8c28.8-28.8,67.1-44.6,107.8-44.6M158.7,18.8C71.8,18.8,1.3,89.3,1.3,176.2s70.5,157.4,157.4,157.4,157.4-70.5,157.4-157.4S245.6,18.8,158.7,18.8h0Z"/>
  <path class="cls-1" d="M392,23.8c40.5,0,78.6,15.8,107.3,44.6,28.7,28.8,44.4,67.1,44.4,107.8s-15.8,79-44.4,107.8c-28.7,28.8-66.7,44.6-107.3,44.6s-78.6-15.8-107.3-44.6c-28.7-28.8-44.4-67.1-44.4-107.8s15.8-79,44.4-107.8c28.7-28.8,66.7-44.6,107.3-44.6M392,18.8c-86.5,0-156.7,70.5-156.7,157.4s70.2,157.4,156.7,157.4,156.7-70.5,156.7-157.4S478.5,18.8,392,18.8h0Z"/>
  <path class="cls-1" d="M278.4,219.6c40.9,0,79.3,15.9,108.3,44.8,28.9,28.9,44.8,67.4,44.8,108.3s-15.9,79.3-44.8,108.3c-28.9,28.9-67.4,44.8-108.3,44.8s-79.3-15.9-108.3-44.8c-28.9-28.9-44.8-67.4-44.8-108.3s15.9-79.3,44.8-108.3c28.9-28.9,67.4-44.8,108.3-44.8M278.4,214.6c-87.3,0-158.1,70.8-158.1,158.1s70.8,158.1,158.1,158.1,158.1-70.8,158.1-158.1-70.8-158.1-158.1-158.1h0Z"/>
</svg>