<svg width="90" height="89" viewBox="0 0 90 89" fill="none" xmlns="http://www.w3.org/2000/svg">
<path fill-rule="evenodd" clip-rule="evenodd" d="M13.8594 12.2275L42.0642 39.9668L26.811 3.75141L28.6542 2.9751L43.9253 39.2331V0H45.9253V39.2332L61.1964 2.9751L63.0396 3.75141L47.7863 39.9673L75.9915 12.2275L77.3939 13.6534L49.2318 41.3507L86.0536 26.3498L86.8082 28.202L50.0339 43.1836H89.8507V45.1836H50.0276L86.8082 60.1678L86.0536 62.02L49.2367 47.021L77.3939 74.7135L75.9915 76.1395L47.7859 48.3994L63.0396 84.616L61.1964 85.3923L45.9253 49.1342V88.368H43.9253V49.1343L28.6542 85.3923L26.811 84.616L42.0645 48.3998L13.8594 76.1395L12.457 74.7135L40.614 47.0212L3.79754 62.02L3.04297 60.1678L39.8236 45.1836H0V43.1836H39.8173L3.04297 28.202L3.79754 26.3498L40.6189 41.3506L12.457 13.6534L13.8594 12.2275Z" fill="black"/>
</svg>
