<?xml version="1.0" encoding="UTF-8"?> <!-- Generator: Adobe Illustrator 28.2.0, SVG Export Plug-In . SVG Version: 6.00 Build 0) --> <svg xmlns="http://www.w3.org/2000/svg" xmlns:xlink="http://www.w3.org/1999/xlink" id="Layer_2_00000026130046504564370610000001310112044283697816_" x="0px" y="0px" viewBox="0 0 226.6 227.9" style="enable-background:new 0 0 226.6 227.9;" xml:space="preserve"> <style type="text/css"> .st0{fill:#FFFFFF;} </style> <g id="Layer_1-2"> <g> <path class="st0" d="M214.5,134.9l-0.4,2.9c-4.1-1.4-6.4-5.1-5.7-9.5c0.8-5,5.2-8.5,10.4-7.7c5.2,0.8,8.4,5.4,7.7,10.4 c-0.6,4.4-3.9,7.2-8.2,7.4l0.4-2.9c2.8-0.3,4.8-2.1,5.2-5c0.5-3.6-1.8-6.7-5.6-7.2c-3.8-0.6-6.9,1.7-7.4,5.3 C210.5,131.6,211.9,133.8,214.5,134.9L214.5,134.9z"></path> <path class="st0" d="M217.4,161.2l-16.5-6.3l1-2.6l6.9,2.6l3.3-8.7l-6.9-2.6l1-2.6l16.5,6.3l-1,2.6l-7.2-2.7l-3.3,8.7l7.2,2.7 L217.4,161.2L217.4,161.2z"></path> <path class="st0" d="M195.7,171.7l4.7-7.2l-2.6-3.8l1.6-2.5l10.6,16.1l-1.4,2.2l-19.1-3l1.6-2.5L195.7,171.7L195.7,171.7z M198.4,172.2l8.2,1.4l-4.6-6.9L198.4,172.2L198.4,172.2z"></path> <path class="st0" d="M180.4,186.8l-1.9-1.8l8.4-8.9l12.8,12.2l-1.9,2l-10.9-10.4L180.4,186.8L180.4,186.8z"></path> <path class="st0" d="M167.3,196.9l-1.6-2.1l9.8-7.3l10.6,14.1l-2.2,1.7l-9-12.1L167.3,196.9L167.3,196.9z"></path> <path class="st0" d="M153.6,205.9l7.8-3.8l-0.2-4.6l2.7-1.3l0.7,19.3l-2.4,1.1l-14.8-12.5l2.7-1.3L153.6,205.9L153.6,205.9z M155.7,207.7l6.3,5.4l-0.4-8.3L155.7,207.7L155.7,207.7z"></path> <path class="st0" d="M133.3,226.1l-4.2-17.2l2.2-0.5l13.1,9.6l-3-12.1l2.7-0.7l4.2,17.2l-2.1,0.5l-13.3-9.9l3,12.4L133.3,226.1 L133.3,226.1z"></path> <path class="st0" d="M107.1,219.6l-0.2-9.6l2.2,0l0.3,3c1.2-2.1,3.3-3.4,6.3-3.5c5.3-0.1,9.2,3.9,9.3,8.8c0.1,5.5-3.9,9.4-9.1,9.5 c-3.8,0.1-7.5-1.9-8.6-6.1l3-0.1c1,2.7,3.5,3.6,5.5,3.6c3.7-0.1,6.4-2.9,6.4-6.9c-0.1-3.4-2.7-6.3-6.4-6.2 c-3.1,0.1-5.1,2.1-5.7,4.8l5.9-0.1l0.1,2.6L107.1,219.6L107.1,219.6z"></path> <path class="st0" d="M95.9,223.6l0.9-5l-8.7-1.6l0.5-2.5l8.7,1.6l0.9-4.8l-9.7-1.8L89,207l12.5,2.4l-3.3,17.4l-12.5-2.4l0.5-2.5 L95.9,223.6L95.9,223.6z"></path> <path class="st0" d="M73.8,210.8c-0.7,1.6-2.8,2.4-4.3,1.6c-1.6-0.7-2.4-2.7-1.7-4.4s2.7-2.4,4.4-1.6 C73.8,207.1,74.6,209.2,73.8,210.8L73.8,210.8z"></path> <path class="st0" d="M45.1,190.7l-2.3-1.8c3.3-2.8,7.6-2.9,11.1-0.2c4,3.2,4.8,8.8,1.5,12.9c-3.3,4.2-8.9,4.6-12.9,1.5 c-3.5-2.8-4.3-7-2.4-10.8l2.3,1.8c-1.2,2.6-0.6,5.1,1.7,7c2.8,2.2,6.7,1.8,9-1.2c2.4-3,1.9-6.8-0.9-9.1 C50,188.9,47.3,188.9,45.1,190.7L45.1,190.7z"></path> <path class="st0" d="M20.9,180.1l13.7-11.2l1.8,2.1l-5.7,4.7l5.9,7.2l5.7-4.7l1.8,2.2l-13.7,11.2l-1.8-2.2l5.9-4.9l-5.9-7.2 l-6,4.9C22.6,182.3,20.8,180.1,20.9,180.1z"></path> <path class="st0" d="M22.5,156.1l4,7.7l4.6-0.3l1.4,2.7l-19.3,1.2l-1.2-2.3L24,149.9l1.4,2.6L22.5,156.1L22.5,156.1z M20.8,158.2 l-5.3,6.4l8.3-0.6L20.8,158.2L20.8,158.2z"></path> <path class="st0" d="M17,135.3l2.5-0.7l3.5,11.7l-17,5l-0.8-2.7l14.5-4.3C19.7,144.4,17,135.3,17,135.3z"></path> <path class="st0" d="M14.8,118.8l2.6-0.3l1.5,12.2l-17.6,2.1L0.9,130l15-1.8L14.8,118.8L14.8,118.8z"></path> <path class="st0" d="M13.8,102.5l-0.6,8.6l4.1,2.1l-0.2,3l-17.1-9l0.2-2.6L18.4,98l-0.2,3L13.8,102.5L13.8,102.5z M11.2,103.4 l-7.8,2.7l7.4,3.8C10.8,109.9,11.2,103.4,11.2,103.4z"></path> <path class="st0" d="M6.4,74.9l17,4.9l-0.6,2.2L7.9,88.5l12,3.4l-0.8,2.7l-17-4.9l0.6-2.1l15.1-6.6L5.6,77.5L6.4,74.9L6.4,74.9z"></path> <path class="st0" d="M25.1,55.3l8.4,4.6l-1.1,1.9l-2.8-1.3c1.2,2.1,1.3,4.5-0.1,7.2c-2.5,4.6-8,6.1-12.3,3.7 c-4.8-2.6-6.2-8.1-3.7-12.6c1.8-3.3,5.4-5.5,9.6-4.4l-1.4,2.6c-2.8-0.5-4.9,1.2-5.9,3c-1.8,3.3-0.7,7,2.8,8.9 c3,1.6,6.8,0.8,8.6-2.5c1.5-2.7,0.7-5.4-1.3-7.3L23,64.5l-2.3-1.2L25.1,55.3L25.1,55.3z"></path> <path class="st0" d="M27.2,43.7L31,47l5.8-6.7l2,1.7L33,48.7l3.7,3.2l6.4-7.5l2,1.7l-8.3,9.6L23.4,44.1l8.3-9.6l2,1.7L27.2,43.7 L27.2,43.7z"></path> <path class="st0" d="M49.4,31c-1-1.4-0.7-3.6,0.7-4.6c1.5-1,3.6-0.7,4.6,0.7c1,1.4,0.7,3.5-0.8,4.6C52.6,32.7,50.4,32.4,49.4,31z"></path> <path class="st0" d="M81.1,16l2.7-1.1c0.8,4.2-1.2,8.1-5.3,9.7c-4.7,1.9-10-0.2-11.9-5.1c-2-4.9,0.4-10,5.1-11.9 c4.1-1.6,8.2-0.3,10.5,3.3L79.5,12c-1.7-2.3-4.2-3.1-6.9-2c-3.4,1.3-4.9,4.9-3.5,8.4c1.4,3.5,5,5.1,8.3,3.7 C80.2,21.1,81.5,18.8,81.1,16z"></path> <path class="st0" d="M102.3,0.3l2.9,17.4l-2.7,0.5l-1.2-7.3l-9.2,1.5l1.2,7.3l-2.8,0.5L87.7,2.7l2.8-0.5l1.2,7.6l9.2-1.5l-1.2-7.6 L102.3,0.3L102.3,0.3z"></path> <path class="st0" d="M122.4,13.7l-8.6-0.4l-2,4.2l-3-0.1L117.3,0l2.6,0.1l7,18l-3-0.1L122.4,13.7L122.4,13.7z M121.4,11.1 l-2.9-7.8l-3.6,7.5L121.4,11.1z"></path> <path class="st0" d="M143.1,19.2l-0.6,2.5L130.6,19l4.1-17.2l2.7,0.7l-3.5,14.7L143.1,19.2L143.1,19.2z"></path> <path class="st0" d="M158.5,25.5l-1,2.4l-11.3-4.8l6.9-16.3l2.6,1.1l-5.9,13.9L158.5,25.5z"></path> <path class="st0" d="M173.1,32.8l-7.2-4.8l-3.9,2.5l-2.5-1.7L176,18.5l2.2,1.5l-3.4,19l-2.5-1.7L173.1,32.8L173.1,32.8z M173.6,30.1l1.6-8.1l-7,4.5C168.2,26.5,173.6,30.1,173.6,30.1z"></path> <path class="st0" d="M200.8,40.2l-12.7,12.3l-1.6-1.6l1.7-16.2l-9,8.7l-1.9-2L190,29l1.5,1.5L189.7,47l9.1-8.9L200.8,40.2 L200.8,40.2z"></path> <path class="st0" d="M208.4,66.1l-8.2,5l-1.1-1.9l2.5-1.8c-2.4,0-4.6-1.1-6.2-3.7c-2.8-4.5-1.3-9.9,2.9-12.5 c4.7-2.9,10.1-1.3,12.8,3c2,3.3,2.1,7.5-0.9,10.6l-1.6-2.5c1.9-2.2,1.4-4.8,0.3-6.6c-1.9-3.2-5.7-4.1-9.1-2 c-2.9,1.8-4.1,5.5-2.1,8.7c1.6,2.7,4.4,3.3,7,2.5l-3.1-5.1l2.2-1.4L208.4,66.1L208.4,66.1z"></path> <path class="st0" d="M217.5,73.7l-4.8,1.7l2.9,8.3l-2.4,0.9l-2.9-8.3l-4.6,1.6l3.3,9.3l-2.4,0.9l-4.2-12l16.7-5.9l4.2,12l-2.4,0.9 L217.5,73.7L217.5,73.7z"></path> <path class="st0" d="M217.5,99.3c1.8-0.2,3.4,1.2,3.6,2.9c0.2,1.8-1.1,3.5-2.9,3.7c-1.8,0.2-3.4-1.2-3.6-3 C214.4,101.2,215.7,99.5,217.5,99.3z"></path> </g> </g> </svg> 