<?xml version="1.0" encoding="utf-8"?>
<!-- Generator: Adobe Illustrator 28.2.0, SVG Export Plug-In . SVG Version: 6.00 Build 0)  -->
<svg version="1.1" id="Layer_2_00000037663904649102415310000006499222955731725993_"
	 xmlns="http://www.w3.org/2000/svg" xmlns:xlink="http://www.w3.org/1999/xlink" x="0px" y="0px" viewBox="0 0 261.8 262"
	 style="enable-background:new 0 0 261.8 262;" xml:space="preserve">
<style type="text/css">
	.st0{fill:#FFFFFF;}
</style>
<g>
	<path class="st0" d="M101.8,255.5l8.6,1.2l3-20.7l3.8,0.6l-3,20.7l8.6,1.2l-0.5,3.5l-21-3L101.8,255.5L101.8,255.5z"/>
	<path class="st0" d="M79.9,231.4l10.9,4.8l4.7-4.4l3.8,1.7l-19.8,18.1l-3.3-1.5l0-26.8L80,225L79.9,231.4L79.9,231.4z M79.9,235.2
		l-0.1,11.5l8.4-7.8L79.9,235.2L79.9,235.2z"/>
	<path class="st0" d="M48.9,233.4l15-19.4l3.1,2.4l-15,19.4C52,235.7,48.9,233.4,48.9,233.4z"/>
	<path class="st0" d="M39.9,194.1l2.8-2.3l10.9,13l-18.8,15.7l-2.5-3l16-13.4L39.9,194.1L39.9,194.1z"/>
	<path class="st0" d="M16.4,165.9c6.5-2.8,13.9,0.2,16.7,6.7c2.8,6.5-0.1,13.9-6.6,16.7s-13.9-0.2-16.7-6.7
		C7,176.1,9.9,168.7,16.4,165.9z M17.9,169.5c-4.6,2-6.8,7.1-4.9,11.7s7.2,6.5,11.8,4.5s6.8-7.1,4.8-11.7S22.5,167.5,17.9,169.5
		L17.9,169.5z"/>
	<path class="st0" d="M16.2,140.6l0.5,5.6l8.2-0.7l0.3,3.9l-24.4,2.1l-0.8-9.8c-0.5-5.4,2.4-9.7,7.3-10.1c3.6-0.3,6.5,1.6,7.9,4.8
		l8.3-7.6l0.4,4.7L16.2,140.6L16.2,140.6z M13.1,146.5l-0.5-5.8c-0.3-3.3-2.2-5.6-5-5.4c-2.8,0.2-4.3,2.9-4,6.1l0.5,5.8L13.1,146.5
		L13.1,146.5z"/>
	<path class="st0" d="M4.8,110.1l6.9,1.4l2.4-12l3.5,0.7l-2.4,12l6.6,1.3l2.7-13.4l3.5,0.7L24.5,118l-24-4.8L4,95.9l3.5,0.7
		L4.8,110.1z"/>
	<path class="st0" d="M31.5,64.2c6.3,3.4,8.3,10.7,4.7,17.3l-4.3,7.9L10.4,77.8l4.3-7.9C18.3,63.2,25.4,60.9,31.5,64.2z M29.6,67.7
		c-4.3-2.3-9.4-0.6-11.8,3.9l-2.5,4.5l15.2,8.3l2.5-4.5C35.5,75.3,34.1,70.1,29.6,67.7z"/>
	<path class="st0" d="M40.8,53.5c-1.8-1.7-1.8-4.7-0.2-6.4c1.7-1.8,4.7-1.9,6.5-0.3c1.8,1.7,1.9,4.7,0.2,6.5
		C45.6,55,42.6,55.2,40.8,53.5L40.8,53.5z"/>
	<path class="st0" d="M77.7,30.3c2.2,3.4,0.8,7.5-3.8,10.5l-9.2,6L51.3,26.3l8.9-5.8c4.2-2.8,8.1-2.4,10.2,0.9
		c1.4,2.1,1.4,4.7-0.1,6.7C73.4,26.7,76.1,27.9,77.7,30.3L77.7,30.3z M56.4,27l3.9,6l5.1-3.3c2.7-1.8,3.4-4.1,2.2-6
		c-1.2-1.8-3.3-1.9-6-0.2C61.7,23.6,56.4,27,56.4,27z M74.2,32c-1.2-1.8-3.5-1.9-6.2-0.2l-6,3.9l3.9,6.1l5.8-3.8
		C74.7,36.2,75.3,33.8,74.2,32L74.2,32z"/>
	<path class="st0" d="M99.1,20.6l-5.4,1.6l2.3,8l-3.7,1.1L85.5,7.6l9.4-2.7c5.3-1.5,9.9,0.4,11.3,5.2c1,3.5-0.3,6.7-3.2,8.7l9,6.7
		l-4.6,1.3L99.1,20.6L99.1,20.6z M92.7,18.7l5.6-1.6c3.2-0.9,5.1-3.2,4.3-5.9s-3.6-3.7-6.8-2.8L90.2,10L92.7,18.7L92.7,18.7z"/>
	<path class="st0" d="M139.7,18.8l-11.9-0.3l-2.7,5.8l-4.1-0.1L132.4,0l3.6,0.1l10.1,24.8l-4.1-0.1L139.7,18.8L139.7,18.8z
		 M138.3,15.3l-4.2-10.7l-4.8,10.4L138.3,15.3L138.3,15.3z"/>
	<path class="st0" d="M185.1,11.4l-8.3,23l-2.9-1l-7.7-21.1l-5.9,16.2l-3.7-1.3l8.3-23l2.8,1l7.7,21.5l6-16.6L185.1,11.4L185.1,11.4
		z"/>
	<path class="st0" d="M212.9,44.5c-4.4,5.6-11.9,6.4-17.9,1.7l-7.1-5.6L203,21.4l7.1,5.6C216.1,31.6,217.2,39,212.9,44.5z M209.8,42
		c3-3.8,2.2-9.1-1.9-12.3l-4.1-3.2l-10.7,13.6l4.1,3.2C201.3,46.5,206.7,46,209.8,42z"/>
	<path class="st0" d="M221.9,55.4c1.9-1.5,4.9-1,6.4,0.9c1.5,2,1.1,4.9-0.8,6.4c-1.9,1.5-4.9,1.1-6.4-0.9
		C219.6,59.9,219.9,56.9,221.9,55.4L221.9,55.4z"/>
	<path class="st0" d="M248,90.4l-1.5-3.5c2.2-1.4,2.9-3.7,1.5-6.9c-1.2-2.9-3.3-4.2-5.5-3.3c-1.8,0.8-2.1,2.5-1.5,5.1l0.7,3.4
		c1,4.6,0.3,7.7-3.2,9.2c-4.2,1.8-8.4-0.4-10.6-5.6c-2.4-5.5-1.1-10.4,3.5-12.9l1.5,3.5c-2.6,1.7-3.4,4.7-1.8,8.2
		c1.3,2.9,3.3,4.2,5.4,3.3c1.4-0.6,2.2-2,1.5-4.9l-1-4.3c-1-4.5,0.2-7.4,3.6-8.9c4.1-1.8,8.2,0.4,10.4,5.3
		C252.8,82.5,253,87.6,248,90.4L248,90.4z"/>
	<path class="st0" d="M258.2,124.6l-1.1-8.6l-20.7,2.7l-0.5-3.8l20.7-2.7l-1.1-8.6l3.5-0.5l2.8,21
		C261.8,124.2,258.2,124.6,258.2,124.6z"/>
	<path class="st0" d="M245.7,162.7c-7-1.1-11.6-7.6-10.5-14.6s7.6-11.7,14.6-10.6c7,1.1,11.6,7.6,10.5,14.6
		C259.1,159.1,252.6,163.9,245.7,162.7z M246.3,158.8c4.9,0.8,9.6-2.3,10.4-7.2s-2.6-9.4-7.5-10.2c-4.9-0.8-9.5,2.3-10.3,7.3
		C238,153.6,241.4,158,246.3,158.8L246.3,158.8z"/>
	<path class="st0" d="M232.2,184.2l2.6-5l-7.3-3.8l1.8-3.4l21.7,11.3l-4.6,8.7c-2.5,4.9-7.2,6.9-11.6,4.6c-3.2-1.7-4.6-4.9-4.1-8.3
		l-11.1,1.9l2.2-4.2L232.2,184.2L232.2,184.2z M238,180.8l-2.7,5.1c-1.5,2.9-1.1,5.9,1.4,7.2s5.2-0.1,6.7-3l2.7-5.1L238,180.8
		L238,180.8z"/>
	<path class="st0" d="M228.4,218l-18.5-16l2.5-2.9l18.5,16L228.4,218z"/>
	<path class="st0" d="M209.5,231l-4.2-5.6l-9.9,7.2l-2.1-2.9l9.9-7.2l-4-5.4l-11,8.1l-2.1-2.9l14.1-10.4l14.5,19.7L200.6,242
		l-2.1-2.9L209.5,231L209.5,231z"/>
	<path class="st0" d="M164.2,250.6l3.6-1.3c1.3,2.3,3.5,3.2,6.9,1.9c2.9-1.1,4.4-3,3.6-5.3c-0.7-1.8-2.4-2.3-5-1.8l-3.4,0.5
		c-4.6,0.7-7.7-0.2-9.1-3.7c-1.6-4.3,0.9-8.4,6.2-10.3c5.6-2.1,10.4-0.5,12.7,4.3l-3.6,1.3c-1.5-2.7-4.4-3.6-8.1-2.3
		c-3,1.1-4.4,3-3.6,5.2c0.5,1.4,1.9,2.3,4.8,1.8l4.3-0.7c4.6-0.8,7.4,0.7,8.6,4.1c1.5,4.2-0.8,8.1-5.9,10
		C171.8,255.8,166.7,255.7,164.2,250.6L164.2,250.6z"/>
	<path class="st0" d="M148.4,248.1c0.3,2.4-1.6,4.8-4,5c-2.5,0.3-4.8-1.6-5.1-4s1.6-4.7,4.1-5C145.8,243.8,148.1,245.7,148.4,248.1
		L148.4,248.1z"/>
</g>
</svg>
