<svg width="698" height="224" viewBox="0 0 698 224" fill="none" xmlns="http://www.w3.org/2000/svg">
<path d="M252.69 9.05V93H235.9V9.05H252.69Z" fill="white"/>
<path d="M331.09 59.64V93H314.22V60.67C314.22 50.62 309.2 45.34 300.31 45.34C295.67 45.34 290.52 48.05 286.14 53.2V93H269.27V31.56H286.14V36.2C291.16 32.21 296.96 30.02 303.92 30.02C320.28 30.02 331.1 41.61 331.1 59.65L331.09 59.64Z" fill="white"/>
<path d="M390.3 90.07C384.81 92.19 380.31 92.69 375.94 92.69C359.96 92.69 350.97 82.7 350.97 67.47V45.37H338.24V31.64H350.97V11.04H367.32V31.64H389.17V45.37H367.32V67.47C367.32 74.46 371.69 77.58 377.81 77.58C381.56 77.58 385.05 76.46 388.05 75.21L390.3 90.07Z" fill="white"/>
<path d="M457.2 66.34H413.2C414.46 73.26 418.98 78.54 428.41 78.54C432.81 78.54 435.83 77.79 437.96 75.15H456.19C452.17 86.47 441.48 93 428.28 93C409.04 93 396.35 79.42 396.35 61.57C396.35 43.72 408.92 30.01 427.28 30.01C447.9 30.01 460.35 45.6 457.2 66.34ZM413.57 55.16H440.85C439.97 47.49 435.07 43.97 427.4 43.97C419.35 43.97 415.08 48.87 413.57 55.16Z" fill="white"/>
<path d="M527.87 31.51V91.36C527.87 109.94 515.15 121.16 497.45 121.16C479.75 121.16 467.65 110.56 466.4 95.6H482.98C483.73 101.96 488.96 106.32 497.44 106.32C505.42 106.32 511.53 101.08 511.53 91.36V83.75C506.92 86.74 501.06 88.49 494.45 88.49C477.99 88.49 464.77 75.15 464.77 59.81C464.77 41.98 477.99 30.01 494.45 30.01C501.06 30.01 506.92 31.76 511.53 34.75V31.51H527.86H527.87ZM511.54 66.92V51.58C507.67 45.97 502.31 44.1 496.95 44.1C487.6 44.1 481.11 50.33 481.11 59.81C481.11 66.79 487.59 74.4 496.95 74.4C502.31 74.4 507.67 72.53 511.54 66.92Z" fill="white"/>
<path d="M583.12 30.01V46.11C573.51 46.63 566.5 49.49 561.17 55.46V92.99H544.16V31.55H561.17V38.19C566.76 32.86 573.9 30.01 583.12 30.01Z" fill="white"/>
<path d="M652.97 31.52V91.49H636.5V88.1C631.85 91.12 625.94 93 619.28 93C602.68 93 589.36 78.92 589.36 61.57C589.36 44.22 602.69 30.01 619.28 30.01C625.94 30.01 631.85 31.9 636.5 34.91V31.52H652.97ZM636.5 71V52.02C632.6 46.49 627.2 44.98 621.79 44.98C612.36 44.98 605.82 52.52 605.82 61.58C605.82 70.64 612.36 78.05 621.79 78.05C627.2 78.05 632.6 76.54 636.5 71.01V71Z" fill="white"/>
<path d="M323.3 194.95H306.51V148.04L284.66 182.61H274.54V182.49L252.44 147.55L252.69 194.96H235.9V111.01H247.75L279.6 161.87L311.45 111.01H323.3V194.96V194.95Z" fill="white"/>
<path d="M400.54 133.55V193.44H384.09V190.05C379.44 193.06 373.54 194.95 366.89 194.95C350.32 194.95 337.01 180.89 337.01 163.56C337.01 146.23 350.32 132.05 366.89 132.05C373.54 132.05 379.44 133.93 384.09 136.95V133.56H400.54V133.55ZM384.09 172.97V154.01C380.2 148.49 374.8 146.98 369.4 146.98C359.98 146.98 353.45 154.51 353.45 163.55C353.45 172.59 359.98 180 369.4 180C374.8 180 380.2 178.49 384.09 172.97Z" fill="white"/>
<path d="M477.28 133.54V193.33C477.28 211.89 464.57 223.1 446.89 223.1C429.21 223.1 417.12 212.51 415.87 197.56H432.44C433.19 203.91 438.42 208.27 446.89 208.27C454.86 208.27 460.97 203.04 460.97 193.32V185.72C456.36 188.71 450.51 190.45 443.9 190.45C427.46 190.45 414.25 177.12 414.25 161.8C414.25 143.99 427.45 132.03 443.9 132.03C450.5 132.03 456.36 133.77 460.97 136.76V133.52H477.29L477.28 133.54ZM460.96 168.92V153.6C457.1 147.99 451.74 146.13 446.38 146.13C437.04 146.13 430.56 152.36 430.56 161.83C430.56 168.81 437.04 176.4 446.38 176.4C451.74 176.4 457.09 174.53 460.96 168.93V168.92Z" fill="white"/>
<path d="M555.59 161.63V194.95H538.74V162.66C538.74 152.63 533.72 147.35 524.85 147.35C520.22 147.35 515.07 150.05 510.7 155.2V194.95H493.85V133.59H510.7V138.22C515.72 134.23 521.51 132.05 528.45 132.05C544.79 132.05 555.59 143.63 555.59 161.64V161.63Z" fill="white"/>
<path d="M631.09 133.55V193.44H614.64V190.05C609.99 193.06 604.09 194.95 597.44 194.95C580.87 194.95 567.56 180.89 567.56 163.56C567.56 146.23 580.87 132.05 597.44 132.05C604.09 132.05 609.99 133.93 614.64 136.95V133.56H631.09V133.55ZM614.64 172.97V154.01C610.75 148.49 605.35 146.98 599.95 146.98C590.53 146.98 584 154.51 584 163.55C584 172.59 590.53 180 599.95 180C605.35 180 610.75 178.49 614.64 172.97Z" fill="white"/>
<path d="M672.14 3.22H664.31V22.09H660.84V3.22H653.01V0H672.14V3.22Z" fill="white"/>
<path d="M697.64 22.08H694.17V7.69L687.61 18.34H685.43L678.81 7.59L678.87 22.07H675.36V0H677.89L686.49 14.03L695.1 0H697.63V22.08H697.64Z" fill="white"/>
</svg>
