<svg width="225" height="58" viewBox="0 0 225 58" fill="none" xmlns="http://www.w3.org/2000/svg">
<g clip-path="url(#clip0_379_578)">
<path d="M216.36 0H8C3.58172 0 0 3.58172 0 8V50C0 54.4183 3.58172 58 8 58H216.36C220.778 58 224.36 54.4183 224.36 50V8C224.36 3.58172 220.778 0 216.36 0Z" fill="white" fill-opacity="0.3"/>
<path d="M216.416 2C219.726 2 222.416 4.69 222.416 8V50C222.416 53.31 219.726 56 216.416 56H8C4.69 56 2 53.31 2 50V8C2 4.69 4.69 2 8 2H216.416ZM216.416 0H8C3.58 0 0 3.58 0 8V50C0 54.42 3.58 58 8 58H216.416C220.836 58 224.416 54.42 224.416 50V8C224.416 3.58 220.836 0 216.416 0Z" fill="url(#paint0_linear_379_578)"/>
</g>
<defs>
<linearGradient id="paint0_linear_379_578" x1="0" y1="29" x2="573" y2="29" gradientUnits="userSpaceOnUse">
<stop stop-color="#F6DBE2"/>
<stop offset="0.5" stop-color="#F6E8C4"/>
<stop offset="1" stop-color="#ADD0BC"/>
</linearGradient>
<clipPath id="clip0_379_578">
<rect width="225" height="58" fill="white"/>
</clipPath>
</defs>
</svg>
