<svg width="58" height="58" viewBox="0 0 58 58" fill="none" xmlns="http://www.w3.org/2000/svg">
<g clip-path="url(#clip0_381_585)">
<path d="M50.3625 2.02734H7.98196C4.40907 2.02734 2.04297 4.94551 2.04297 7.9987V50.0436C2.04297 53.1191 4.41226 56.0082 7.98196 56.0082L50.2508 56.0072C53.3096 56.0072 55.9906 53.1188 55.9906 50.0426V7.99772C55.9906 4.23441 52.7391 2.02734 50.3625 2.02734Z" fill="white" fill-opacity="0.3"/>
<path d="M49.9698 2C53.2798 2 55.9698 4.69 55.9698 8V50C55.9698 53.31 53.2798 56 49.9698 56H8C4.69 56 2 53.31 2 50V8C2 4.69 4.69 2 8 2H49.9698ZM49.9698 0L8 0C3.58 0 0 3.58 0 8V50C0 54.42 3.58 58 8 58H49.9698C54.3898 58 57.9698 54.42 57.9698 50V8C57.9698 3.58 54.3898 0 49.9698 0Z" fill="black" fill-opacity="0.05"/>
</g>
<defs>
<clipPath id="clip0_381_585">
<rect width="58" height="58" fill="white"/>
</clipPath>
</defs>
</svg>
