<?xml version="1.0" encoding="UTF-8"?>
<svg id="Layer_2" data-name="Layer 2" xmlns="http://www.w3.org/2000/svg" viewBox="0 0 697.64 223.1">
  <defs>
    <style>
      .cls-1 {
        fill: #ffb600;
      }

      .cls-1, .cls-2, .cls-3, .cls-4 {
        stroke-width: 0px;
      }

      .cls-2 {
        fill: #fa7598;
      }

      .cls-3 {
        fill: #007934;
      }

      .cls-4 {
        fill: #101820;
      }
    </style>
  </defs>
  <g id="Layer_1-2" data-name="Layer 1">
    <g>
      <path class="cls-4" d="M252.69,9.05v83.95h-16.79V9.05h16.79Z"/>
      <path class="cls-4" d="M331.09,59.64v33.36h-16.87v-32.33c0-10.05-5.02-15.33-13.91-15.33-4.64,0-9.79,2.71-14.17,7.86v39.8h-16.87V31.56h16.87v4.64c5.02-3.99,10.82-6.18,17.78-6.18,16.36,0,27.18,11.59,27.18,29.63Z"/>
      <path class="cls-4" d="M390.3,90.07c-5.49,2.12-9.99,2.62-14.36,2.62-15.98,0-24.97-9.99-24.97-25.22v-22.1h-12.73v-13.73h12.73V11.04h16.35v20.6h21.85v13.73h-21.85v22.1c0,6.99,4.37,10.11,10.49,10.11,3.75,0,7.24-1.12,10.24-2.37l2.25,14.86Z"/>
      <path class="cls-4" d="M457.2,66.34h-44c1.26,6.92,5.78,12.2,15.21,12.2,4.4,0,7.42-.75,9.55-3.39h18.23c-4.02,11.32-14.71,17.85-27.91,17.85-19.24,0-31.93-13.58-31.93-31.43s12.57-31.56,30.93-31.56c20.62,0,33.07,15.59,29.92,36.33ZM413.57,55.16h27.28c-.88-7.67-5.78-11.19-13.45-11.19-8.05,0-12.32,4.9-13.83,11.19Z"/>
      <path class="cls-4" d="M527.87,31.51v59.85c0,18.58-12.72,29.8-30.42,29.8s-29.8-10.6-31.05-25.56h16.58c.75,6.36,5.98,10.72,14.46,10.72,7.98,0,14.09-5.24,14.09-14.96v-7.61c-4.61,2.99-10.47,4.74-17.08,4.74-16.46,0-29.68-13.34-29.68-28.68,0-17.83,13.22-29.8,29.68-29.8,6.61,0,12.47,1.75,17.08,4.74v-3.24h16.33ZM511.54,66.92v-15.34c-3.87-5.61-9.23-7.48-14.59-7.48-9.35,0-15.84,6.23-15.84,15.71,0,6.98,6.48,14.59,15.84,14.59,5.36,0,10.72-1.87,14.59-7.48Z"/>
      <path class="cls-4" d="M583.12,30.01v16.1c-9.61.52-16.62,3.38-21.95,9.35v37.53h-17.01V31.55h17.01v6.64c5.59-5.33,12.73-8.18,21.95-8.18Z"/>
      <path class="cls-4" d="M652.97,31.52v59.97h-16.47v-3.39c-4.65,3.02-10.56,4.9-17.22,4.9-16.6,0-29.92-14.08-29.92-31.43s13.33-31.56,29.92-31.56c6.66,0,12.57,1.89,17.22,4.9v-3.39h16.47ZM636.5,71v-18.98c-3.9-5.53-9.3-7.04-14.71-7.04-9.43,0-15.97,7.54-15.97,16.6s6.54,16.47,15.97,16.47c5.41,0,10.81-1.51,14.71-7.04Z"/>
      <path class="cls-4" d="M323.3,194.95h-16.79v-46.91l-21.85,34.57h-10.12v-.12l-22.1-34.94.25,47.41h-16.79v-83.95h11.85l31.85,50.86,31.85-50.86h11.85v83.95Z"/>
      <path class="cls-4" d="M400.54,133.55v59.89h-16.45v-3.39c-4.65,3.01-10.55,4.9-17.2,4.9-16.57,0-29.88-14.06-29.88-31.39s13.31-31.51,29.88-31.51c6.65,0,12.55,1.88,17.2,4.9v-3.39h16.45ZM384.09,172.97v-18.96c-3.89-5.52-9.29-7.03-14.69-7.03-9.42,0-15.95,7.53-15.95,16.57s6.53,16.45,15.95,16.45c5.4,0,10.8-1.51,14.69-7.03Z"/>
      <path class="cls-4" d="M477.28,133.54v59.79c0,18.56-12.71,29.77-30.39,29.77s-29.77-10.59-31.02-25.54h16.57c.75,6.35,5.98,10.71,14.45,10.71,7.97,0,14.08-5.23,14.08-14.95v-7.6c-4.61,2.99-10.46,4.73-17.07,4.73-16.44,0-29.65-13.33-29.65-28.65,0-17.81,13.2-29.77,29.65-29.77,6.6,0,12.46,1.74,17.07,4.73v-3.24h16.32ZM460.96,168.92v-15.32c-3.86-5.61-9.22-7.47-14.58-7.47-9.34,0-15.82,6.23-15.82,15.7,0,6.98,6.48,14.57,15.82,14.57,5.36,0,10.71-1.87,14.58-7.47Z"/>
      <path class="cls-4" d="M555.59,161.63v33.32h-16.85v-32.29c0-10.03-5.02-15.31-13.89-15.31-4.63,0-9.78,2.7-14.15,7.85v39.75h-16.85v-61.36h16.85v4.63c5.02-3.99,10.81-6.17,17.75-6.17,16.34,0,27.14,11.58,27.14,29.59Z"/>
      <path class="cls-4" d="M631.09,133.55v59.89h-16.45v-3.39c-4.65,3.01-10.55,4.9-17.2,4.9-16.57,0-29.88-14.06-29.88-31.39s13.31-31.51,29.88-31.51c6.65,0,12.55,1.88,17.2,4.9v-3.39h16.45ZM614.64,172.97v-18.96c-3.89-5.52-9.29-7.03-14.69-7.03-9.42,0-15.95,7.53-15.95,16.57s6.53,16.45,15.95,16.45c5.4,0,10.8-1.51,14.69-7.03Z"/>
      <path class="cls-3" d="M0,73.33h0c37.53,0,68,30.47,68,68v53.62H0v-121.62h0Z"/>
      <path class="cls-2" d="M99.69,9.05H0c0,27.53,22.32,49.85,49.85,49.85s49.85-22.32,49.85-49.85Z"/>
      <path class="cls-1" d="M185.9,194.74V43.21c-39.64,0-71.77,33.92-71.77,75.77s32.13,75.77,71.77,75.77Z"/>
      <path class="cls-4" d="M97.04,114.51h-16.61c0-58.17,47.32-105.49,105.49-105.49v16.61c-49.01,0-88.88,39.87-88.88,88.88Z"/>
      <g>
        <path class="cls-4" d="M672.14,3.22h-7.83v18.87h-3.47V3.22h-7.83V0h19.13v3.22Z"/>
        <path class="cls-4" d="M697.64,22.08h-3.47V7.69l-6.56,10.65h-2.18l-6.62-10.75.06,14.48h-3.51V0h2.53l8.6,14.03,8.61-14.03h2.53v22.08Z"/>
      </g>
    </g>
  </g>
</svg>