<svg width="698" height="224" viewBox="0 0 698 224" fill="none" xmlns="http://www.w3.org/2000/svg">
<path d="M252.69 9.0498V92.9998H235.9V9.0498H252.69Z" fill="white"/>
<path d="M331.09 59.6395V92.9995H314.22V60.6695C314.22 50.6195 309.2 45.3395 300.31 45.3395C295.67 45.3395 290.52 48.0495 286.14 53.1995V92.9995H269.27V31.5595H286.14V36.1995C291.16 32.2095 296.96 30.0195 303.92 30.0195C320.28 30.0195 331.1 41.6095 331.1 59.6495L331.09 59.6395Z" fill="white"/>
<path d="M390.3 90.07C384.81 92.19 380.31 92.69 375.94 92.69C359.96 92.69 350.97 82.7 350.97 67.47V45.37H338.24V31.64H350.97V11.04H367.32V31.64H389.17V45.37H367.32V67.47C367.32 74.46 371.69 77.58 377.81 77.58C381.56 77.58 385.05 76.46 388.05 75.21L390.3 90.07Z" fill="white"/>
<path d="M457.2 66.3398H413.2C414.46 73.2598 418.98 78.5398 428.41 78.5398C432.81 78.5398 435.83 77.7898 437.96 75.1498H456.19C452.17 86.4698 441.48 92.9998 428.28 92.9998C409.04 92.9998 396.35 79.4198 396.35 61.5698C396.35 43.7198 408.92 30.0098 427.28 30.0098C447.9 30.0098 460.35 45.5998 457.2 66.3398ZM413.57 55.1598H440.85C439.97 47.4898 435.07 43.9698 427.4 43.9698C419.35 43.9698 415.08 48.8698 413.57 55.1598Z" fill="white"/>
<path d="M527.87 31.5098V91.3598C527.87 109.94 515.15 121.16 497.45 121.16C479.75 121.16 467.65 110.56 466.4 95.5998H482.98C483.73 101.96 488.96 106.32 497.44 106.32C505.42 106.32 511.53 101.08 511.53 91.3598V83.7498C506.92 86.7398 501.06 88.4898 494.45 88.4898C477.99 88.4898 464.77 75.1498 464.77 59.8098C464.77 41.9798 477.99 30.0098 494.45 30.0098C501.06 30.0098 506.92 31.7598 511.53 34.7498V31.5098H527.86H527.87ZM511.54 66.9198V51.5798C507.67 45.9698 502.31 44.0998 496.95 44.0998C487.6 44.0998 481.11 50.3298 481.11 59.8098C481.11 66.7898 487.59 74.3998 496.95 74.3998C502.31 74.3998 507.67 72.5298 511.54 66.9198Z" fill="white"/>
<path d="M583.12 30.0098V46.1098C573.51 46.6298 566.5 49.4898 561.17 55.4598V92.9898H544.16V31.5498H561.17V38.1898C566.76 32.8598 573.9 30.0098 583.12 30.0098Z" fill="white"/>
<path d="M652.969 31.5198V91.4898H636.499V88.0998C631.849 91.1198 625.939 92.9998 619.279 92.9998C602.679 92.9998 589.359 78.9198 589.359 61.5698C589.359 44.2198 602.689 30.0098 619.279 30.0098C625.939 30.0098 631.849 31.8998 636.499 34.9098V31.5198H652.969ZM636.499 70.9998V52.0198C632.599 46.4898 627.199 44.9798 621.789 44.9798C612.359 44.9798 605.819 52.5198 605.819 61.5798C605.819 70.6398 612.359 78.0498 621.789 78.0498C627.199 78.0498 632.599 76.5398 636.499 71.0098V70.9998Z" fill="white"/>
<path d="M323.3 194.95H306.51V148.04L284.66 182.61H274.54V182.49L252.44 147.55L252.69 194.96H235.9V111.01H247.75L279.6 161.87L311.45 111.01H323.3V194.96V194.95Z" fill="white"/>
<path d="M400.54 133.55V193.44H384.09V190.05C379.44 193.06 373.54 194.95 366.89 194.95C350.32 194.95 337.01 180.89 337.01 163.56C337.01 146.23 350.32 132.05 366.89 132.05C373.54 132.05 379.44 133.93 384.09 136.95V133.56H400.54V133.55ZM384.09 172.97V154.01C380.2 148.49 374.8 146.98 369.4 146.98C359.98 146.98 353.45 154.51 353.45 163.55C353.45 172.59 359.98 180 369.4 180C374.8 180 380.2 178.49 384.09 172.97Z" fill="white"/>
<path d="M477.28 133.54V193.33C477.28 211.89 464.57 223.1 446.89 223.1C429.21 223.1 417.12 212.51 415.87 197.56H432.44C433.19 203.91 438.42 208.27 446.89 208.27C454.86 208.27 460.97 203.04 460.97 193.32V185.72C456.36 188.71 450.51 190.45 443.9 190.45C427.46 190.45 414.25 177.12 414.25 161.8C414.25 143.99 427.45 132.03 443.9 132.03C450.5 132.03 456.36 133.77 460.97 136.76V133.52H477.29L477.28 133.54ZM460.96 168.92V153.6C457.1 147.99 451.74 146.13 446.38 146.13C437.04 146.13 430.56 152.36 430.56 161.83C430.56 168.81 437.04 176.4 446.38 176.4C451.74 176.4 457.09 174.53 460.96 168.93V168.92Z" fill="white"/>
<path d="M555.59 161.63V194.95H538.74V162.66C538.74 152.63 533.72 147.35 524.85 147.35C520.22 147.35 515.07 150.05 510.7 155.2V194.95H493.85V133.59H510.7V138.22C515.72 134.23 521.51 132.05 528.45 132.05C544.79 132.05 555.59 143.63 555.59 161.64V161.63Z" fill="white"/>
<path d="M631.091 133.55V193.44H614.641V190.05C609.991 193.06 604.091 194.95 597.441 194.95C580.871 194.95 567.561 180.89 567.561 163.56C567.561 146.23 580.871 132.05 597.441 132.05C604.091 132.05 609.991 133.93 614.641 136.95V133.56H631.091V133.55ZM614.641 172.97V154.01C610.751 148.49 605.351 146.98 599.951 146.98C590.531 146.98 584.001 154.51 584.001 163.55C584.001 172.59 590.531 180 599.951 180C605.351 180 610.751 178.49 614.641 172.97Z" fill="white"/>
<path d="M672.14 3.22H664.31V22.09H660.84V3.22H653.01V0H672.14V3.22Z" fill="white"/>
<path d="M697.639 22.08H694.169V7.69L687.609 18.34H685.429L678.809 7.59L678.869 22.07H675.359V0H677.889L686.489 14.03L695.099 0H697.629V22.08H697.639Z" fill="white"/>
</svg>
