<svg width="678" height="215" viewBox="0 0 678 215" fill="none" xmlns="http://www.w3.org/2000/svg">
<path d="M0 64.3101C37.53 64.3101 68 94.7801 68 132.31V185.93H0V64.3101Z" fill="#007934"/>
<path d="M99.69 0.0200195H0C0 27.55 22.32 49.87 49.85 49.87C77.38 49.87 99.69 27.55 99.69 0.0200195Z" fill="#FA7598"/>
<path d="M185.903 185.72V34.1799C146.263 34.1799 114.133 68.0999 114.133 109.95C114.133 151.8 146.263 185.72 185.903 185.72Z" fill="#FFB600"/>
<path d="M97.0397 105.49H80.4297C80.4297 47.32 127.75 0 185.91 0V16.61C136.9 16.61 97.0297 56.48 97.0297 105.49H97.0397Z" fill="#101820"/>
</svg>
