<?xml version="1.0" encoding="UTF-8"?>
<svg id="Layer_1" data-name="Layer 1" xmlns="http://www.w3.org/2000/svg" version="1.1" viewBox="0 0 550 551">
  <defs>
    <style>
      .cls-1 {
        fill: gray;
        stroke-width: 0px;
      }
    </style>
  </defs>
  <path class="cls-1" d="M256.8,10.1l284.1,247-248,285.3L8.8,295.3,256.8,10.1M256.3,3L1.7,295.8l291.6,253.5,254.6-292.8L256.3,3h0Z"/>
  <path class="cls-1" d="M275,143.6c35.2,0,68.4,13.7,93.3,38.6,24.9,24.9,38.6,58,38.6,93.3s-13.7,68.4-38.6,93.3c-24.9,24.9-58,38.6-93.3,38.6s-68.4-13.7-93.3-38.6-38.6-58-38.6-93.3,13.7-68.4,38.6-93.3c24.9-24.9,58-38.6,93.3-38.6M275,138.6c-75.6,0-136.9,61.3-136.9,136.9s61.3,136.9,136.9,136.9,136.9-61.3,136.9-136.9-61.3-136.9-136.9-136.9h0Z"/>
  <path class="cls-1" d="M543.8,6.8v537.5H6.3V6.8h537.5M548.8,1.8H1.3v547.5h547.5V1.8h0Z"/>
</svg>