<?xml version="1.0" encoding="UTF-8"?>
<svg id="Layer_1" data-name="Layer 1" xmlns="http://www.w3.org/2000/svg" version="1.1" viewBox="0 0 550 551">
  <defs>
    <style>
      .cls-1 {
        fill: gray;
        stroke-width: 0px;
      }
    </style>
  </defs>
  <path class="cls-1" d="M270,7.2v263.1H6.2V7.2h263.8M275,2.2H1.2v273.1h273.8V2.2h0Z"/>
  <path class="cls-1" d="M363.9,7.3c48.1,0,93.3,18.3,127.3,51.6,34,33.3,52.7,77.5,52.7,124.5v86.9h-268.8V7.3h88.9M363.9,2.3h-93.9v273h278.8v-91.9c0-100-82.8-181.1-184.9-181.1h0Z"/>
  <path class="cls-1" d="M270,275v269.7h-87.2c-47.2,0-91.5-18.7-124.8-52.5-33.4-33.9-51.8-79-51.8-127.1v-90.1h263.8M275,270H1.2v95.1c0,102,81.3,184.6,181.6,184.6h92.2v-279.7h0Z"/>
  <path class="cls-1" d="M417.4,340.6c39.3,0,71.3,31.9,71.3,71.2s-32,71.2-71.3,71.2-71.3-31.9-71.3-71.2,32-71.2,71.3-71.2M417.4,335.6c-42.1,0-76.3,34.1-76.3,76.2s34.2,76.2,76.3,76.2,76.3-34.1,76.3-76.2-34.2-76.2-76.3-76.2h0Z"/>
</svg>