<?xml version="1.0" encoding="UTF-8"?>
<svg id="Layer_1" data-name="Layer 1" xmlns="http://www.w3.org/2000/svg" version="1.1" viewBox="0 0 550 550">
  <defs>
    <style>
      .cls-1 {
        fill: gray;
        stroke-width: 0px;
      }
    </style>
  </defs>
  <path class="cls-1" d="M200.4,209.4l177.5,334.4H18.3L200.4,209.4M200.5,198.8L9.9,548.8h376.4L200.5,198.8h0Z"/>
  <path class="cls-1" d="M531.7,6.2l-182.1,334.4L171.9,6.2h359.8M540.1,1.2H163.6l185.9,350L540.1,1.2h0Z"/>
  <path class="cls-1" d="M275,144.1c35.1,0,68.2,13.6,93,38.3,24.8,24.7,38.5,57.6,38.5,92.6s-13.7,67.8-38.5,92.6c-24.8,24.7-57.9,38.3-93,38.3s-68.2-13.6-93-38.3c-24.8-24.7-38.5-57.6-38.5-92.6s13.7-67.8,38.5-92.6c24.8-24.7,57.9-38.3,93-38.3M275,139.1c-75.4,0-136.5,60.8-136.5,135.9s61.1,135.9,136.5,135.9,136.5-60.8,136.5-135.9-61.1-135.9-136.5-135.9h0Z"/>
</svg>